G75*
G70*
%OFA0B0*%
%FSLAX24Y24*%
%IPPOS*%
%LPD*%
%AMOC8*
5,1,8,0,0,1.08239X$1,22.5*
%
%ADD10C,0.0000*%
%ADD11R,0.0276X0.0354*%
%ADD12R,0.0315X0.0315*%
%ADD13R,0.0984X0.0197*%
%ADD14R,0.0984X0.0787*%
%ADD15R,0.0551X0.0394*%
%ADD16R,0.0315X0.0354*%
%ADD17R,0.0315X0.0472*%
%ADD18R,0.0100X0.0394*%
%ADD19R,0.0394X0.0100*%
%ADD20R,0.0740X0.0740*%
%ADD21C,0.0740*%
%ADD22R,0.0248X0.0327*%
%ADD23R,0.0433X0.0394*%
%ADD24C,0.0634*%
%ADD25C,0.0080*%
%ADD26C,0.0160*%
%ADD27C,0.0100*%
%ADD28C,0.0318*%
%ADD29C,0.0436*%
%ADD30C,0.0397*%
%ADD31C,0.0240*%
%ADD32C,0.0120*%
D10*
X000474Y000181D02*
X000474Y008055D01*
X020474Y008055D01*
X020474Y000181D01*
X000474Y000181D01*
X002297Y003315D02*
X002299Y003341D01*
X002305Y003367D01*
X002315Y003392D01*
X002328Y003415D01*
X002344Y003435D01*
X002364Y003453D01*
X002386Y003468D01*
X002409Y003480D01*
X002435Y003488D01*
X002461Y003492D01*
X002487Y003492D01*
X002513Y003488D01*
X002539Y003480D01*
X002563Y003468D01*
X002584Y003453D01*
X002604Y003435D01*
X002620Y003415D01*
X002633Y003392D01*
X002643Y003367D01*
X002649Y003341D01*
X002651Y003315D01*
X002649Y003289D01*
X002643Y003263D01*
X002633Y003238D01*
X002620Y003215D01*
X002604Y003195D01*
X002584Y003177D01*
X002562Y003162D01*
X002539Y003150D01*
X002513Y003142D01*
X002487Y003138D01*
X002461Y003138D01*
X002435Y003142D01*
X002409Y003150D01*
X002385Y003162D01*
X002364Y003177D01*
X002344Y003195D01*
X002328Y003215D01*
X002315Y003238D01*
X002305Y003263D01*
X002299Y003289D01*
X002297Y003315D01*
X002297Y005048D02*
X002299Y005074D01*
X002305Y005100D01*
X002315Y005125D01*
X002328Y005148D01*
X002344Y005168D01*
X002364Y005186D01*
X002386Y005201D01*
X002409Y005213D01*
X002435Y005221D01*
X002461Y005225D01*
X002487Y005225D01*
X002513Y005221D01*
X002539Y005213D01*
X002563Y005201D01*
X002584Y005186D01*
X002604Y005168D01*
X002620Y005148D01*
X002633Y005125D01*
X002643Y005100D01*
X002649Y005074D01*
X002651Y005048D01*
X002649Y005022D01*
X002643Y004996D01*
X002633Y004971D01*
X002620Y004948D01*
X002604Y004928D01*
X002584Y004910D01*
X002562Y004895D01*
X002539Y004883D01*
X002513Y004875D01*
X002487Y004871D01*
X002461Y004871D01*
X002435Y004875D01*
X002409Y004883D01*
X002385Y004895D01*
X002364Y004910D01*
X002344Y004928D01*
X002328Y004948D01*
X002315Y004971D01*
X002305Y004996D01*
X002299Y005022D01*
X002297Y005048D01*
D11*
X004718Y005181D03*
X005230Y005181D03*
X005230Y004681D03*
X004718Y004681D03*
X004718Y004181D03*
X005230Y004181D03*
X005230Y003681D03*
X004718Y003681D03*
X004718Y003181D03*
X005230Y003181D03*
X006718Y003681D03*
X007230Y003681D03*
X007230Y004261D03*
X006718Y004261D03*
X008478Y004961D03*
X008990Y004961D03*
X008990Y005441D03*
X008478Y005441D03*
X008478Y005921D03*
X008990Y005921D03*
X011858Y006601D03*
X012370Y006601D03*
G36*
X014366Y003280D02*
X014171Y003475D01*
X014420Y003724D01*
X014615Y003529D01*
X014366Y003280D01*
G37*
G36*
X014728Y002918D02*
X014533Y003113D01*
X014782Y003362D01*
X014977Y003167D01*
X014728Y002918D01*
G37*
G36*
X014160Y002544D02*
X014355Y002349D01*
X014106Y002100D01*
X013911Y002295D01*
X014160Y002544D01*
G37*
G36*
X014522Y002182D02*
X014717Y001987D01*
X014468Y001738D01*
X014273Y001933D01*
X014522Y002182D01*
G37*
X010010Y001761D03*
X009498Y001761D03*
D12*
X014998Y001541D03*
X015589Y001541D03*
D13*
X003458Y003551D03*
X003458Y003866D03*
X003458Y004181D03*
X003458Y004496D03*
X003458Y004811D03*
D14*
X003458Y005953D03*
X001293Y005953D03*
X001293Y002410D03*
X003458Y002410D03*
D15*
X006541Y002307D03*
X007407Y002681D03*
X006541Y003055D03*
X006541Y004807D03*
X007407Y005181D03*
X006541Y005555D03*
D16*
X018920Y005335D03*
X019668Y005335D03*
X019294Y004508D03*
X019294Y003414D03*
X019668Y002588D03*
X018920Y002588D03*
D17*
X018939Y002001D03*
X019648Y002001D03*
X019648Y005961D03*
X018939Y005961D03*
D18*
G36*
X013819Y004425D02*
X013748Y004496D01*
X014025Y004773D01*
X014096Y004702D01*
X013819Y004425D01*
G37*
G36*
X013680Y004564D02*
X013609Y004635D01*
X013886Y004912D01*
X013957Y004841D01*
X013680Y004564D01*
G37*
G36*
X013541Y004703D02*
X013470Y004774D01*
X013747Y005051D01*
X013818Y004980D01*
X013541Y004703D01*
G37*
G36*
X013402Y004843D02*
X013331Y004914D01*
X013608Y005191D01*
X013679Y005120D01*
X013402Y004843D01*
G37*
G36*
X013263Y004982D02*
X013192Y005053D01*
X013469Y005330D01*
X013540Y005259D01*
X013263Y004982D01*
G37*
G36*
X013123Y005121D02*
X013052Y005192D01*
X013329Y005469D01*
X013400Y005398D01*
X013123Y005121D01*
G37*
G36*
X012984Y005260D02*
X012913Y005331D01*
X013190Y005608D01*
X013261Y005537D01*
X012984Y005260D01*
G37*
G36*
X012845Y005399D02*
X012774Y005470D01*
X013051Y005747D01*
X013122Y005676D01*
X012845Y005399D01*
G37*
G36*
X012706Y005539D02*
X012635Y005610D01*
X012912Y005887D01*
X012983Y005816D01*
X012706Y005539D01*
G37*
G36*
X012567Y005678D02*
X012496Y005749D01*
X012773Y006026D01*
X012844Y005955D01*
X012567Y005678D01*
G37*
G36*
X012427Y005817D02*
X012356Y005888D01*
X012633Y006165D01*
X012704Y006094D01*
X012427Y005817D01*
G37*
G36*
X012288Y005956D02*
X012217Y006027D01*
X012494Y006304D01*
X012565Y006233D01*
X012288Y005956D01*
G37*
G36*
X009922Y003590D02*
X009851Y003661D01*
X010128Y003938D01*
X010199Y003867D01*
X009922Y003590D01*
G37*
G36*
X010061Y003451D02*
X009990Y003522D01*
X010267Y003799D01*
X010338Y003728D01*
X010061Y003451D01*
G37*
G36*
X010200Y003311D02*
X010129Y003382D01*
X010406Y003659D01*
X010477Y003588D01*
X010200Y003311D01*
G37*
G36*
X010340Y003172D02*
X010269Y003243D01*
X010546Y003520D01*
X010617Y003449D01*
X010340Y003172D01*
G37*
G36*
X010479Y003033D02*
X010408Y003104D01*
X010685Y003381D01*
X010756Y003310D01*
X010479Y003033D01*
G37*
G36*
X010618Y002894D02*
X010547Y002965D01*
X010824Y003242D01*
X010895Y003171D01*
X010618Y002894D01*
G37*
G36*
X010757Y002755D02*
X010686Y002826D01*
X010963Y003103D01*
X011034Y003032D01*
X010757Y002755D01*
G37*
G36*
X010896Y002615D02*
X010825Y002686D01*
X011102Y002963D01*
X011173Y002892D01*
X010896Y002615D01*
G37*
G36*
X011036Y002476D02*
X010965Y002547D01*
X011242Y002824D01*
X011313Y002753D01*
X011036Y002476D01*
G37*
G36*
X011175Y002337D02*
X011104Y002408D01*
X011381Y002685D01*
X011452Y002614D01*
X011175Y002337D01*
G37*
G36*
X011314Y002198D02*
X011243Y002269D01*
X011520Y002546D01*
X011591Y002475D01*
X011314Y002198D01*
G37*
G36*
X011453Y002059D02*
X011382Y002130D01*
X011659Y002407D01*
X011730Y002336D01*
X011453Y002059D01*
G37*
D19*
G36*
X012494Y002059D02*
X012217Y002336D01*
X012288Y002407D01*
X012565Y002130D01*
X012494Y002059D01*
G37*
G36*
X012633Y002198D02*
X012356Y002475D01*
X012427Y002546D01*
X012704Y002269D01*
X012633Y002198D01*
G37*
G36*
X012773Y002337D02*
X012496Y002614D01*
X012567Y002685D01*
X012844Y002408D01*
X012773Y002337D01*
G37*
G36*
X012912Y002476D02*
X012635Y002753D01*
X012706Y002824D01*
X012983Y002547D01*
X012912Y002476D01*
G37*
G36*
X013051Y002615D02*
X012774Y002892D01*
X012845Y002963D01*
X013122Y002686D01*
X013051Y002615D01*
G37*
G36*
X013190Y002755D02*
X012913Y003032D01*
X012984Y003103D01*
X013261Y002826D01*
X013190Y002755D01*
G37*
G36*
X013329Y002894D02*
X013052Y003171D01*
X013123Y003242D01*
X013400Y002965D01*
X013329Y002894D01*
G37*
G36*
X013469Y003033D02*
X013192Y003310D01*
X013263Y003381D01*
X013540Y003104D01*
X013469Y003033D01*
G37*
G36*
X013608Y003172D02*
X013331Y003449D01*
X013402Y003520D01*
X013679Y003243D01*
X013608Y003172D01*
G37*
G36*
X013747Y003311D02*
X013470Y003588D01*
X013541Y003659D01*
X013818Y003382D01*
X013747Y003311D01*
G37*
G36*
X013886Y003451D02*
X013609Y003728D01*
X013680Y003799D01*
X013957Y003522D01*
X013886Y003451D01*
G37*
G36*
X014025Y003590D02*
X013748Y003867D01*
X013819Y003938D01*
X014096Y003661D01*
X014025Y003590D01*
G37*
G36*
X010685Y004982D02*
X010408Y005259D01*
X010479Y005330D01*
X010756Y005053D01*
X010685Y004982D01*
G37*
G36*
X010546Y004843D02*
X010269Y005120D01*
X010340Y005191D01*
X010617Y004914D01*
X010546Y004843D01*
G37*
G36*
X010406Y004703D02*
X010129Y004980D01*
X010200Y005051D01*
X010477Y004774D01*
X010406Y004703D01*
G37*
G36*
X010267Y004564D02*
X009990Y004841D01*
X010061Y004912D01*
X010338Y004635D01*
X010267Y004564D01*
G37*
G36*
X010128Y004425D02*
X009851Y004702D01*
X009922Y004773D01*
X010199Y004496D01*
X010128Y004425D01*
G37*
G36*
X010824Y005121D02*
X010547Y005398D01*
X010618Y005469D01*
X010895Y005192D01*
X010824Y005121D01*
G37*
G36*
X010963Y005260D02*
X010686Y005537D01*
X010757Y005608D01*
X011034Y005331D01*
X010963Y005260D01*
G37*
G36*
X011102Y005399D02*
X010825Y005676D01*
X010896Y005747D01*
X011173Y005470D01*
X011102Y005399D01*
G37*
G36*
X011242Y005539D02*
X010965Y005816D01*
X011036Y005887D01*
X011313Y005610D01*
X011242Y005539D01*
G37*
G36*
X011381Y005678D02*
X011104Y005955D01*
X011175Y006026D01*
X011452Y005749D01*
X011381Y005678D01*
G37*
G36*
X011520Y005817D02*
X011243Y006094D01*
X011314Y006165D01*
X011591Y005888D01*
X011520Y005817D01*
G37*
G36*
X011659Y005956D02*
X011382Y006233D01*
X011453Y006304D01*
X011730Y006027D01*
X011659Y005956D01*
G37*
D20*
X019974Y007601D03*
X000974Y000681D03*
D21*
X001974Y000681D03*
X002974Y000681D03*
X003974Y000681D03*
X004974Y000681D03*
X005974Y000681D03*
X006974Y000681D03*
X007974Y000681D03*
X008974Y000681D03*
X009974Y000681D03*
X010974Y000681D03*
X011974Y000681D03*
X012974Y000681D03*
X013974Y000681D03*
X014974Y000681D03*
X015974Y000681D03*
X016974Y000681D03*
X017974Y000681D03*
X018974Y000681D03*
X019974Y000681D03*
X018974Y007601D03*
X017974Y007601D03*
X016974Y007601D03*
X015974Y007601D03*
X014974Y007601D03*
X013974Y007601D03*
X012974Y007601D03*
X011974Y007601D03*
X010974Y007601D03*
X009974Y007601D03*
X008974Y007601D03*
X007974Y007601D03*
X006974Y007601D03*
X005974Y007601D03*
X004974Y007601D03*
X003974Y007601D03*
X002974Y007601D03*
X001974Y007601D03*
X000974Y007601D03*
D22*
X004541Y005861D03*
X005446Y005861D03*
D23*
X018959Y006641D03*
X019628Y006641D03*
D24*
X018114Y005858D02*
X018114Y005225D01*
X016114Y005225D02*
X016114Y005858D01*
X016114Y003298D02*
X016114Y002665D01*
X018114Y002665D02*
X018114Y003298D01*
D25*
X018554Y003621D02*
X018314Y003861D01*
X018314Y004581D01*
X018154Y004741D01*
X018154Y005541D01*
X018114Y005541D01*
X018714Y006021D02*
X018394Y006341D01*
X017402Y006341D01*
X017514Y006581D02*
X017834Y006901D01*
X018314Y006901D01*
X018474Y007061D01*
X019434Y007061D01*
X019974Y007601D01*
X018974Y007601D02*
X018774Y007601D01*
X018234Y007061D01*
X017594Y007061D01*
X017274Y006741D01*
X015786Y006741D01*
X013783Y004738D01*
X013922Y004599D02*
X015905Y006581D01*
X017514Y006581D01*
X017034Y006053D02*
X017034Y005461D01*
X016154Y004581D01*
X015754Y004581D01*
X014184Y003502D02*
X013922Y003764D01*
X013783Y003625D02*
X013466Y003941D01*
X013274Y003941D01*
X012634Y003301D01*
X012474Y003301D01*
X012154Y003221D02*
X011994Y003061D01*
X011994Y002821D01*
X011914Y003381D02*
X011354Y002821D01*
X011274Y002821D01*
X011114Y002661D01*
X011139Y002650D01*
X010250Y001761D01*
X010010Y001761D01*
X009834Y002101D02*
X009658Y001926D01*
X009498Y001761D01*
X009198Y001541D01*
X009034Y001541D01*
X009434Y001701D02*
X009498Y001761D01*
X009834Y002101D02*
X010311Y002101D01*
X010999Y002789D01*
X011034Y002821D01*
X011594Y003381D01*
X011594Y003701D01*
X011434Y003861D01*
X011434Y004021D01*
X011914Y004341D02*
X011914Y003381D01*
X012154Y003381D02*
X012154Y003221D01*
X012154Y003381D02*
X012394Y003621D01*
X012394Y004501D01*
X011754Y005141D01*
X011434Y004821D01*
X010634Y004821D01*
X010474Y004981D01*
X010443Y005017D01*
X010474Y004981D02*
X010474Y005061D01*
X010554Y005141D01*
X010582Y005156D01*
X010721Y005295D02*
X010721Y005374D01*
X009834Y006261D01*
X006474Y006261D01*
X005834Y006901D01*
X004714Y006901D01*
X004014Y007601D01*
X003974Y007601D01*
X004974Y007601D02*
X005134Y007601D01*
X005674Y007061D01*
X005994Y007061D01*
X006634Y006421D01*
X009914Y006421D01*
X010860Y005475D01*
X010860Y005434D01*
X010999Y005573D02*
X009991Y006581D01*
X006954Y006581D01*
X005974Y007561D01*
X005974Y007601D01*
X006954Y007621D02*
X006974Y007601D01*
X007594Y006981D01*
X007754Y006821D01*
X007834Y006741D01*
X010110Y006741D01*
X011139Y005713D01*
X011278Y005852D02*
X010228Y006901D01*
X008634Y006901D01*
X007934Y007601D01*
X007974Y007601D01*
X008894Y007681D02*
X008974Y007601D01*
X009514Y007061D01*
X010346Y007061D01*
X011417Y005991D01*
X011556Y006130D02*
X010085Y007601D01*
X009974Y007601D01*
X010974Y007601D02*
X011674Y006901D01*
X012954Y006901D01*
X013194Y006661D01*
X013194Y006376D01*
X012670Y005852D01*
X012794Y005701D02*
X012809Y005713D01*
X013434Y006337D01*
X013434Y006821D01*
X013194Y007061D01*
X012474Y007061D01*
X011974Y007561D01*
X011974Y007601D01*
X012974Y007601D02*
X013674Y006901D01*
X013674Y006299D01*
X012948Y005573D01*
X012954Y005541D01*
X012714Y005301D01*
X012714Y004981D01*
X012794Y004901D01*
X012794Y004661D01*
X012314Y004981D02*
X012314Y005221D01*
X012794Y005701D01*
X012530Y005991D02*
X012721Y006181D01*
X012874Y006334D01*
X012874Y006501D01*
X012724Y006181D02*
X012721Y006181D01*
X013087Y005434D02*
X013974Y006321D01*
X013974Y007601D01*
X014974Y007601D02*
X014974Y007141D01*
X014974Y007042D01*
X013226Y005295D01*
X013366Y005156D02*
X015891Y007681D01*
X015974Y007601D01*
X016154Y007061D02*
X016694Y007601D01*
X016974Y007601D01*
X017274Y007061D02*
X017814Y007601D01*
X017974Y007601D01*
X017274Y007061D02*
X016474Y007061D01*
X016314Y006901D01*
X015668Y006901D01*
X013644Y004877D01*
X013505Y005017D02*
X015550Y007061D01*
X016154Y007061D01*
X017033Y006053D02*
X017039Y006087D01*
X017049Y006120D01*
X017062Y006153D01*
X017078Y006183D01*
X017097Y006212D01*
X017120Y006239D01*
X017145Y006263D01*
X017172Y006284D01*
X017201Y006302D01*
X017232Y006318D01*
X017265Y006329D01*
X017299Y006338D01*
X017333Y006343D01*
X017367Y006344D01*
X017402Y006342D01*
X018714Y006021D02*
X018874Y006021D01*
X018939Y005961D01*
X019594Y005301D02*
X019668Y005335D01*
X019594Y005301D02*
X019434Y005301D01*
X018794Y004661D01*
X018794Y004261D01*
X018554Y003621D02*
X018554Y002261D01*
X018474Y002181D01*
X018474Y001461D01*
X018234Y001221D02*
X018774Y000681D01*
X018974Y000681D01*
X017974Y000681D02*
X017734Y000681D01*
X017194Y001221D01*
X016634Y001221D01*
X015834Y002021D01*
X015114Y002021D01*
X014154Y002981D01*
X013870Y002981D01*
X013505Y003346D01*
X013366Y003207D02*
X013751Y002821D01*
X014074Y002821D01*
X015034Y001861D01*
X015754Y001861D01*
X016934Y000681D01*
X016974Y000681D01*
X015974Y000681D02*
X015734Y000681D01*
X015194Y001221D01*
X014794Y001221D01*
X013087Y002929D01*
X012948Y002789D02*
X014974Y000764D01*
X014974Y000681D01*
X014314Y000981D02*
X014014Y000681D01*
X013974Y000681D01*
X014314Y000981D02*
X014314Y001145D01*
X012809Y002650D01*
X012670Y002511D02*
X013914Y001267D01*
X013914Y001221D01*
X013674Y001221D01*
X013134Y000681D01*
X012974Y000681D01*
X012714Y001221D02*
X012174Y000681D01*
X011974Y000681D01*
X011754Y001221D02*
X011214Y000681D01*
X010974Y000681D01*
X010005Y000681D02*
X009974Y000681D01*
X010005Y000681D02*
X011556Y002233D01*
X011417Y002372D02*
X010266Y001221D01*
X009674Y001221D01*
X009134Y000681D01*
X008974Y000681D01*
X008714Y001221D02*
X008174Y000681D01*
X007974Y000681D01*
X007754Y001221D02*
X007214Y000681D01*
X006974Y000681D01*
X006714Y001461D02*
X005974Y000721D01*
X005974Y000681D01*
X005834Y001621D02*
X004974Y000761D01*
X004974Y000681D01*
X003974Y000681D02*
X003974Y000721D01*
X005034Y001781D01*
X007754Y001781D01*
X009434Y003461D01*
X010001Y003461D01*
X010164Y003625D01*
X010303Y003485D02*
X010119Y003301D01*
X009514Y003301D01*
X007834Y001621D01*
X005834Y001621D01*
X006714Y001461D02*
X007914Y001461D01*
X009594Y003141D01*
X010238Y003141D01*
X010443Y003346D01*
X010582Y003207D02*
X010356Y002981D01*
X009914Y002981D01*
X009754Y002821D01*
X010154Y002661D02*
X010315Y002661D01*
X010721Y003068D01*
X010860Y002929D02*
X010193Y002261D01*
X009114Y002261D01*
X008074Y001221D01*
X007754Y001221D01*
X008714Y001221D02*
X009434Y001221D01*
X009594Y001381D01*
X010148Y001381D01*
X011278Y002511D01*
X012391Y002233D02*
X013194Y001430D01*
X013194Y001381D01*
X012634Y001381D01*
X012474Y001221D01*
X011754Y001221D01*
X012714Y001221D02*
X013354Y001221D01*
X013514Y001381D01*
X013514Y001389D01*
X012530Y002372D01*
X013226Y003068D02*
X013972Y002322D01*
X014133Y002322D01*
X014495Y001960D02*
X014914Y001541D01*
X014998Y001541D01*
X015589Y001541D02*
X015594Y001537D01*
X015594Y001221D01*
X015914Y002181D02*
X016714Y001381D01*
X017274Y001381D01*
X017434Y001221D01*
X018234Y001221D01*
X015914Y002181D02*
X015194Y002181D01*
X014234Y003141D01*
X013988Y003141D01*
X013644Y003485D01*
X014184Y003502D02*
X014393Y003502D01*
X010025Y003764D02*
X009496Y003764D01*
X007674Y001941D01*
X004234Y001941D01*
X002974Y000681D01*
X001994Y000741D02*
X001974Y000681D01*
X001994Y000741D02*
X001994Y001541D01*
X001274Y001461D02*
X001274Y001701D01*
X001274Y001461D02*
X000954Y001141D01*
X000954Y000741D01*
X000974Y000681D01*
X004714Y002821D02*
X004718Y002826D01*
X004718Y003181D01*
X005230Y003181D02*
X005230Y003681D01*
X005230Y004181D01*
X005674Y004181D01*
X005994Y004501D01*
X005994Y005141D01*
X005230Y005181D02*
X005230Y004681D01*
X005274Y004661D01*
X005674Y004661D01*
X006541Y004807D02*
X006541Y004439D01*
X006718Y004261D01*
X007230Y004261D02*
X006718Y003681D01*
X006718Y003233D01*
X006541Y003055D01*
X006027Y002821D02*
X004714Y002821D01*
X006027Y002821D02*
X006541Y002307D01*
X007994Y002661D02*
X007994Y004341D01*
X008478Y004897D02*
X008714Y004661D01*
X009963Y004661D01*
X010025Y004599D01*
X010164Y004738D02*
X009681Y005221D01*
X009514Y005221D01*
X008990Y005441D02*
X008478Y005921D01*
X008334Y005921D01*
X008154Y006101D01*
X007087Y006101D01*
X006541Y005555D01*
X007230Y005004D02*
X007407Y005181D01*
X007230Y005004D02*
X007230Y004261D01*
X007230Y003681D02*
X007194Y003621D01*
X007194Y003221D01*
X004718Y004181D02*
X003458Y004181D01*
X003458Y004496D02*
X004718Y004496D01*
X004718Y004681D01*
X004234Y004901D02*
X004114Y004941D01*
X008478Y004961D02*
X008478Y004897D01*
X008478Y004961D02*
X008478Y005441D01*
D26*
X009287Y005413D02*
X009470Y005413D01*
X009312Y005572D02*
X009287Y005572D01*
X009287Y005596D02*
X009888Y004995D01*
X009846Y004953D01*
X009822Y004911D01*
X009818Y004897D01*
X009783Y004861D01*
X009307Y004861D01*
X009307Y004961D01*
X008990Y004961D01*
X008990Y004962D01*
X009307Y004962D01*
X009307Y005162D01*
X009295Y005208D01*
X009287Y005221D01*
X009287Y005596D01*
X009747Y005730D02*
X010082Y005730D01*
X010240Y005572D02*
X009906Y005572D01*
X010064Y005413D02*
X010335Y005413D01*
X010367Y005445D02*
X009751Y006061D01*
X009416Y006061D01*
X010200Y005278D01*
X010272Y005351D01*
X010367Y005445D01*
X009629Y005255D02*
X009287Y005255D01*
X009307Y005096D02*
X009787Y005096D01*
X009837Y004938D02*
X009307Y004938D01*
X008631Y004461D02*
X008514Y004579D01*
X008468Y004624D01*
X008274Y004624D01*
X008184Y004714D01*
X008108Y004639D01*
X008174Y004612D01*
X008264Y004522D01*
X008313Y004405D01*
X008313Y004278D01*
X008264Y004161D01*
X008194Y004090D01*
X008194Y002913D01*
X008264Y002842D01*
X008272Y002823D01*
X009296Y003847D01*
X009296Y003847D01*
X009413Y003964D01*
X009928Y003964D01*
X010062Y004098D01*
X010195Y004098D01*
X010334Y003959D01*
X010473Y003820D01*
X010613Y003681D01*
X010777Y003516D01*
X010777Y003516D01*
X010864Y003429D01*
X010840Y003487D01*
X010793Y003534D01*
X010063Y004264D01*
X010062Y004264D01*
X009866Y004461D01*
X008631Y004461D01*
X008630Y004462D02*
X008289Y004462D01*
X008313Y004304D02*
X010023Y004304D01*
X010182Y004145D02*
X008248Y004145D01*
X008194Y003986D02*
X009951Y003986D01*
X010307Y003986D02*
X010340Y003986D01*
X010465Y003828D02*
X010499Y003828D01*
X010624Y003669D02*
X010658Y003669D01*
X010782Y003511D02*
X010816Y003511D01*
X011554Y002739D02*
X011675Y002860D01*
X011675Y002758D01*
X011723Y002641D01*
X011813Y002551D01*
X011930Y002502D01*
X012057Y002502D01*
X012174Y002551D01*
X012264Y002641D01*
X012313Y002758D01*
X012313Y002885D01*
X012264Y003002D01*
X012241Y003026D01*
X012354Y003139D01*
X012354Y003299D01*
X012594Y003539D01*
X012594Y003704D01*
X012594Y004410D01*
X012613Y004391D01*
X012730Y004342D01*
X012857Y004342D01*
X012974Y004391D01*
X013064Y004481D01*
X013113Y004598D01*
X013113Y004725D01*
X013064Y004842D01*
X012994Y004913D01*
X012994Y004984D01*
X012914Y005064D01*
X012914Y005103D01*
X012917Y005100D01*
X013056Y004960D01*
X013196Y004821D01*
X013335Y004682D01*
X013474Y004543D01*
X013613Y004404D01*
X013752Y004264D01*
X013885Y004264D01*
X014257Y004636D01*
X014257Y004651D01*
X014409Y004803D01*
X014443Y004721D01*
X014504Y004660D01*
X014504Y004103D01*
X014443Y004042D01*
X014395Y003925D01*
X014395Y003885D01*
X014354Y003885D01*
X014226Y003757D01*
X013885Y004098D01*
X013752Y004098D01*
X013625Y003971D01*
X013610Y003967D01*
X013569Y003943D01*
X013517Y003891D01*
X013588Y003820D01*
X013588Y003820D01*
X013588Y003820D01*
X013517Y003891D01*
X013465Y003839D01*
X013441Y003798D01*
X013437Y003783D01*
X013309Y003656D01*
X013170Y003516D01*
X013031Y003377D01*
X012892Y003238D01*
X012753Y003099D01*
X012614Y002960D01*
X012474Y002820D01*
X012335Y002681D01*
X012196Y002542D01*
X012057Y002403D01*
X012057Y002270D01*
X012429Y001898D01*
X012443Y001898D01*
X012760Y001581D01*
X012717Y001581D01*
X012551Y001581D01*
X012391Y001421D01*
X011837Y001421D01*
X011671Y001421D01*
X011327Y001078D01*
X011274Y001131D01*
X011079Y001211D01*
X010868Y001211D01*
X010782Y001176D01*
X011504Y001898D01*
X011519Y001898D01*
X011891Y002270D01*
X011891Y002403D01*
X011726Y002567D01*
X011587Y002706D01*
X011554Y002739D01*
X011575Y002718D02*
X011691Y002718D01*
X011734Y002560D02*
X011804Y002560D01*
X011891Y002401D02*
X012057Y002401D01*
X012183Y002560D02*
X012214Y002560D01*
X012296Y002718D02*
X012372Y002718D01*
X012313Y002877D02*
X012531Y002877D01*
X012689Y003035D02*
X012250Y003035D01*
X012354Y003194D02*
X012848Y003194D01*
X013006Y003352D02*
X012407Y003352D01*
X012566Y003511D02*
X013165Y003511D01*
X013323Y003669D02*
X012594Y003669D01*
X012594Y003828D02*
X013458Y003828D01*
X013580Y003828D02*
X013580Y003828D01*
X013640Y003986D02*
X012594Y003986D01*
X012594Y004145D02*
X014504Y004145D01*
X014504Y004304D02*
X013924Y004304D01*
X013713Y004304D02*
X012594Y004304D01*
X013046Y004462D02*
X013555Y004462D01*
X013396Y004621D02*
X013113Y004621D01*
X013090Y004779D02*
X013238Y004779D01*
X013079Y004938D02*
X012994Y004938D01*
X012920Y005096D02*
X012914Y005096D01*
X014241Y004621D02*
X014504Y004621D01*
X014504Y004462D02*
X014082Y004462D01*
X014385Y004779D02*
X014419Y004779D01*
X014924Y004660D02*
X014984Y004721D01*
X015033Y004838D01*
X015033Y004965D01*
X014984Y005082D01*
X014894Y005172D01*
X014812Y005206D01*
X015692Y006086D01*
X015637Y005953D01*
X015637Y005130D01*
X015709Y004954D01*
X015764Y004900D01*
X015690Y004900D01*
X015573Y004852D01*
X015483Y004762D01*
X015435Y004645D01*
X015435Y004518D01*
X015483Y004401D01*
X015573Y004311D01*
X015690Y004262D01*
X015817Y004262D01*
X015934Y004311D01*
X016005Y004381D01*
X016237Y004381D01*
X016354Y004499D01*
X017116Y005261D01*
X017117Y005261D02*
X017144Y005289D01*
X017144Y003704D01*
X017139Y003702D01*
X017074Y003636D01*
X017008Y003702D01*
X016869Y003759D01*
X016718Y003759D01*
X016714Y003758D01*
X016604Y003868D01*
X016481Y003991D01*
X015995Y003991D01*
X015934Y004052D01*
X015817Y004100D01*
X015690Y004100D01*
X015573Y004052D01*
X015483Y003962D01*
X015435Y003845D01*
X015435Y003718D01*
X015483Y003601D01*
X015573Y003511D01*
X015669Y003471D01*
X015637Y003393D01*
X015637Y002570D01*
X015709Y002394D01*
X015723Y002381D01*
X015277Y002381D01*
X014861Y002797D01*
X014979Y002916D01*
X015121Y003058D01*
X015145Y003099D01*
X015157Y003145D01*
X015157Y003192D01*
X015145Y003238D01*
X015121Y003279D01*
X015007Y003393D01*
X014893Y003507D01*
X014852Y003531D01*
X014806Y003543D01*
X014779Y003543D01*
X014894Y003591D01*
X014984Y003681D01*
X015033Y003798D01*
X015033Y003925D01*
X014984Y004042D01*
X014924Y004103D01*
X014924Y004660D01*
X014924Y004621D02*
X015435Y004621D01*
X015458Y004462D02*
X014924Y004462D01*
X014924Y004304D02*
X015591Y004304D01*
X015917Y004304D02*
X017144Y004304D01*
X017144Y004145D02*
X014924Y004145D01*
X015007Y003986D02*
X015508Y003986D01*
X015435Y003828D02*
X015033Y003828D01*
X014973Y003669D02*
X015455Y003669D01*
X015573Y003511D02*
X014887Y003511D01*
X015007Y003393D02*
X014755Y003141D01*
X014755Y003141D01*
X015007Y003393D01*
X014966Y003352D02*
X014967Y003352D01*
X015048Y003352D02*
X015637Y003352D01*
X015637Y003194D02*
X015157Y003194D01*
X015099Y003035D02*
X015637Y003035D01*
X015637Y002877D02*
X014940Y002877D01*
X014979Y002916D02*
X014755Y003140D01*
X014979Y002916D01*
X014860Y003035D02*
X014860Y003035D01*
X014755Y003140D02*
X014755Y003140D01*
X014808Y003194D02*
X014808Y003194D01*
X014940Y002718D02*
X015637Y002718D01*
X015641Y002560D02*
X015098Y002560D01*
X015257Y002401D02*
X015707Y002401D01*
X016190Y002188D02*
X016209Y002188D01*
X016384Y002260D01*
X016518Y002394D01*
X016591Y002570D01*
X016591Y003056D01*
X016718Y003003D01*
X016869Y003003D01*
X017008Y003061D01*
X017074Y003127D01*
X017139Y003061D01*
X017278Y003003D01*
X017429Y003003D01*
X017568Y003061D01*
X017637Y003130D01*
X017637Y002570D01*
X017709Y002394D01*
X017844Y002260D01*
X018019Y002188D01*
X018209Y002188D01*
X018274Y002215D01*
X018274Y001713D01*
X018203Y001642D01*
X018155Y001525D01*
X018155Y001421D01*
X018151Y001421D01*
X017517Y001421D01*
X017357Y001581D01*
X017191Y001581D01*
X016797Y001581D01*
X016190Y002188D01*
X016294Y002084D02*
X018274Y002084D01*
X018274Y001925D02*
X016453Y001925D01*
X016611Y001767D02*
X018274Y001767D01*
X018189Y001608D02*
X016770Y001608D01*
X016041Y001291D02*
X015901Y001291D01*
X015890Y001273D02*
X015914Y001314D01*
X015926Y001360D01*
X015926Y001406D01*
X016150Y001182D01*
X016079Y001211D01*
X015868Y001211D01*
X015673Y001131D01*
X015620Y001078D01*
X015494Y001204D01*
X015589Y001204D01*
X015770Y001204D01*
X015816Y001216D01*
X015857Y001240D01*
X015890Y001273D01*
X015678Y001133D02*
X015565Y001133D01*
X015589Y001204D02*
X015589Y001541D01*
X015589Y001204D01*
X015589Y001291D02*
X015589Y001291D01*
X015589Y001450D02*
X015589Y001450D01*
X015589Y001541D02*
X015589Y001541D01*
X016341Y002242D02*
X017887Y002242D01*
X017707Y002401D02*
X016521Y002401D01*
X016586Y002560D02*
X017641Y002560D01*
X017637Y002718D02*
X016591Y002718D01*
X016591Y002877D02*
X017637Y002877D01*
X017637Y003035D02*
X017506Y003035D01*
X017201Y003035D02*
X016946Y003035D01*
X016641Y003035D02*
X016591Y003035D01*
X017568Y003702D02*
X017674Y003596D01*
X017697Y003539D01*
X017709Y003568D01*
X017844Y003702D01*
X018019Y003775D01*
X018117Y003775D01*
X018114Y003779D01*
X018114Y004499D01*
X018071Y004541D01*
X017954Y004659D01*
X017954Y004775D01*
X017844Y004820D01*
X017709Y004954D01*
X017637Y005130D01*
X017637Y005791D01*
X017624Y005761D01*
X017564Y005700D01*
X017564Y003704D01*
X017568Y003702D01*
X017600Y003669D02*
X017810Y003669D01*
X017564Y003828D02*
X018114Y003828D01*
X018114Y003986D02*
X017564Y003986D01*
X017564Y004145D02*
X018114Y004145D01*
X018114Y004304D02*
X017564Y004304D01*
X017564Y004462D02*
X018114Y004462D01*
X017992Y004621D02*
X017564Y004621D01*
X017564Y004779D02*
X017943Y004779D01*
X017726Y004938D02*
X017564Y004938D01*
X017564Y005096D02*
X017651Y005096D01*
X017637Y005255D02*
X017564Y005255D01*
X017564Y005413D02*
X017637Y005413D01*
X017637Y005572D02*
X017564Y005572D01*
X017594Y005730D02*
X017637Y005730D01*
X016834Y005730D02*
X016591Y005730D01*
X016591Y005572D02*
X016834Y005572D01*
X016834Y005544D02*
X016591Y005301D01*
X016591Y005953D01*
X016518Y006128D01*
X016384Y006262D01*
X016209Y006335D01*
X016019Y006335D01*
X015886Y006280D01*
X015988Y006381D01*
X016975Y006381D01*
X016852Y006218D01*
X016844Y006146D01*
X016834Y006136D01*
X016834Y006065D01*
X016825Y005995D01*
X016834Y005984D01*
X016834Y005544D01*
X016703Y005413D02*
X016591Y005413D01*
X017110Y005255D02*
X017144Y005255D01*
X017117Y005261D02*
X017116Y005261D01*
X017144Y005096D02*
X016951Y005096D01*
X016793Y004938D02*
X017144Y004938D01*
X017144Y004779D02*
X016634Y004779D01*
X016476Y004621D02*
X017144Y004621D01*
X017144Y004462D02*
X016317Y004462D01*
X016354Y004499D02*
X016354Y004499D01*
X015726Y004938D02*
X015033Y004938D01*
X015008Y004779D02*
X015500Y004779D01*
X015651Y005096D02*
X014970Y005096D01*
X014861Y005255D02*
X015637Y005255D01*
X015637Y005413D02*
X015020Y005413D01*
X015178Y005572D02*
X015637Y005572D01*
X015637Y005730D02*
X015337Y005730D01*
X015495Y005889D02*
X015637Y005889D01*
X015654Y006048D02*
X015676Y006048D01*
X015971Y006365D02*
X016962Y006365D01*
X016852Y006218D02*
X016852Y006218D01*
X016851Y006206D02*
X016440Y006206D01*
X016551Y006048D02*
X016832Y006048D01*
X016834Y005889D02*
X016591Y005889D01*
X017756Y006541D02*
X017917Y006701D01*
X018231Y006701D01*
X018397Y006701D01*
X018557Y006861D01*
X018563Y006861D01*
X018563Y006660D01*
X018940Y006660D01*
X018940Y006623D01*
X018563Y006623D01*
X018563Y006455D01*
X018477Y006541D01*
X017756Y006541D01*
X017897Y006682D02*
X018563Y006682D01*
X018563Y006523D02*
X018495Y006523D01*
X018535Y006840D02*
X018563Y006840D01*
X018941Y006840D02*
X018977Y006840D01*
X018977Y006861D02*
X018977Y006660D01*
X018941Y006660D01*
X018941Y006861D01*
X018977Y006861D01*
X018977Y006682D02*
X018941Y006682D01*
X019628Y006641D02*
X019648Y006622D01*
X019648Y005961D01*
X019648Y005355D01*
X019668Y005335D01*
X019985Y005413D02*
X020294Y005413D01*
X020294Y005572D02*
X019985Y005572D01*
X019985Y005579D02*
X019935Y005629D01*
X019965Y005659D01*
X019965Y006264D01*
X019928Y006301D01*
X020005Y006378D01*
X020005Y006905D01*
X019911Y006998D01*
X019653Y006998D01*
X019727Y007071D01*
X020294Y007071D01*
X020294Y001111D01*
X020274Y001131D01*
X020079Y001211D01*
X019868Y001211D01*
X019673Y001131D01*
X019524Y000982D01*
X019474Y000859D01*
X019423Y000982D01*
X019274Y001131D01*
X019079Y001211D01*
X018868Y001211D01*
X018673Y001131D01*
X018640Y001098D01*
X018578Y001159D01*
X018654Y001191D01*
X018744Y001281D01*
X018793Y001398D01*
X018793Y001525D01*
X018768Y001585D01*
X018939Y001585D01*
X018939Y002001D01*
X018940Y002001D01*
X018940Y002002D01*
X019277Y002002D01*
X019277Y002261D01*
X019265Y002307D01*
X019245Y002341D01*
X019257Y002387D01*
X019257Y002587D01*
X018920Y002587D01*
X018920Y002588D01*
X019257Y002588D01*
X019257Y002701D01*
X019350Y002608D01*
X019350Y002344D01*
X019361Y002334D01*
X019331Y002304D01*
X019331Y001699D01*
X019424Y001605D01*
X019872Y001605D01*
X019965Y001699D01*
X019965Y002304D01*
X019955Y002314D01*
X019985Y002344D01*
X019985Y002831D01*
X019891Y002925D01*
X019627Y002925D01*
X019475Y003077D01*
X019517Y003077D01*
X019611Y003171D01*
X019611Y003658D01*
X019574Y003695D01*
X019574Y003787D01*
X019594Y003807D01*
X019652Y003946D01*
X019652Y004097D01*
X019594Y004236D01*
X019588Y004242D01*
X019611Y004265D01*
X019611Y004752D01*
X019517Y004845D01*
X019261Y004845D01*
X019429Y005013D01*
X019444Y004998D01*
X019891Y004998D01*
X019985Y005092D01*
X019985Y005579D01*
X019965Y005730D02*
X020294Y005730D01*
X020294Y005889D02*
X019965Y005889D01*
X019965Y006048D02*
X020294Y006048D01*
X020294Y006206D02*
X019965Y006206D01*
X019991Y006365D02*
X020294Y006365D01*
X020294Y006523D02*
X020005Y006523D01*
X020005Y006682D02*
X020294Y006682D01*
X020294Y006840D02*
X020005Y006840D01*
X020294Y006999D02*
X019654Y006999D01*
X018939Y005961D02*
X018939Y005355D01*
X018920Y005335D01*
X019353Y004938D02*
X020294Y004938D01*
X020294Y004779D02*
X019584Y004779D01*
X019611Y004621D02*
X020294Y004621D01*
X020294Y004462D02*
X019611Y004462D01*
X019611Y004304D02*
X020294Y004304D01*
X020294Y004145D02*
X019632Y004145D01*
X019652Y003986D02*
X020294Y003986D01*
X020294Y003828D02*
X019603Y003828D01*
X019600Y003669D02*
X020294Y003669D01*
X020294Y003511D02*
X019611Y003511D01*
X019611Y003352D02*
X020294Y003352D01*
X020294Y003194D02*
X019611Y003194D01*
X019517Y003035D02*
X020294Y003035D01*
X020294Y002877D02*
X019940Y002877D01*
X019985Y002718D02*
X020294Y002718D01*
X020294Y002560D02*
X019985Y002560D01*
X019985Y002401D02*
X020294Y002401D01*
X020294Y002242D02*
X019965Y002242D01*
X019965Y002084D02*
X020294Y002084D01*
X020294Y001925D02*
X019965Y001925D01*
X019668Y002021D02*
X019668Y002588D01*
X019350Y002560D02*
X019257Y002560D01*
X019257Y002401D02*
X019350Y002401D01*
X019331Y002242D02*
X019277Y002242D01*
X019277Y002084D02*
X019331Y002084D01*
X019277Y002001D02*
X018940Y002001D01*
X018940Y001585D01*
X019121Y001585D01*
X019166Y001597D01*
X019207Y001621D01*
X019241Y001655D01*
X019265Y001696D01*
X019277Y001741D01*
X019277Y002001D01*
X019277Y001925D02*
X019331Y001925D01*
X018940Y001925D02*
X018939Y001925D01*
X018939Y002001D02*
X018920Y002021D01*
X018920Y002588D01*
X019648Y002001D02*
X019668Y002021D01*
X019965Y001767D02*
X020294Y001767D01*
X020294Y001608D02*
X019875Y001608D01*
X020294Y001450D02*
X018793Y001450D01*
X018749Y001291D02*
X020294Y001291D01*
X020294Y001133D02*
X020269Y001133D01*
X019678Y001133D02*
X019269Y001133D01*
X019426Y000974D02*
X019521Y000974D01*
X018678Y001133D02*
X018605Y001133D01*
X018155Y001450D02*
X017488Y001450D01*
X018939Y001608D02*
X018940Y001608D01*
X019185Y001608D02*
X019421Y001608D01*
X019331Y001767D02*
X019277Y001767D01*
X018940Y001767D02*
X018939Y001767D01*
X017107Y003669D02*
X017040Y003669D01*
X017144Y003828D02*
X016644Y003828D01*
X016486Y003986D02*
X017144Y003986D01*
X019274Y004021D02*
X019294Y004021D01*
X019985Y005096D02*
X020294Y005096D01*
X020294Y005255D02*
X019985Y005255D01*
X014763Y007115D02*
X014174Y006525D01*
X014174Y007111D01*
X014274Y007152D01*
X014423Y007301D01*
X014474Y007424D01*
X014524Y007301D01*
X014673Y007152D01*
X014763Y007115D01*
X014668Y007157D02*
X014279Y007157D01*
X014429Y007316D02*
X014518Y007316D01*
X014647Y006999D02*
X014174Y006999D01*
X014174Y006840D02*
X014489Y006840D01*
X014330Y006682D02*
X014174Y006682D01*
X012994Y006579D02*
X012994Y006459D01*
X012795Y006260D01*
X012745Y006309D01*
X012704Y006333D01*
X012689Y006337D01*
X012674Y006352D01*
X012675Y006355D01*
X012687Y006401D01*
X012687Y006601D01*
X012370Y006601D01*
X012370Y006602D01*
X012687Y006602D01*
X012687Y006701D01*
X012871Y006701D01*
X012994Y006579D01*
X012994Y006523D02*
X012687Y006523D01*
X012687Y006682D02*
X012891Y006682D01*
X012900Y006365D02*
X012678Y006365D01*
X011560Y006423D02*
X011519Y006465D01*
X011504Y006465D01*
X010898Y007071D01*
X011079Y007071D01*
X011179Y007113D01*
X011474Y006819D01*
X011560Y006732D01*
X011560Y006423D01*
X011560Y006523D02*
X011446Y006523D01*
X011560Y006682D02*
X011287Y006682D01*
X011129Y006840D02*
X011452Y006840D01*
X011293Y006999D02*
X010970Y006999D01*
X009765Y006048D02*
X009430Y006048D01*
X009589Y005889D02*
X009923Y005889D01*
X008472Y004621D02*
X008153Y004621D01*
X007030Y004621D02*
X006996Y004621D01*
X006996Y004587D02*
X006996Y004789D01*
X006559Y004789D01*
X006559Y004826D01*
X006522Y004826D01*
X006522Y005184D01*
X006313Y005184D01*
X006313Y005199D01*
X006882Y005199D01*
X006971Y005287D01*
X006971Y005096D01*
X006971Y005096D01*
X006960Y005115D01*
X006927Y005148D01*
X006886Y005172D01*
X006840Y005184D01*
X006559Y005184D01*
X006559Y004826D01*
X006996Y004826D01*
X006996Y004893D01*
X007030Y004860D01*
X007030Y004599D01*
X007026Y004599D01*
X006990Y004563D01*
X006996Y004587D01*
X006996Y004779D02*
X007030Y004779D01*
X006559Y004938D02*
X006522Y004938D01*
X006522Y005096D02*
X006559Y005096D01*
X006939Y005255D02*
X006971Y005255D01*
X006105Y005441D02*
X006057Y005460D01*
X005930Y005460D01*
X005813Y005412D01*
X005723Y005322D01*
X005675Y005205D01*
X005675Y005078D01*
X005715Y004980D01*
X005610Y004980D01*
X005527Y004946D01*
X005527Y005425D01*
X005434Y005519D01*
X005026Y005519D01*
X004988Y005481D01*
X004966Y005503D01*
X004925Y005526D01*
X004879Y005539D01*
X004732Y005539D01*
X004825Y005632D01*
X004825Y006091D01*
X004731Y006185D01*
X004351Y006185D01*
X004257Y006091D01*
X004257Y006068D01*
X004143Y006021D01*
X004143Y006021D01*
X004110Y005988D01*
X004110Y006413D01*
X004016Y006507D01*
X002900Y006507D01*
X002806Y006413D01*
X002806Y005493D01*
X002900Y005399D01*
X003914Y005399D01*
X003914Y005116D01*
X003913Y005116D01*
X003894Y005070D01*
X002900Y005070D01*
X002831Y005001D01*
X002831Y005119D01*
X002776Y005250D01*
X002676Y005350D01*
X002545Y005405D01*
X002403Y005405D01*
X002271Y005350D01*
X002171Y005250D01*
X002117Y005119D01*
X002117Y004976D01*
X002171Y004845D01*
X002271Y004745D01*
X002403Y004690D01*
X002545Y004690D01*
X002676Y004745D01*
X002776Y004845D01*
X002806Y004916D01*
X002806Y004661D01*
X002806Y004332D01*
X002806Y004031D01*
X002806Y003733D01*
X002798Y003719D01*
X002786Y003674D01*
X002786Y003552D01*
X003458Y003552D01*
X004130Y003552D01*
X004130Y003674D01*
X004118Y003719D01*
X004110Y003733D01*
X004110Y003981D01*
X004420Y003981D01*
X004420Y003941D01*
X004412Y003928D01*
X004400Y003882D01*
X004400Y003682D01*
X004717Y003682D01*
X004717Y003681D01*
X004400Y003681D01*
X004400Y003481D01*
X004412Y003435D01*
X004420Y003421D01*
X004420Y002938D01*
X004514Y002844D01*
X004514Y002739D01*
X004631Y002621D01*
X004797Y002621D01*
X005944Y002621D01*
X006105Y002460D01*
X006105Y002141D01*
X004317Y002141D01*
X004151Y002141D01*
X004110Y002101D01*
X004110Y002870D01*
X004016Y002963D01*
X002900Y002963D01*
X002806Y002870D01*
X002806Y001950D01*
X002900Y001856D01*
X003866Y001856D01*
X003179Y001170D01*
X003079Y001211D01*
X002868Y001211D01*
X002673Y001131D01*
X002524Y000982D01*
X002474Y000859D01*
X002423Y000982D01*
X002274Y001131D01*
X002194Y001164D01*
X002194Y001290D01*
X002264Y001361D01*
X002313Y001478D01*
X002313Y001605D01*
X002264Y001722D01*
X002174Y001812D01*
X002057Y001860D01*
X001930Y001860D01*
X001813Y001812D01*
X001723Y001722D01*
X001675Y001605D01*
X001675Y001478D01*
X001723Y001361D01*
X001794Y001290D01*
X001794Y001181D01*
X001673Y001131D01*
X001524Y000982D01*
X001504Y000932D01*
X001504Y001118D01*
X001410Y001211D01*
X001306Y001211D01*
X001357Y001261D01*
X001474Y001379D01*
X001474Y001450D01*
X001686Y001450D01*
X001544Y001521D02*
X001593Y001638D01*
X001593Y001765D01*
X001555Y001856D01*
X001851Y001856D01*
X001945Y001950D01*
X001945Y002870D01*
X001851Y002963D01*
X000734Y002963D01*
X000654Y002883D01*
X000654Y005480D01*
X000734Y005399D01*
X001851Y005399D01*
X001945Y005493D01*
X001945Y006413D01*
X001851Y006507D01*
X000734Y006507D01*
X000654Y006426D01*
X000654Y007172D01*
X000673Y007152D01*
X000868Y007071D01*
X001079Y007071D01*
X001274Y007152D01*
X001423Y007301D01*
X001462Y007396D01*
X001464Y007390D01*
X001503Y007313D01*
X001554Y007243D01*
X001615Y007182D01*
X001685Y007131D01*
X001763Y007092D01*
X001845Y007065D01*
X001930Y007051D01*
X001954Y007051D01*
X001954Y007581D01*
X001994Y007581D01*
X001994Y007051D01*
X002017Y007051D01*
X002102Y007065D01*
X002185Y007092D01*
X002262Y007131D01*
X002332Y007182D01*
X002393Y007243D01*
X002444Y007313D01*
X002483Y007390D01*
X002485Y007396D01*
X002524Y007301D01*
X002673Y007152D01*
X002868Y007071D01*
X003079Y007071D01*
X003274Y007152D01*
X003423Y007301D01*
X003474Y007424D01*
X003524Y007301D01*
X003673Y007152D01*
X003868Y007071D01*
X004079Y007071D01*
X004208Y007125D01*
X004631Y006701D01*
X004797Y006701D01*
X005267Y006701D01*
X005216Y006577D01*
X005216Y006434D01*
X005214Y006433D01*
X005214Y006250D01*
X005214Y006142D01*
X005162Y006091D01*
X005162Y005632D01*
X005256Y005538D01*
X005637Y005538D01*
X005730Y005632D01*
X005730Y006091D01*
X005690Y006132D01*
X005808Y006181D01*
X005914Y006287D01*
X005972Y006426D01*
X005972Y006481D01*
X006391Y006061D01*
X006557Y006061D01*
X006764Y006061D01*
X006615Y005912D01*
X006199Y005912D01*
X006105Y005819D01*
X006105Y005441D01*
X006105Y005572D02*
X005671Y005572D01*
X005527Y005413D02*
X005817Y005413D01*
X005695Y005255D02*
X005527Y005255D01*
X005527Y005096D02*
X005675Y005096D01*
X005222Y005572D02*
X004765Y005572D01*
X004442Y005861D02*
X004410Y005859D01*
X004378Y005854D01*
X004347Y005845D01*
X004317Y005832D01*
X004289Y005817D01*
X004262Y005798D01*
X004238Y005777D01*
X004217Y005753D01*
X004198Y005726D01*
X004183Y005698D01*
X004170Y005668D01*
X004161Y005637D01*
X004156Y005605D01*
X004154Y005573D01*
X004154Y004981D01*
X004114Y004941D01*
X003994Y004821D01*
X003468Y004821D01*
X003458Y004811D01*
X003905Y005096D02*
X002831Y005096D01*
X002771Y005255D02*
X003914Y005255D01*
X004825Y005730D02*
X005162Y005730D01*
X005162Y005889D02*
X004825Y005889D01*
X004825Y006048D02*
X005162Y006048D01*
X005214Y006206D02*
X004110Y006206D01*
X004110Y006048D02*
X004207Y006048D01*
X004442Y005861D02*
X004541Y005861D01*
X004110Y006365D02*
X005214Y006365D01*
X005216Y006523D02*
X000654Y006523D01*
X000654Y006682D02*
X005259Y006682D01*
X005946Y006365D02*
X006088Y006365D01*
X006246Y006206D02*
X005833Y006206D01*
X005730Y006048D02*
X006750Y006048D01*
X006175Y005889D02*
X005730Y005889D01*
X005730Y005730D02*
X006105Y005730D01*
X004492Y006840D02*
X000654Y006840D01*
X000654Y006999D02*
X004333Y006999D01*
X003668Y007157D02*
X003279Y007157D01*
X003429Y007316D02*
X003518Y007316D01*
X002668Y007157D02*
X002298Y007157D01*
X002445Y007316D02*
X002518Y007316D01*
X001994Y007316D02*
X001954Y007316D01*
X001954Y007157D02*
X001994Y007157D01*
X001649Y007157D02*
X001279Y007157D01*
X001429Y007316D02*
X001502Y007316D01*
X001954Y007474D02*
X001994Y007474D01*
X000668Y007157D02*
X000654Y007157D01*
X001945Y006365D02*
X002806Y006365D01*
X002806Y006206D02*
X001945Y006206D01*
X001945Y006048D02*
X002806Y006048D01*
X002806Y005889D02*
X001945Y005889D01*
X001945Y005730D02*
X002806Y005730D01*
X002806Y005572D02*
X001945Y005572D01*
X001865Y005413D02*
X002886Y005413D01*
X002176Y005255D02*
X000654Y005255D01*
X000654Y005413D02*
X000720Y005413D01*
X000654Y005096D02*
X002117Y005096D01*
X002133Y004938D02*
X000654Y004938D01*
X000654Y004779D02*
X002237Y004779D01*
X002710Y004779D02*
X002806Y004779D01*
X002806Y004621D02*
X000654Y004621D01*
X000654Y004462D02*
X002806Y004462D01*
X002806Y004304D02*
X000654Y004304D01*
X000654Y004145D02*
X002806Y004145D01*
X002806Y003986D02*
X000654Y003986D01*
X000654Y003828D02*
X002806Y003828D01*
X002786Y003669D02*
X002552Y003669D01*
X002545Y003672D02*
X002403Y003672D01*
X002271Y003618D01*
X002171Y003518D01*
X002117Y003386D01*
X002117Y003244D01*
X002171Y003113D01*
X002271Y003012D01*
X002403Y002958D01*
X002545Y002958D01*
X002676Y003012D01*
X002776Y003113D01*
X002831Y003244D01*
X002831Y003334D01*
X002855Y003309D01*
X002896Y003285D01*
X002942Y003273D01*
X003458Y003273D01*
X003974Y003273D01*
X004020Y003285D01*
X004061Y003309D01*
X004094Y003343D01*
X004118Y003384D01*
X004130Y003429D01*
X004130Y003551D01*
X003458Y003551D01*
X003458Y003273D01*
X003458Y003551D01*
X003458Y003551D01*
X003458Y003552D01*
X003458Y003551D01*
X002786Y003551D01*
X002786Y003495D01*
X002776Y003518D01*
X002676Y003618D01*
X002545Y003672D01*
X002395Y003669D02*
X000654Y003669D01*
X000654Y003511D02*
X002168Y003511D01*
X002117Y003352D02*
X000654Y003352D01*
X000654Y003194D02*
X002137Y003194D01*
X002249Y003035D02*
X000654Y003035D01*
X001938Y002877D02*
X002813Y002877D01*
X002806Y002718D02*
X001945Y002718D01*
X001945Y002560D02*
X002806Y002560D01*
X002806Y002401D02*
X001945Y002401D01*
X001945Y002242D02*
X002806Y002242D01*
X002806Y002084D02*
X001945Y002084D01*
X001920Y001925D02*
X002830Y001925D01*
X002219Y001767D02*
X003776Y001767D01*
X003618Y001608D02*
X002311Y001608D01*
X002301Y001450D02*
X003459Y001450D01*
X003301Y001291D02*
X002195Y001291D01*
X002269Y001133D02*
X002678Y001133D01*
X002521Y000974D02*
X002426Y000974D01*
X001678Y001133D02*
X001489Y001133D01*
X001504Y000974D02*
X001521Y000974D01*
X001386Y001291D02*
X001793Y001291D01*
X001544Y001521D02*
X001474Y001450D01*
X001580Y001608D02*
X001676Y001608D01*
X001592Y001767D02*
X001768Y001767D01*
X004110Y002242D02*
X006105Y002242D01*
X006105Y002401D02*
X004110Y002401D01*
X004110Y002560D02*
X006006Y002560D01*
X006105Y003021D02*
X005527Y003021D01*
X005527Y003425D01*
X005521Y003431D01*
X005527Y003438D01*
X005527Y003925D01*
X005521Y003931D01*
X005527Y003938D01*
X005527Y003981D01*
X005757Y003981D01*
X005874Y004099D01*
X006194Y004419D01*
X006194Y004444D01*
X006196Y004443D01*
X006241Y004431D01*
X006400Y004431D01*
X006400Y004262D01*
X006717Y004262D01*
X006717Y004261D01*
X006400Y004261D01*
X006400Y004061D01*
X006412Y004015D01*
X006436Y003974D01*
X006452Y003957D01*
X006420Y003925D01*
X006420Y003438D01*
X006446Y003412D01*
X006199Y003412D01*
X006105Y003319D01*
X006105Y003021D01*
X006105Y003035D02*
X005527Y003035D01*
X005527Y003194D02*
X006105Y003194D01*
X006139Y003352D02*
X005527Y003352D01*
X005527Y003511D02*
X006420Y003511D01*
X006420Y003669D02*
X005527Y003669D01*
X005527Y003828D02*
X006420Y003828D01*
X006429Y003986D02*
X005762Y003986D01*
X005920Y004145D02*
X006400Y004145D01*
X006400Y004304D02*
X006079Y004304D01*
X004400Y003828D02*
X004110Y003828D01*
X004130Y003669D02*
X004400Y003669D01*
X004400Y003511D02*
X004130Y003511D01*
X004100Y003352D02*
X004420Y003352D01*
X004420Y003194D02*
X002810Y003194D01*
X002699Y003035D02*
X004420Y003035D01*
X004481Y002877D02*
X004103Y002877D01*
X004110Y002718D02*
X004534Y002718D01*
X003458Y003352D02*
X003458Y003352D01*
X003458Y003511D02*
X003458Y003511D01*
X002786Y003511D02*
X002779Y003511D01*
X008194Y003511D02*
X008960Y003511D01*
X008802Y003352D02*
X008194Y003352D01*
X008194Y003194D02*
X008643Y003194D01*
X008485Y003035D02*
X008194Y003035D01*
X008230Y002877D02*
X008326Y002877D01*
X008194Y003669D02*
X009119Y003669D01*
X009277Y003828D02*
X008194Y003828D01*
X011863Y002242D02*
X012084Y002242D01*
X012243Y002084D02*
X011704Y002084D01*
X011546Y001925D02*
X012402Y001925D01*
X012574Y001767D02*
X011373Y001767D01*
X011215Y001608D02*
X012733Y001608D01*
X012419Y001450D02*
X011056Y001450D01*
X010897Y001291D02*
X011541Y001291D01*
X011382Y001133D02*
X011269Y001133D01*
X014155Y003828D02*
X014297Y003828D01*
X014420Y003986D02*
X013997Y003986D01*
D27*
X014394Y003541D02*
X014634Y003781D01*
X014714Y003781D01*
X014714Y003861D01*
X014714Y004901D01*
X015754Y003781D02*
X016394Y003781D01*
X016794Y003381D01*
X017354Y003381D02*
X017354Y005941D01*
X018714Y006661D02*
X018959Y006661D01*
X018959Y006641D01*
X018794Y003781D02*
X018794Y003221D01*
X019034Y002981D01*
X019274Y002981D01*
X019667Y002588D01*
X019668Y002588D01*
X019594Y002661D01*
X014393Y003502D02*
X014394Y003541D01*
X011194Y003621D02*
X011003Y003621D01*
X010025Y004599D01*
X010303Y004877D02*
X009259Y005921D01*
X008990Y005921D01*
X007994Y005781D02*
X007994Y005221D01*
X008474Y005221D01*
X008478Y004961D01*
X007994Y004821D02*
X007674Y004501D01*
X007674Y002741D01*
X007594Y002661D01*
X007434Y002661D01*
X007407Y002681D01*
X007994Y004821D02*
X007994Y005221D01*
X004954Y005181D02*
X004954Y006501D01*
X004954Y005181D02*
X004718Y005181D01*
X011858Y006237D02*
X011858Y006601D01*
X011858Y006237D02*
X011994Y006101D01*
X012363Y006101D01*
X012391Y006130D01*
X011994Y005733D01*
X011994Y005541D01*
D28*
X011754Y005141D03*
X012314Y004981D03*
X012794Y004661D03*
X013194Y004501D03*
X011914Y004341D03*
X011434Y004021D03*
X012474Y003301D03*
X011994Y002821D03*
X010154Y002661D03*
X009754Y002821D03*
X008474Y003381D03*
X008474Y003701D03*
X007994Y004341D03*
X009514Y005221D03*
X009914Y005701D03*
X007994Y005781D03*
X005994Y005141D03*
X005674Y004661D03*
X005994Y003701D03*
X007994Y002661D03*
X009034Y001541D03*
X004794Y002261D03*
X004474Y002261D03*
X003434Y002421D03*
X001994Y001541D03*
X001274Y001701D03*
X001354Y002421D03*
X001354Y003461D03*
X001354Y005061D03*
X001354Y005941D03*
X003434Y005941D03*
X004394Y006501D03*
X002474Y007141D03*
X003434Y005221D03*
X011194Y006901D03*
X012874Y006501D03*
X014394Y006981D03*
X017354Y005941D03*
X016714Y005621D03*
X017034Y005061D03*
X017594Y004581D03*
X018794Y004261D03*
X018794Y003781D03*
X017434Y002741D03*
X016634Y002021D03*
X017834Y001541D03*
X018474Y001461D03*
X019114Y001461D03*
X019754Y001461D03*
X015594Y001221D03*
X015434Y002981D03*
X015434Y003301D03*
X015754Y003781D03*
X014714Y003861D03*
X015754Y004581D03*
X015354Y004981D03*
X015354Y005301D03*
X014714Y004901D03*
X018714Y006661D03*
D29*
X019274Y004021D03*
X017354Y003381D03*
X016794Y003381D03*
X011994Y005541D03*
X011194Y003621D03*
X007194Y003221D03*
X004234Y004901D03*
X005594Y006501D03*
D30*
X004954Y006501D03*
D31*
X019294Y004508D02*
X019294Y004021D01*
X019294Y003414D01*
D32*
X005594Y006501D02*
X005434Y006341D01*
X005434Y005861D01*
X005446Y005861D01*
M02*
