G75*
G70*
%OFA0B0*%
%FSLAX24Y24*%
%IPPOS*%
%LPD*%
%AMOC8*
5,1,8,0,0,1.08239X$1,22.5*
%
%ADD10R,0.0356X0.0434*%
%ADD11C,0.0434*%
%ADD12R,0.0820X0.0820*%
%ADD13C,0.0820*%
%ADD14R,0.0407X0.0328*%
%ADD15R,0.0710X0.0631*%
%ADD16R,0.0828X0.0513*%
%ADD17C,0.0714*%
D10*
G36*
X010609Y005835D02*
X010861Y006087D01*
X011167Y005781D01*
X010915Y005529D01*
X010609Y005835D01*
G37*
G36*
X010971Y006197D02*
X011223Y006449D01*
X011529Y006143D01*
X011277Y005891D01*
X010971Y006197D01*
G37*
G36*
X013929Y004063D02*
X013677Y003811D01*
X013371Y004117D01*
X013623Y004369D01*
X013929Y004063D01*
G37*
G36*
X013567Y003701D02*
X013315Y003449D01*
X013009Y003755D01*
X013261Y004007D01*
X013567Y003701D01*
G37*
G36*
X015437Y005287D02*
X015689Y005035D01*
X015383Y004729D01*
X015131Y004981D01*
X015437Y005287D01*
G37*
G36*
X015075Y005649D02*
X015327Y005397D01*
X015021Y005091D01*
X014769Y005343D01*
X015075Y005649D01*
G37*
X018773Y006129D03*
X019285Y006129D03*
X019285Y006849D03*
X018773Y006849D03*
X018773Y008649D03*
X019285Y008649D03*
X014045Y008729D03*
X013533Y008729D03*
X018773Y004229D03*
X019285Y004229D03*
D11*
X004389Y005523D03*
X004389Y007255D03*
D12*
X002889Y002889D03*
X021889Y009809D03*
D13*
X020889Y009809D03*
X019889Y009809D03*
X018889Y009809D03*
X017889Y009809D03*
X016889Y009809D03*
X015889Y009809D03*
X014889Y009809D03*
X013889Y009809D03*
X012889Y009809D03*
X011889Y009809D03*
X010889Y009809D03*
X009889Y009809D03*
X008889Y009809D03*
X007889Y009809D03*
X006889Y009809D03*
X005889Y009809D03*
X004889Y009809D03*
X003889Y009809D03*
X002889Y009809D03*
X003889Y002889D03*
X004889Y002889D03*
X005889Y002889D03*
X006889Y002889D03*
X007889Y002889D03*
X008889Y002889D03*
X009889Y002889D03*
X010889Y002889D03*
X011889Y002889D03*
X012889Y002889D03*
X013889Y002889D03*
X014889Y002889D03*
X015889Y002889D03*
X016889Y002889D03*
X017889Y002889D03*
X018889Y002889D03*
X019889Y002889D03*
X020889Y002889D03*
X021889Y002889D03*
D14*
X021549Y003976D03*
X021549Y004881D03*
D15*
X021509Y006957D03*
X021509Y008060D03*
D16*
G36*
X012673Y004947D02*
X013257Y004363D01*
X012895Y004001D01*
X012311Y004585D01*
X012673Y004947D01*
G37*
G36*
X011643Y005977D02*
X012227Y005393D01*
X011865Y005031D01*
X011281Y005615D01*
X011643Y005977D01*
G37*
G36*
X011003Y005337D02*
X011587Y004753D01*
X011225Y004391D01*
X010641Y004975D01*
X011003Y005337D01*
G37*
G36*
X012033Y004306D02*
X012617Y003722D01*
X012255Y003360D01*
X011671Y003944D01*
X012033Y004306D01*
G37*
D17*
X018029Y004872D02*
X018029Y005506D01*
X020029Y005506D02*
X020029Y004872D01*
X020029Y007432D02*
X020029Y008066D01*
X018029Y008066D02*
X018029Y007432D01*
M02*
