G75*
G70*
%OFA0B0*%
%FSLAX24Y24*%
%IPPOS*%
%LPD*%
%AMOC8*
5,1,8,0,0,1.08239X$1,22.5*
%
%ADD10C,0.0434*%
%ADD11R,0.0356X0.0434*%
%ADD12R,0.0820X0.0820*%
%ADD13C,0.0820*%
%ADD14R,0.0407X0.0328*%
%ADD15R,0.0710X0.0631*%
%ADD16R,0.0828X0.0513*%
%ADD17C,0.0714*%
D10*
X002474Y003315D03*
X002474Y005048D03*
D11*
G36*
X008694Y003627D02*
X008946Y003879D01*
X009252Y003573D01*
X009000Y003321D01*
X008694Y003627D01*
G37*
G36*
X009056Y003989D02*
X009308Y004241D01*
X009614Y003935D01*
X009362Y003683D01*
X009056Y003989D01*
G37*
G36*
X012014Y001855D02*
X011762Y001603D01*
X011456Y001909D01*
X011708Y002161D01*
X012014Y001855D01*
G37*
G36*
X011652Y001493D02*
X011400Y001241D01*
X011094Y001547D01*
X011346Y001799D01*
X011652Y001493D01*
G37*
X016858Y002021D03*
X017370Y002021D03*
X017370Y003921D03*
X016858Y003921D03*
X016858Y004641D03*
X017370Y004641D03*
X017370Y006441D03*
X016858Y006441D03*
D12*
X000974Y000681D03*
X019974Y007601D03*
D13*
X018974Y007601D03*
X017974Y007601D03*
X016974Y007601D03*
X015974Y007601D03*
X014974Y007601D03*
X013974Y007601D03*
X012974Y007601D03*
X011974Y007601D03*
X010974Y007601D03*
X009974Y007601D03*
X008974Y007601D03*
X007974Y007601D03*
X006974Y007601D03*
X005974Y007601D03*
X004974Y007601D03*
X003974Y007601D03*
X002974Y007601D03*
X001974Y007601D03*
X000974Y007601D03*
X001974Y000681D03*
X002974Y000681D03*
X003974Y000681D03*
X004974Y000681D03*
X005974Y000681D03*
X006974Y000681D03*
X007974Y000681D03*
X008974Y000681D03*
X009974Y000681D03*
X010974Y000681D03*
X011974Y000681D03*
X012974Y000681D03*
X013974Y000681D03*
X014974Y000681D03*
X015974Y000681D03*
X016974Y000681D03*
X017974Y000681D03*
X018974Y000681D03*
X019974Y000681D03*
D14*
X019634Y001769D03*
X019634Y002674D03*
D15*
X019594Y004750D03*
X019594Y005853D03*
D16*
G36*
X010758Y002740D02*
X011342Y002156D01*
X010980Y001794D01*
X010396Y002378D01*
X010758Y002740D01*
G37*
G36*
X009728Y003770D02*
X010312Y003186D01*
X009950Y002824D01*
X009366Y003408D01*
X009728Y003770D01*
G37*
G36*
X009088Y003129D02*
X009672Y002545D01*
X009310Y002183D01*
X008726Y002767D01*
X009088Y003129D01*
G37*
G36*
X010118Y002099D02*
X010702Y001515D01*
X010340Y001153D01*
X009756Y001737D01*
X010118Y002099D01*
G37*
D17*
X016114Y002665D02*
X016114Y003298D01*
X018114Y003298D02*
X018114Y002665D01*
X018114Y005225D02*
X018114Y005858D01*
X016114Y005858D02*
X016114Y005225D01*
M02*
