%
M48
M72
T01C0.0118
T02C0.0197
T03C0.0354
T04C0.0394
T05C0.0400
%
T01
X3909Y3749
X3189Y3909
X3269Y4629
X3269Y5669
X3269Y6149
X3269Y6789
X3269Y7269
X3269Y8149
X5349Y8149
X5349Y7429
X6149Y7109
X7589Y6869
X7909Y7349
X9909Y7989
X11429Y7429
X11829Y7909
X13189Y7349
X13669Y7349
X14229Y7189
X14709Y6869
X15109Y6709
X13829Y6549
X13349Y6229
X14629Y5749
X14389Y5349
X13909Y5029
X14069Y4229
X14229Y3669
X15669Y4869
X17349Y5189
X17349Y5509
X17669Y5989
X16629Y6069
X17669Y6789
X17269Y7189
X17269Y7509
X16629Y7109
X18629Y7829
X19269Y8149
X20629Y8869
X18949Y7269
X19509Y6789
X20709Y6469
X20709Y5989
X22069Y5989
X22069Y6309
X22069Y5189
X22069Y4869
X21029Y3669
X21429Y3509
X20389Y3669
X19749Y3749
X18549Y4229
X19349Y4949
X17509Y3429
X12069Y4869
X11669Y5029
X10389Y5589
X10389Y5909
X9909Y6549
X11749Y6229
X9909Y4869
X9109Y5429
X7909Y5589
X7589Y5589
X7589Y5909
X7909Y5909
X5349Y4629
X6389Y4469
X6709Y4469
X7429Y4469
X7749Y4469
X11109Y4069
X14285Y8729
X14789Y8709
X16309Y9189
X13109Y9109
X6309Y8709
X4389Y9349
T02
X6869Y8709
X7509Y8709
X13109Y5829
X13909Y7749
X18709Y5589
X19269Y5589
X21189Y6229
T03
X4389Y5523
X4389Y7255
T04
X18029Y7749
X20029Y7749
X20029Y5189
X18029Y5189
T05
X2889Y2889
X3889Y2889
X4889Y2889
X5889Y2889
X6889Y2889
X7889Y2889
X8889Y2889
X9889Y2889
X10889Y2889
X11889Y2889
X12889Y2889
X13889Y2889
X14889Y2889
X15889Y2889
X16889Y2889
X17889Y2889
X18889Y2889
X19889Y2889
X20889Y2889
X21889Y2889
X21889Y9809
X20889Y9809
X19889Y9809
X18889Y9809
X17889Y9809
X16889Y9809
X15889Y9809
X14889Y9809
X13889Y9809
X12889Y9809
X11889Y9809
X10889Y9809
X9889Y9809
X8889Y9809
X7889Y9809
X6889Y9809
X5889Y9809
X4889Y9809
X3889Y9809
X2889Y9809
M30
