G75*
G70*
%OFA0B0*%
%FSLAX24Y24*%
%IPPOS*%
%LPD*%
%AMOC8*
5,1,8,0,0,1.08239X$1,22.5*
%
%ADD10R,0.0276X0.0354*%
%ADD11R,0.0740X0.0740*%
%ADD12C,0.0740*%
%ADD13R,0.0327X0.0248*%
%ADD14R,0.0630X0.0551*%
%ADD15R,0.0748X0.0433*%
%ADD16C,0.0634*%
%ADD17C,0.0318*%
%ADD18C,0.0397*%
%ADD19C,0.0100*%
%ADD20C,0.0080*%
%ADD21C,0.0160*%
%ADD22C,0.0240*%
%ADD23C,0.0120*%
D10*
G36*
X010666Y005835D02*
X010861Y006030D01*
X011110Y005781D01*
X010915Y005586D01*
X010666Y005835D01*
G37*
G36*
X011028Y006197D02*
X011223Y006392D01*
X011472Y006143D01*
X011277Y005948D01*
X011028Y006197D01*
G37*
G36*
X013872Y004063D02*
X013677Y003868D01*
X013428Y004117D01*
X013623Y004312D01*
X013872Y004063D01*
G37*
G36*
X013510Y003701D02*
X013315Y003506D01*
X013066Y003755D01*
X013261Y003950D01*
X013510Y003701D01*
G37*
G36*
X015437Y005230D02*
X015632Y005035D01*
X015383Y004786D01*
X015188Y004981D01*
X015437Y005230D01*
G37*
G36*
X015075Y005592D02*
X015270Y005397D01*
X015021Y005148D01*
X014826Y005343D01*
X015075Y005592D01*
G37*
X018773Y006129D03*
X019285Y006129D03*
X019285Y006849D03*
X018773Y006849D03*
X018773Y008649D03*
X019285Y008649D03*
X014045Y008729D03*
X013533Y008729D03*
X018773Y004229D03*
X019285Y004229D03*
D11*
X002889Y002889D03*
X021889Y009809D03*
D12*
X020889Y009809D03*
X019889Y009809D03*
X018889Y009809D03*
X017889Y009809D03*
X016889Y009809D03*
X015889Y009809D03*
X014889Y009809D03*
X013889Y009809D03*
X012889Y009809D03*
X011889Y009809D03*
X010889Y009809D03*
X009889Y009809D03*
X008889Y009809D03*
X007889Y009809D03*
X006889Y009809D03*
X005889Y009809D03*
X004889Y009809D03*
X003889Y009809D03*
X002889Y009809D03*
X003889Y002889D03*
X004889Y002889D03*
X005889Y002889D03*
X006889Y002889D03*
X007889Y002889D03*
X008889Y002889D03*
X009889Y002889D03*
X010889Y002889D03*
X011889Y002889D03*
X012889Y002889D03*
X013889Y002889D03*
X014889Y002889D03*
X015889Y002889D03*
X016889Y002889D03*
X017889Y002889D03*
X018889Y002889D03*
X019889Y002889D03*
X020889Y002889D03*
X021889Y002889D03*
D13*
X021549Y003976D03*
X021549Y004881D03*
D14*
X021509Y006957D03*
X021509Y008060D03*
D15*
G36*
X012673Y004891D02*
X013201Y004363D01*
X012895Y004057D01*
X012367Y004585D01*
X012673Y004891D01*
G37*
G36*
X011643Y005921D02*
X012171Y005393D01*
X011865Y005087D01*
X011337Y005615D01*
X011643Y005921D01*
G37*
G36*
X011003Y005281D02*
X011531Y004753D01*
X011225Y004447D01*
X010697Y004975D01*
X011003Y005281D01*
G37*
G36*
X012033Y004250D02*
X012561Y003722D01*
X012255Y003416D01*
X011727Y003944D01*
X012033Y004250D01*
G37*
D16*
X018029Y004872D02*
X018029Y005506D01*
X020029Y005506D02*
X020029Y004872D01*
X020029Y007432D02*
X020029Y008066D01*
X018029Y008066D02*
X018029Y007432D01*
D17*
X018629Y007829D03*
X019269Y008149D03*
X020629Y008869D03*
X018949Y007269D03*
X019509Y006789D03*
X020709Y006469D03*
X020709Y005989D03*
X022069Y005989D03*
X022069Y006309D03*
X022069Y005189D03*
X022069Y004869D03*
X021029Y003669D03*
X021429Y003509D03*
X020389Y003669D03*
X019749Y003749D03*
X018549Y004229D03*
X019349Y004949D03*
X017669Y005989D03*
X017349Y005509D03*
X017349Y005189D03*
X016629Y006069D03*
X017669Y006789D03*
X017269Y007189D03*
X017269Y007509D03*
X016629Y007109D03*
X015109Y006709D03*
X014709Y006869D03*
X014229Y007189D03*
X013669Y007349D03*
X013189Y007349D03*
X013829Y006549D03*
X013349Y006229D03*
X014629Y005749D03*
X014389Y005349D03*
X013909Y005029D03*
X014069Y004229D03*
X014229Y003669D03*
X015669Y004869D03*
X017509Y003429D03*
X012069Y004869D03*
X011669Y005029D03*
X010389Y005589D03*
X010389Y005909D03*
X009909Y006549D03*
X011429Y007429D03*
X011829Y007909D03*
X009909Y007989D03*
X007909Y007349D03*
X007589Y006869D03*
X006149Y007109D03*
X005349Y007429D03*
X005349Y008149D03*
X006309Y008709D03*
X004389Y009349D03*
X003269Y008149D03*
X003269Y007269D03*
X003269Y006789D03*
X003269Y006149D03*
X003269Y005669D03*
X003269Y004629D03*
X003189Y003909D03*
X003909Y003749D03*
X005349Y004629D03*
X006389Y004469D03*
X006709Y004469D03*
X007429Y004469D03*
X007749Y004469D03*
X009109Y005429D03*
X009909Y004869D03*
X011109Y004069D03*
X007909Y005589D03*
X007589Y005589D03*
X007589Y005909D03*
X007909Y005909D03*
X011749Y006229D03*
X014285Y008729D03*
X014789Y008709D03*
X016309Y009189D03*
X013109Y009109D03*
D18*
X013909Y007749D03*
X013109Y005829D03*
X018709Y005589D03*
X019269Y005589D03*
X021189Y006229D03*
X007509Y008709D03*
X006869Y008709D03*
D19*
X007589Y007989D02*
X007669Y008069D01*
X009829Y008069D01*
X009909Y007989D01*
X007589Y007989D02*
X006149Y007989D01*
X005189Y008949D01*
X003429Y008949D01*
X002889Y009489D01*
X002889Y009809D01*
X013109Y005829D02*
X013829Y006069D01*
X016629Y006069D01*
X017589Y006069D01*
X017669Y005989D01*
X018709Y005589D02*
X019269Y005589D01*
X019349Y005589D01*
X019749Y005989D01*
X019589Y006149D01*
X019349Y006149D01*
X019285Y006129D01*
X019749Y005989D02*
X020709Y005989D01*
X016629Y007109D02*
X015989Y007749D01*
X013909Y007749D01*
X018789Y008549D02*
X018789Y008629D01*
X018773Y008649D01*
X018789Y008549D02*
X019189Y008149D01*
X019269Y008149D01*
X020629Y008869D02*
X020943Y008869D01*
X020990Y008867D01*
X021036Y008861D01*
X021082Y008852D01*
X021127Y008838D01*
X021170Y008821D01*
X021212Y008801D01*
X021253Y008777D01*
X021291Y008750D01*
X021326Y008719D01*
X021359Y008686D01*
X021390Y008651D01*
X021417Y008613D01*
X021441Y008572D01*
X021461Y008530D01*
X021478Y008487D01*
X021492Y008442D01*
X021501Y008396D01*
X021507Y008350D01*
X021509Y008303D01*
X021509Y008060D01*
D20*
X020029Y007749D02*
X020029Y008649D01*
X019285Y008649D01*
X018029Y007749D02*
X018029Y007181D01*
X018028Y007181D02*
X018030Y007146D01*
X018035Y007112D01*
X018044Y007078D01*
X018057Y007046D01*
X018073Y007014D01*
X018092Y006985D01*
X018114Y006958D01*
X018138Y006934D01*
X018165Y006912D01*
X018195Y006893D01*
X018226Y006877D01*
X018258Y006864D01*
X018292Y006855D01*
X018326Y006850D01*
X018361Y006848D01*
X018361Y006849D02*
X018773Y006849D01*
X019189Y006849D02*
X019189Y007189D01*
X018949Y007189D01*
X018949Y007269D01*
X019189Y006849D02*
X019285Y006849D01*
X019509Y006849D01*
X019509Y006789D01*
X018773Y006129D02*
X018385Y006129D01*
X018350Y006127D01*
X018316Y006122D01*
X018282Y006114D01*
X018249Y006102D01*
X018217Y006087D01*
X018187Y006069D01*
X018159Y006048D01*
X018133Y006025D01*
X018110Y005999D01*
X018089Y005971D01*
X018071Y005941D01*
X018056Y005909D01*
X018044Y005876D01*
X018036Y005842D01*
X018031Y005808D01*
X018029Y005773D01*
X018029Y005189D01*
X018549Y004709D02*
X018229Y004389D01*
X014549Y004389D01*
X013909Y005029D01*
X014389Y005349D02*
X014410Y005370D01*
X015048Y005370D01*
X015410Y005008D02*
X015629Y004789D01*
X015669Y004869D01*
X013989Y003909D02*
X018907Y003909D01*
X019138Y003719D02*
X019429Y003429D01*
X020107Y003429D01*
X020178Y003458D02*
X020389Y003669D01*
X020178Y003458D02*
X020166Y003448D01*
X020152Y003440D01*
X020138Y003434D01*
X020123Y003430D01*
X020107Y003429D01*
X019138Y003720D02*
X019118Y003753D01*
X019095Y003783D01*
X019070Y003812D01*
X019041Y003838D01*
X019011Y003860D01*
X018978Y003880D01*
X018943Y003896D01*
X018907Y003909D01*
X019269Y004229D02*
X019285Y004229D01*
X020029Y004229D01*
X020029Y005189D01*
X019016Y004709D02*
X018549Y004709D01*
X019016Y004709D02*
X019046Y004707D01*
X019077Y004702D01*
X019106Y004693D01*
X019134Y004680D01*
X019160Y004664D01*
X019184Y004645D01*
X019205Y004624D01*
X019224Y004600D01*
X019240Y004574D01*
X019253Y004546D01*
X019262Y004517D01*
X019267Y004486D01*
X019269Y004456D01*
X019269Y004229D01*
X016229Y006469D02*
X015989Y006229D01*
X013349Y006229D01*
X013829Y006549D02*
X013909Y006469D01*
X013989Y006549D01*
X014789Y006549D01*
X014949Y006389D01*
X015829Y006389D01*
X016229Y006789D01*
X017669Y006789D01*
X016229Y006469D02*
X020709Y006469D01*
X014709Y006869D02*
X013349Y006869D01*
X013189Y006709D01*
X010149Y006709D01*
X009989Y006869D01*
X007589Y006869D01*
X007989Y006549D02*
X006709Y006549D01*
X006149Y007109D01*
X007909Y007349D02*
X008229Y007029D01*
X010069Y007029D01*
X010229Y006869D01*
X013109Y006869D01*
X013269Y007029D01*
X014069Y007029D01*
X014229Y007189D01*
X013669Y007349D02*
X012709Y008309D01*
X007589Y008309D01*
X007509Y008229D01*
X006229Y008229D01*
X004889Y009569D01*
X004889Y009809D01*
X007989Y006549D02*
X009109Y005429D01*
X009909Y004869D02*
X008949Y003909D01*
X004229Y003909D01*
X004069Y004069D01*
X003349Y004069D01*
X003189Y003909D01*
X003909Y003749D02*
X010789Y003749D01*
X011109Y004069D01*
X010709Y003589D02*
X009269Y003589D01*
X009189Y003509D01*
X009189Y002869D01*
X008949Y002869D01*
X008889Y002889D01*
X010709Y003589D02*
X010869Y003429D01*
X012069Y003429D01*
X012309Y003189D01*
X012469Y003189D01*
X012709Y003429D01*
X013109Y003429D01*
X013189Y003349D01*
X013349Y003349D01*
X013989Y003909D01*
X013288Y003728D02*
X012249Y003728D01*
X012144Y003833D01*
X012144Y003753D01*
X011989Y004069D01*
X012069Y004149D01*
X012069Y004869D01*
X011669Y005029D02*
X011589Y005109D01*
X011589Y005349D01*
X011664Y005424D01*
X011834Y005424D01*
X011754Y005504D01*
X011674Y005745D01*
X011250Y006170D01*
X009909Y006549D02*
X013829Y006549D01*
X014045Y008729D02*
X014285Y008729D01*
D21*
X014604Y008730D02*
X017459Y008730D01*
X017498Y008769D02*
X017369Y008640D01*
X017098Y008369D01*
X013680Y008369D01*
X013677Y008371D01*
X013694Y008371D01*
X013740Y008384D01*
X013781Y008407D01*
X013803Y008429D01*
X013840Y008391D01*
X014249Y008391D01*
X014267Y008410D01*
X014348Y008410D01*
X014465Y008458D01*
X014555Y008548D01*
X014604Y008665D01*
X014604Y008792D01*
X014555Y008909D01*
X014465Y008999D01*
X014348Y009048D01*
X014267Y009048D01*
X014249Y009066D01*
X013840Y009066D01*
X013803Y009028D01*
X013781Y009050D01*
X013740Y009074D01*
X013694Y009086D01*
X013533Y009086D01*
X013533Y008729D01*
X013533Y008729D01*
X013533Y009086D01*
X013371Y009086D01*
X013325Y009074D01*
X013284Y009050D01*
X013251Y009016D01*
X013227Y008975D01*
X013215Y008930D01*
X013215Y008833D01*
X013120Y008929D01*
X007796Y008929D01*
X007712Y009012D01*
X007580Y009067D01*
X007437Y009067D01*
X007306Y009012D01*
X007205Y008912D01*
X007150Y008780D01*
X007150Y008637D01*
X007205Y008506D01*
X007282Y008429D01*
X006311Y008429D01*
X005285Y009455D01*
X005338Y009508D01*
X005389Y009631D01*
X005439Y009508D01*
X005588Y009359D01*
X005783Y009279D01*
X005994Y009279D01*
X006189Y009359D01*
X006338Y009508D01*
X006389Y009631D01*
X006439Y009508D01*
X006588Y009359D01*
X006783Y009279D01*
X006994Y009279D01*
X007189Y009359D01*
X007338Y009508D01*
X007389Y009631D01*
X007439Y009508D01*
X007588Y009359D01*
X007783Y009279D01*
X007994Y009279D01*
X008189Y009359D01*
X008338Y009508D01*
X008389Y009631D01*
X008439Y009508D01*
X008588Y009359D01*
X008783Y009279D01*
X008994Y009279D01*
X009189Y009359D01*
X009338Y009508D01*
X009389Y009631D01*
X009439Y009508D01*
X009588Y009359D01*
X009783Y009279D01*
X009994Y009279D01*
X010189Y009359D01*
X010338Y009508D01*
X010389Y009631D01*
X010439Y009508D01*
X010588Y009359D01*
X010783Y009279D01*
X010994Y009279D01*
X011189Y009359D01*
X011338Y009508D01*
X011389Y009631D01*
X011439Y009508D01*
X011588Y009359D01*
X011783Y009279D01*
X011994Y009279D01*
X012189Y009359D01*
X012338Y009508D01*
X012389Y009631D01*
X012439Y009508D01*
X012588Y009359D01*
X012783Y009279D01*
X012994Y009279D01*
X013189Y009359D01*
X013338Y009508D01*
X013389Y009631D01*
X013439Y009508D01*
X013588Y009359D01*
X013783Y009279D01*
X013994Y009279D01*
X014189Y009359D01*
X014338Y009508D01*
X014389Y009631D01*
X014439Y009508D01*
X014588Y009359D01*
X014783Y009279D01*
X014994Y009279D01*
X015189Y009359D01*
X015338Y009508D01*
X015389Y009631D01*
X015439Y009508D01*
X015588Y009359D01*
X015783Y009279D01*
X015994Y009279D01*
X016189Y009359D01*
X016338Y009508D01*
X016389Y009631D01*
X016439Y009508D01*
X016588Y009359D01*
X016783Y009279D01*
X016994Y009279D01*
X017189Y009359D01*
X017338Y009508D01*
X017389Y009631D01*
X017439Y009508D01*
X017588Y009359D01*
X017783Y009279D01*
X017994Y009279D01*
X018189Y009359D01*
X018338Y009508D01*
X018389Y009631D01*
X018439Y009508D01*
X018588Y009359D01*
X018783Y009279D01*
X018994Y009279D01*
X019189Y009359D01*
X019338Y009508D01*
X019389Y009631D01*
X019439Y009508D01*
X019588Y009359D01*
X019783Y009279D01*
X019994Y009279D01*
X020189Y009359D01*
X020338Y009508D01*
X020389Y009631D01*
X020439Y009508D01*
X020588Y009359D01*
X020783Y009279D01*
X020994Y009279D01*
X021189Y009359D01*
X021338Y009508D01*
X021359Y009559D01*
X021359Y009372D01*
X021452Y009279D01*
X022209Y009279D01*
X022209Y003318D01*
X022189Y003338D01*
X022169Y003346D01*
X022169Y003692D01*
X022126Y003794D01*
X022047Y003873D01*
X021872Y004048D01*
X021872Y004166D01*
X021778Y004260D01*
X021319Y004260D01*
X021225Y004166D01*
X021225Y003786D01*
X021319Y003692D01*
X021437Y003692D01*
X021609Y003520D01*
X021609Y003346D01*
X021588Y003338D01*
X021439Y003189D01*
X021389Y003066D01*
X021338Y003189D01*
X021189Y003338D01*
X020994Y003419D01*
X020783Y003419D01*
X020588Y003338D01*
X020439Y003189D01*
X020389Y003066D01*
X020338Y003189D01*
X020265Y003262D01*
X020352Y003350D01*
X020452Y003350D01*
X020569Y003398D01*
X020659Y003488D01*
X020708Y003605D01*
X020708Y003732D01*
X020659Y003849D01*
X020569Y003939D01*
X020452Y003988D01*
X020325Y003988D01*
X020208Y003939D01*
X020118Y003849D01*
X020070Y003732D01*
X020070Y003632D01*
X020066Y003629D01*
X020024Y003629D01*
X019511Y003629D01*
X019300Y003840D01*
X019273Y003891D01*
X019489Y003891D01*
X019582Y003985D01*
X019582Y004029D01*
X019946Y004029D01*
X020111Y004029D01*
X020229Y004146D01*
X020229Y004439D01*
X020299Y004468D01*
X020433Y004602D01*
X020505Y004777D01*
X020505Y005600D01*
X020433Y005776D01*
X020430Y005779D01*
X020467Y005779D01*
X020528Y005718D01*
X020457Y005718D01*
X020528Y005718D02*
X020645Y005670D01*
X020772Y005670D01*
X020889Y005718D01*
X021269Y005718D01*
X021260Y005870D02*
X021269Y005874D01*
X021269Y005115D01*
X021225Y005072D01*
X021225Y004691D01*
X021319Y004597D01*
X021778Y004597D01*
X021872Y004691D01*
X021872Y005072D01*
X021829Y005115D01*
X021829Y006173D01*
X021829Y006522D01*
X021890Y006522D01*
X021984Y006616D01*
X021984Y007299D01*
X021890Y007393D01*
X021127Y007393D01*
X021034Y007299D01*
X021034Y007169D01*
X020436Y007169D01*
X020505Y007337D01*
X020505Y008160D01*
X020433Y008336D01*
X020299Y008470D01*
X020229Y008499D01*
X020229Y008731D01*
X020111Y008849D01*
X019946Y008849D01*
X019582Y008849D01*
X019582Y008892D01*
X019489Y008986D01*
X019080Y008986D01*
X019029Y008934D01*
X018977Y008986D01*
X018569Y008986D01*
X018475Y008892D01*
X018475Y008693D01*
X018400Y008769D01*
X018218Y008769D01*
X017498Y008769D01*
X017301Y008572D02*
X014565Y008572D01*
X014357Y008413D02*
X017142Y008413D01*
X017409Y008058D02*
X017580Y008229D01*
X017552Y008160D01*
X017552Y007337D01*
X017624Y007162D01*
X017678Y007108D01*
X017605Y007108D01*
X017488Y007059D01*
X017417Y006989D01*
X016924Y006989D01*
X016948Y007045D01*
X016948Y007172D01*
X016899Y007289D01*
X016809Y007379D01*
X016692Y007428D01*
X016607Y007428D01*
X016199Y007836D01*
X016106Y007929D01*
X017280Y007929D01*
X017409Y008058D01*
X017447Y008096D02*
X017552Y008096D01*
X017552Y007938D02*
X017289Y007938D01*
X017552Y007779D02*
X016255Y007779D01*
X016414Y007621D02*
X017552Y007621D01*
X017552Y007462D02*
X016572Y007462D01*
X016137Y007304D02*
X014526Y007304D01*
X014548Y007252D02*
X014499Y007369D01*
X014409Y007459D01*
X014292Y007508D01*
X014174Y007508D01*
X014206Y007539D01*
X015902Y007539D01*
X016310Y007131D01*
X016310Y007045D01*
X016333Y006989D01*
X016146Y006989D01*
X016029Y006871D01*
X015746Y006589D01*
X015031Y006589D01*
X014956Y006664D01*
X014979Y006688D01*
X015028Y006805D01*
X015028Y006932D01*
X014979Y007049D01*
X014889Y007139D01*
X014772Y007188D01*
X014645Y007188D01*
X014548Y007147D01*
X014548Y007252D01*
X014402Y007462D02*
X015978Y007462D01*
X016295Y007145D02*
X014875Y007145D01*
X015005Y006986D02*
X016144Y006986D01*
X015985Y006828D02*
X015028Y006828D01*
X014961Y006669D02*
X015826Y006669D01*
X016948Y007145D02*
X017641Y007145D01*
X017566Y007304D02*
X016885Y007304D01*
X018326Y007055D02*
X018433Y007162D01*
X018505Y007337D01*
X018505Y008041D01*
X018538Y008009D01*
X018618Y008009D01*
X019289Y007338D01*
X019289Y007206D01*
X019285Y007206D01*
X019285Y006849D01*
X019602Y006849D01*
X019602Y006864D01*
X019738Y006729D01*
X019920Y006729D01*
X020518Y006729D01*
X020457Y006669D01*
X019602Y006669D01*
X020458Y006669D01*
X019638Y006828D02*
X019602Y006828D01*
X019602Y006848D02*
X019285Y006848D01*
X019285Y006849D01*
X019284Y006849D01*
X019071Y006849D01*
X019071Y006848D01*
X019284Y006848D01*
X019284Y006849D01*
X019284Y007206D01*
X019123Y007206D01*
X019077Y007194D01*
X019036Y007170D01*
X019014Y007148D01*
X018977Y007186D01*
X018569Y007186D01*
X018475Y007092D01*
X018475Y007049D01*
X018444Y007049D01*
X018361Y007049D01*
X018336Y007051D01*
X018326Y007055D01*
X018416Y007145D02*
X018528Y007145D01*
X018492Y007304D02*
X019289Y007304D01*
X019164Y007462D02*
X018505Y007462D01*
X018505Y007621D02*
X019006Y007621D01*
X018847Y007779D02*
X018505Y007779D01*
X018505Y007938D02*
X018689Y007938D01*
X018475Y008730D02*
X018438Y008730D01*
X018475Y008889D02*
X014564Y008889D01*
X014349Y009047D02*
X022209Y009047D01*
X022209Y008889D02*
X019582Y008889D01*
X020229Y008730D02*
X022209Y008730D01*
X022209Y008572D02*
X020229Y008572D01*
X020355Y008413D02*
X021031Y008413D01*
X021026Y008405D02*
X021014Y008359D01*
X021014Y008118D01*
X021451Y008118D01*
X021451Y008515D01*
X021170Y008515D01*
X021124Y008503D01*
X021083Y008479D01*
X021050Y008446D01*
X021026Y008405D01*
X021014Y008255D02*
X020466Y008255D01*
X020505Y008096D02*
X021451Y008096D01*
X021451Y008118D02*
X021451Y008002D01*
X021566Y008002D01*
X021566Y007604D01*
X021847Y007604D01*
X021893Y007617D01*
X021934Y007640D01*
X021968Y007674D01*
X021991Y007715D01*
X022004Y007761D01*
X022004Y008002D01*
X021567Y008002D01*
X021567Y008118D01*
X022004Y008118D01*
X022004Y008359D01*
X021991Y008405D01*
X021968Y008446D01*
X021934Y008479D01*
X021893Y008503D01*
X021847Y008515D01*
X021566Y008515D01*
X021566Y008118D01*
X021451Y008118D01*
X021451Y008002D02*
X021014Y008002D01*
X021014Y007761D01*
X021026Y007715D01*
X021050Y007674D01*
X021083Y007640D01*
X021124Y007617D01*
X021170Y007604D01*
X021451Y007604D01*
X021451Y008002D01*
X021451Y007938D02*
X021566Y007938D01*
X021567Y008096D02*
X022209Y008096D01*
X022209Y007938D02*
X022004Y007938D01*
X022004Y007779D02*
X022209Y007779D01*
X022209Y007621D02*
X021900Y007621D01*
X021566Y007621D02*
X021451Y007621D01*
X021451Y007779D02*
X021566Y007779D01*
X021117Y007621D02*
X020505Y007621D01*
X020505Y007779D02*
X021014Y007779D01*
X021014Y007938D02*
X020505Y007938D01*
X020505Y007462D02*
X022209Y007462D01*
X022209Y007304D02*
X021979Y007304D01*
X021984Y007145D02*
X022209Y007145D01*
X022209Y006986D02*
X021984Y006986D01*
X021984Y006828D02*
X022209Y006828D01*
X022209Y006669D02*
X021984Y006669D01*
X021829Y006511D02*
X022209Y006511D01*
X022209Y006352D02*
X021829Y006352D01*
X021829Y006194D02*
X022209Y006194D01*
X022209Y006035D02*
X021829Y006035D01*
X021829Y005877D02*
X022209Y005877D01*
X022209Y005718D02*
X021829Y005718D01*
X021829Y005560D02*
X022209Y005560D01*
X022209Y005401D02*
X021829Y005401D01*
X021829Y005242D02*
X022209Y005242D01*
X022209Y005084D02*
X021860Y005084D01*
X021872Y004925D02*
X022209Y004925D01*
X022209Y004767D02*
X021872Y004767D01*
X021789Y004608D02*
X022209Y004608D01*
X022209Y004450D02*
X020256Y004450D01*
X020229Y004291D02*
X022209Y004291D01*
X022209Y004133D02*
X021872Y004133D01*
X021946Y003974D02*
X022209Y003974D01*
X022209Y003816D02*
X022105Y003816D01*
X022169Y003657D02*
X022209Y003657D01*
X022209Y003498D02*
X022169Y003498D01*
X022184Y003340D02*
X022209Y003340D01*
X021593Y003340D02*
X021184Y003340D01*
X021341Y003181D02*
X021436Y003181D01*
X021609Y003498D02*
X020663Y003498D01*
X020708Y003657D02*
X021472Y003657D01*
X021225Y003816D02*
X020673Y003816D01*
X020485Y003974D02*
X021225Y003974D01*
X021225Y004133D02*
X020215Y004133D01*
X020292Y003974D02*
X019571Y003974D01*
X019325Y003816D02*
X020104Y003816D01*
X020070Y003657D02*
X019483Y003657D01*
X019076Y003498D02*
X013824Y003498D01*
X013783Y003419D02*
X013686Y003379D01*
X014064Y003709D01*
X018870Y003709D01*
X018884Y003703D01*
X018938Y003658D01*
X018938Y003636D01*
X018976Y003599D01*
X019001Y003552D01*
X019032Y003543D01*
X019229Y003346D01*
X019229Y003346D01*
X019346Y003229D01*
X019479Y003229D01*
X019439Y003189D01*
X019389Y003066D01*
X019338Y003189D01*
X019189Y003338D01*
X018994Y003419D01*
X018783Y003419D01*
X018588Y003338D01*
X018439Y003189D01*
X018389Y003066D01*
X018338Y003189D01*
X018189Y003338D01*
X017994Y003419D01*
X017783Y003419D01*
X017588Y003338D01*
X017439Y003189D01*
X017389Y003066D01*
X017338Y003189D01*
X017189Y003338D01*
X016994Y003419D01*
X016783Y003419D01*
X016588Y003338D01*
X016439Y003189D01*
X016389Y003066D01*
X016338Y003189D01*
X016189Y003338D01*
X015994Y003419D01*
X015783Y003419D01*
X015588Y003338D01*
X015439Y003189D01*
X015389Y003066D01*
X015338Y003189D01*
X015189Y003338D01*
X014994Y003419D01*
X014783Y003419D01*
X014588Y003338D01*
X014439Y003189D01*
X014389Y003066D01*
X014338Y003189D01*
X014189Y003338D01*
X013994Y003419D01*
X013783Y003419D01*
X014005Y003657D02*
X018938Y003657D01*
X019184Y003340D02*
X019235Y003340D01*
X019341Y003181D02*
X019436Y003181D01*
X018593Y003340D02*
X018184Y003340D01*
X018341Y003181D02*
X018436Y003181D01*
X017593Y003340D02*
X017184Y003340D01*
X017341Y003181D02*
X017436Y003181D01*
X016593Y003340D02*
X016184Y003340D01*
X016341Y003181D02*
X016436Y003181D01*
X015593Y003340D02*
X015184Y003340D01*
X015341Y003181D02*
X015436Y003181D01*
X014593Y003340D02*
X014184Y003340D01*
X014341Y003181D02*
X014436Y003181D01*
X014046Y004109D02*
X014040Y004131D01*
X014016Y004172D01*
X013874Y004314D01*
X013732Y004456D01*
X013691Y004480D01*
X013646Y004492D01*
X013598Y004492D01*
X013552Y004480D01*
X013511Y004456D01*
X013397Y004342D01*
X013361Y004306D01*
X013361Y004429D01*
X012739Y005051D01*
X012606Y005051D01*
X012388Y004833D01*
X012388Y004932D01*
X012339Y005049D01*
X012249Y005139D01*
X012175Y005170D01*
X012331Y005326D01*
X012331Y005459D01*
X011709Y006081D01*
X011632Y006081D01*
X011632Y006208D01*
X011492Y006349D01*
X013053Y006349D01*
X013030Y006292D01*
X013030Y006184D01*
X012906Y006132D01*
X012805Y006032D01*
X012750Y005900D01*
X012750Y005757D01*
X012805Y005626D01*
X012906Y005525D01*
X013037Y005470D01*
X013180Y005470D01*
X013312Y005525D01*
X013412Y005626D01*
X013452Y005722D01*
X013863Y005859D01*
X016387Y005859D01*
X016448Y005798D01*
X016565Y005750D01*
X016692Y005750D01*
X016809Y005798D01*
X016870Y005859D01*
X017377Y005859D01*
X017398Y005808D01*
X017488Y005718D01*
X015176Y005718D01*
X015142Y005752D02*
X015009Y005752D01*
X014827Y005570D01*
X014619Y005570D01*
X014569Y005619D01*
X014452Y005668D01*
X014325Y005668D01*
X014208Y005619D01*
X014118Y005529D01*
X014070Y005412D01*
X014070Y005307D01*
X013972Y005348D01*
X013845Y005348D01*
X013728Y005299D01*
X013638Y005209D01*
X013590Y005092D01*
X013590Y004965D01*
X013638Y004848D01*
X013728Y004758D01*
X013845Y004710D01*
X013945Y004710D01*
X014466Y004189D01*
X014631Y004189D01*
X018311Y004189D01*
X018429Y004306D01*
X018455Y004332D01*
X018455Y004229D01*
X018772Y004229D01*
X018772Y004228D01*
X018455Y004228D01*
X018455Y004109D01*
X014046Y004109D01*
X014039Y004133D02*
X018455Y004133D01*
X018455Y004291D02*
X018414Y004291D01*
X017638Y004589D02*
X017624Y004602D01*
X017552Y004777D01*
X017552Y005600D01*
X017584Y005678D01*
X017488Y005718D01*
X017552Y005560D02*
X015335Y005560D01*
X015430Y005464D02*
X015142Y005752D01*
X014975Y005718D02*
X013451Y005718D01*
X013346Y005560D02*
X014148Y005560D01*
X014070Y005401D02*
X012331Y005401D01*
X012248Y005242D02*
X013671Y005242D01*
X013590Y005084D02*
X012305Y005084D01*
X012388Y004925D02*
X012480Y004925D01*
X012865Y004925D02*
X013606Y004925D01*
X013719Y004767D02*
X013023Y004767D01*
X013182Y004608D02*
X014046Y004608D01*
X014205Y004450D02*
X013739Y004450D01*
X013874Y004314D02*
X013650Y004090D01*
X013650Y004090D01*
X013874Y004314D01*
X013851Y004291D02*
X013851Y004291D01*
X013897Y004291D02*
X014363Y004291D01*
X013693Y004133D02*
X013692Y004133D01*
X013649Y004090D02*
X013649Y004090D01*
X013397Y004342D01*
X013649Y004090D01*
X013606Y004133D02*
X013607Y004133D01*
X013448Y004291D02*
X013448Y004291D01*
X013505Y004450D02*
X013340Y004450D01*
X011389Y005186D02*
X011369Y005140D01*
X011068Y005441D01*
X011026Y005441D01*
X011140Y005555D01*
X010888Y005807D01*
X010888Y005807D01*
X011140Y005555D01*
X011176Y005591D01*
X011176Y005549D01*
X011389Y005336D01*
X011389Y005191D01*
X011389Y005186D01*
X011389Y005242D02*
X011267Y005242D01*
X011324Y005401D02*
X011108Y005401D01*
X011136Y005560D02*
X011136Y005560D01*
X011145Y005560D02*
X011176Y005560D01*
X010978Y005718D02*
X010977Y005718D01*
X010888Y005807D02*
X010663Y005583D01*
X010887Y005808D01*
X010635Y006060D01*
X010521Y005946D01*
X010497Y005905D01*
X010485Y005859D01*
X010485Y005812D01*
X010497Y005766D01*
X010521Y005725D01*
X010663Y005583D01*
X010805Y005441D01*
X010846Y005417D01*
X010892Y005405D01*
X010900Y005405D01*
X010536Y005041D01*
X010536Y004909D01*
X011057Y004388D01*
X011045Y004388D01*
X010928Y004339D01*
X010838Y004249D01*
X010790Y004132D01*
X010790Y004032D01*
X010706Y003949D01*
X009271Y003949D01*
X009872Y004550D01*
X009972Y004550D01*
X010089Y004598D01*
X010179Y004688D01*
X010228Y004805D01*
X010228Y004932D01*
X010179Y005049D01*
X010089Y005139D01*
X009972Y005188D01*
X009845Y005188D01*
X009728Y005139D01*
X009638Y005049D01*
X009590Y004932D01*
X009590Y004832D01*
X008866Y004109D01*
X004311Y004109D01*
X004151Y004269D01*
X003986Y004269D01*
X003431Y004269D01*
X003266Y004269D01*
X003225Y004228D01*
X003125Y004228D01*
X003008Y004179D01*
X002918Y004089D01*
X002870Y003972D01*
X002870Y003845D01*
X002918Y003728D01*
X003008Y003638D01*
X003125Y003590D01*
X003252Y003590D01*
X003369Y003638D01*
X003459Y003728D01*
X003508Y003845D01*
X003508Y003869D01*
X003613Y003869D01*
X003590Y003812D01*
X003590Y003685D01*
X003638Y003568D01*
X003728Y003478D01*
X003845Y003430D01*
X003972Y003430D01*
X004089Y003478D01*
X004160Y003549D01*
X008989Y003549D01*
X008989Y003419D01*
X008783Y003419D01*
X008588Y003338D01*
X008439Y003189D01*
X008389Y003066D01*
X008338Y003189D01*
X008189Y003338D01*
X007994Y003419D01*
X007783Y003419D01*
X007588Y003338D01*
X007439Y003189D01*
X007389Y003066D01*
X007338Y003189D01*
X007189Y003338D01*
X006994Y003419D01*
X006783Y003419D01*
X006588Y003338D01*
X006439Y003189D01*
X006389Y003066D01*
X006338Y003189D01*
X006189Y003338D01*
X005994Y003419D01*
X005783Y003419D01*
X005588Y003338D01*
X005439Y003189D01*
X005389Y003066D01*
X005338Y003189D01*
X005189Y003338D01*
X004994Y003419D01*
X004783Y003419D01*
X004588Y003338D01*
X004439Y003189D01*
X004389Y003066D01*
X004338Y003189D01*
X004189Y003338D01*
X003994Y003419D01*
X003783Y003419D01*
X003588Y003338D01*
X003439Y003189D01*
X003419Y003139D01*
X003419Y003325D01*
X003325Y003419D01*
X002569Y003419D01*
X002569Y009379D01*
X002588Y009359D01*
X002783Y009279D01*
X002802Y009279D01*
X003342Y008739D01*
X003516Y008739D01*
X005102Y008739D01*
X005939Y007902D01*
X006062Y007779D01*
X007502Y007779D01*
X007676Y007779D01*
X009667Y007779D01*
X009638Y007808D02*
X009728Y007718D01*
X009845Y007670D01*
X009972Y007670D01*
X010089Y007718D01*
X010179Y007808D01*
X010228Y007925D01*
X010228Y008052D01*
X010204Y008109D01*
X012626Y008109D01*
X013350Y007385D01*
X013350Y007285D01*
X013373Y007229D01*
X013351Y007229D01*
X013186Y007229D01*
X013026Y007069D01*
X010311Y007069D01*
X010269Y007111D01*
X010151Y007229D01*
X008311Y007229D01*
X008228Y007312D01*
X008228Y007412D01*
X008179Y007529D01*
X008089Y007619D01*
X007972Y007668D01*
X007845Y007668D01*
X007728Y007619D01*
X007638Y007529D01*
X007590Y007412D01*
X007590Y007285D01*
X007630Y007188D01*
X007525Y007188D01*
X007408Y007139D01*
X007318Y007049D01*
X007270Y006932D01*
X007270Y006805D01*
X007293Y006749D01*
X006791Y006749D01*
X006468Y007072D01*
X006468Y007172D01*
X006419Y007289D01*
X006329Y007379D01*
X006212Y007428D01*
X006085Y007428D01*
X005968Y007379D01*
X005878Y007289D01*
X005830Y007172D01*
X005830Y007045D01*
X005878Y006928D01*
X005968Y006838D01*
X006085Y006790D01*
X006185Y006790D01*
X006626Y006349D01*
X006791Y006349D01*
X007906Y006349D01*
X008790Y005465D01*
X008790Y005365D01*
X008838Y005248D01*
X008928Y005158D01*
X009045Y005110D01*
X009172Y005110D01*
X009289Y005158D01*
X009379Y005248D01*
X009428Y005365D01*
X009428Y005492D01*
X009379Y005609D01*
X009289Y005699D01*
X009172Y005748D01*
X009072Y005748D01*
X008189Y006631D01*
X008151Y006669D01*
X009613Y006669D01*
X009590Y006612D01*
X009590Y006485D01*
X009638Y006368D01*
X009728Y006278D01*
X009845Y006230D01*
X009972Y006230D01*
X010089Y006278D01*
X010160Y006349D01*
X010952Y006349D01*
X010867Y006264D01*
X010867Y006210D01*
X010836Y006210D01*
X010790Y006198D01*
X010749Y006174D01*
X010635Y006060D01*
X010888Y005808D01*
X010887Y005808D01*
X010888Y005807D01*
X010818Y005877D02*
X010819Y005877D01*
X010660Y006035D02*
X010660Y006035D01*
X010610Y006035D02*
X008785Y006035D01*
X008944Y005877D02*
X010490Y005877D01*
X010528Y005718D02*
X009244Y005718D01*
X009400Y005560D02*
X010686Y005560D01*
X010798Y005718D02*
X010798Y005718D01*
X010896Y005401D02*
X009428Y005401D01*
X009374Y005242D02*
X010737Y005242D01*
X010579Y005084D02*
X010145Y005084D01*
X010228Y004925D02*
X010536Y004925D01*
X010678Y004767D02*
X010212Y004767D01*
X010099Y004608D02*
X010836Y004608D01*
X010995Y004450D02*
X009773Y004450D01*
X009614Y004291D02*
X010880Y004291D01*
X010790Y004133D02*
X009455Y004133D01*
X009297Y003974D02*
X010731Y003974D01*
X009524Y004767D02*
X002569Y004767D01*
X002569Y004925D02*
X009590Y004925D01*
X009673Y005084D02*
X002569Y005084D01*
X002569Y005242D02*
X004164Y005242D01*
X004186Y005220D02*
X004086Y005320D01*
X004031Y005451D01*
X004031Y005594D01*
X004086Y005725D01*
X004186Y005825D01*
X004318Y005880D01*
X004460Y005880D01*
X004591Y005825D01*
X004691Y005725D01*
X004746Y005594D01*
X004746Y005451D01*
X004691Y005320D01*
X004591Y005220D01*
X004460Y005165D01*
X004318Y005165D01*
X004186Y005220D01*
X004052Y005401D02*
X002569Y005401D01*
X002569Y005560D02*
X004031Y005560D01*
X004083Y005718D02*
X002569Y005718D01*
X002569Y005877D02*
X004310Y005877D01*
X004467Y005877D02*
X008378Y005877D01*
X008219Y006035D02*
X002569Y006035D01*
X002569Y006194D02*
X008061Y006194D01*
X008309Y006511D02*
X009590Y006511D01*
X009654Y006352D02*
X008468Y006352D01*
X008626Y006194D02*
X010783Y006194D01*
X011632Y006194D02*
X013030Y006194D01*
X012808Y006035D02*
X011755Y006035D01*
X011913Y005877D02*
X012750Y005877D01*
X012766Y005718D02*
X012072Y005718D01*
X012231Y005560D02*
X012871Y005560D01*
X015430Y005464D02*
X015430Y005390D01*
X015504Y005390D01*
X015706Y005188D01*
X015732Y005188D01*
X015849Y005139D01*
X015939Y005049D01*
X015988Y004932D01*
X015988Y004805D01*
X015939Y004688D01*
X015849Y004598D01*
X015826Y004589D01*
X017638Y004589D01*
X017622Y004608D02*
X015859Y004608D01*
X015972Y004767D02*
X017556Y004767D01*
X017552Y004925D02*
X015988Y004925D01*
X015905Y005084D02*
X017552Y005084D01*
X017552Y005242D02*
X015652Y005242D01*
X015430Y005401D02*
X017552Y005401D01*
X018505Y005285D02*
X018505Y004909D01*
X018631Y004909D01*
X018933Y004909D01*
X019016Y004909D01*
X019099Y004909D01*
X019099Y004909D01*
X019137Y004909D01*
X019137Y004909D01*
X019347Y004787D01*
X019347Y004787D01*
X019347Y004787D01*
X019469Y004577D01*
X019469Y004577D01*
X019469Y004566D01*
X019489Y004566D01*
X019582Y004472D01*
X019582Y004429D01*
X019829Y004429D01*
X019829Y004439D01*
X019759Y004468D01*
X019624Y004602D01*
X019552Y004777D01*
X019552Y005365D01*
X019472Y005285D01*
X019340Y005230D01*
X019197Y005230D01*
X019066Y005285D01*
X018989Y005362D01*
X018912Y005285D01*
X018780Y005230D01*
X018637Y005230D01*
X018506Y005285D01*
X018505Y005285D01*
X018505Y005242D02*
X018608Y005242D01*
X018809Y005242D02*
X019168Y005242D01*
X019369Y005242D02*
X019552Y005242D01*
X019552Y005084D02*
X018505Y005084D01*
X018505Y004925D02*
X019552Y004925D01*
X019556Y004767D02*
X019359Y004767D01*
X019451Y004608D02*
X019622Y004608D01*
X019582Y004450D02*
X019802Y004450D01*
X020436Y004608D02*
X021308Y004608D01*
X021225Y004767D02*
X020501Y004767D01*
X020505Y004925D02*
X021225Y004925D01*
X021237Y005084D02*
X020505Y005084D01*
X020505Y005242D02*
X021269Y005242D01*
X021269Y005401D02*
X020505Y005401D01*
X020505Y005560D02*
X021269Y005560D01*
X020979Y005808D02*
X020889Y005718D01*
X020979Y005808D02*
X021021Y005910D01*
X021117Y005870D01*
X021260Y005870D01*
X021102Y005877D02*
X021008Y005877D01*
X021189Y006229D02*
X021549Y006229D01*
X019602Y006669D02*
X019602Y006848D01*
X019285Y006986D02*
X019284Y006986D01*
X019284Y007145D02*
X019285Y007145D01*
X020492Y007304D02*
X021038Y007304D01*
X021451Y008255D02*
X021566Y008255D01*
X021566Y008413D02*
X021451Y008413D01*
X021986Y008413D02*
X022209Y008413D01*
X022209Y008255D02*
X022004Y008255D01*
X022209Y009206D02*
X005534Y009206D01*
X005583Y009365D02*
X005376Y009365D01*
X005344Y009523D02*
X005433Y009523D01*
X005016Y009159D02*
X004896Y009279D01*
X004783Y009279D01*
X004588Y009359D01*
X004439Y009508D01*
X004400Y009603D01*
X004398Y009598D01*
X004359Y009520D01*
X004308Y009450D01*
X004247Y009389D01*
X004177Y009338D01*
X004100Y009299D01*
X004017Y009272D01*
X003932Y009259D01*
X003909Y009259D01*
X003909Y009788D01*
X003869Y009788D01*
X003869Y009259D01*
X003845Y009259D01*
X003760Y009272D01*
X003678Y009299D01*
X003600Y009338D01*
X003530Y009389D01*
X003469Y009450D01*
X003418Y009520D01*
X003379Y009598D01*
X003377Y009603D01*
X003338Y009508D01*
X003252Y009422D01*
X003516Y009159D01*
X005016Y009159D01*
X004968Y009206D02*
X003468Y009206D01*
X003564Y009365D02*
X003310Y009365D01*
X003344Y009523D02*
X003417Y009523D01*
X003869Y009523D02*
X003909Y009523D01*
X003909Y009365D02*
X003869Y009365D01*
X003869Y009682D02*
X003909Y009682D01*
X004213Y009365D02*
X004583Y009365D01*
X004433Y009523D02*
X004360Y009523D01*
X003191Y008889D02*
X002569Y008889D01*
X002569Y009047D02*
X003033Y009047D01*
X002874Y009206D02*
X002569Y009206D01*
X002569Y009365D02*
X002583Y009365D01*
X002569Y008730D02*
X005110Y008730D01*
X005268Y008572D02*
X002569Y008572D01*
X002569Y008413D02*
X005427Y008413D01*
X005586Y008255D02*
X002569Y008255D01*
X002569Y008096D02*
X005744Y008096D01*
X005903Y007938D02*
X002569Y007938D01*
X002569Y007779D02*
X006061Y007779D01*
X005892Y007304D02*
X004746Y007304D01*
X004746Y007326D02*
X004691Y007457D01*
X004591Y007558D01*
X004460Y007612D01*
X004318Y007612D01*
X004186Y007558D01*
X004086Y007457D01*
X004031Y007326D01*
X004031Y007184D01*
X004086Y007052D01*
X004186Y006952D01*
X004318Y006898D01*
X004460Y006898D01*
X004591Y006952D01*
X004691Y007052D01*
X004746Y007184D01*
X004746Y007326D01*
X004686Y007462D02*
X007610Y007462D01*
X007590Y007304D02*
X006405Y007304D01*
X006468Y007145D02*
X007422Y007145D01*
X007292Y006986D02*
X006554Y006986D01*
X006712Y006828D02*
X007270Y006828D01*
X006464Y006511D02*
X002569Y006511D01*
X002569Y006352D02*
X006622Y006352D01*
X006305Y006669D02*
X002569Y006669D01*
X002569Y006828D02*
X005993Y006828D01*
X005854Y006986D02*
X004625Y006986D01*
X004730Y007145D02*
X005830Y007145D01*
X004152Y006986D02*
X002569Y006986D01*
X002569Y007145D02*
X004048Y007145D01*
X004031Y007304D02*
X002569Y007304D01*
X002569Y007462D02*
X004091Y007462D01*
X002569Y007621D02*
X007732Y007621D01*
X007676Y007779D02*
X007756Y007859D01*
X009617Y007859D01*
X009638Y007808D01*
X010150Y007779D02*
X012955Y007779D01*
X013114Y007621D02*
X008086Y007621D01*
X008207Y007462D02*
X013272Y007462D01*
X013350Y007304D02*
X008237Y007304D01*
X010235Y007145D02*
X013102Y007145D01*
X012797Y007938D02*
X010228Y007938D01*
X010209Y008096D02*
X012638Y008096D01*
X013787Y008413D02*
X013819Y008413D01*
X013533Y008730D02*
X013533Y008730D01*
X013533Y008889D02*
X013533Y008889D01*
X013533Y009047D02*
X013533Y009047D01*
X013783Y009047D02*
X013822Y009047D01*
X013282Y009047D02*
X007627Y009047D01*
X007390Y009047D02*
X005693Y009047D01*
X005851Y008889D02*
X007195Y008889D01*
X007150Y008730D02*
X006010Y008730D01*
X006168Y008572D02*
X007177Y008572D01*
X007194Y009365D02*
X007583Y009365D01*
X007433Y009523D02*
X007344Y009523D01*
X006583Y009365D02*
X006194Y009365D01*
X006344Y009523D02*
X006433Y009523D01*
X008194Y009365D02*
X008583Y009365D01*
X008433Y009523D02*
X008344Y009523D01*
X009194Y009365D02*
X009583Y009365D01*
X009433Y009523D02*
X009344Y009523D01*
X010194Y009365D02*
X010583Y009365D01*
X010433Y009523D02*
X010344Y009523D01*
X011194Y009365D02*
X011583Y009365D01*
X011433Y009523D02*
X011344Y009523D01*
X012194Y009365D02*
X012583Y009365D01*
X012433Y009523D02*
X012344Y009523D01*
X013194Y009365D02*
X013583Y009365D01*
X013433Y009523D02*
X013344Y009523D01*
X014194Y009365D02*
X014583Y009365D01*
X014433Y009523D02*
X014344Y009523D01*
X015194Y009365D02*
X015583Y009365D01*
X015433Y009523D02*
X015344Y009523D01*
X016194Y009365D02*
X016583Y009365D01*
X016433Y009523D02*
X016344Y009523D01*
X017194Y009365D02*
X017583Y009365D01*
X017433Y009523D02*
X017344Y009523D01*
X018194Y009365D02*
X018583Y009365D01*
X018433Y009523D02*
X018344Y009523D01*
X019194Y009365D02*
X019583Y009365D01*
X019433Y009523D02*
X019344Y009523D01*
X020194Y009365D02*
X020583Y009365D01*
X020433Y009523D02*
X020344Y009523D01*
X021194Y009365D02*
X021366Y009365D01*
X021359Y009523D02*
X021344Y009523D01*
X013215Y008889D02*
X013159Y008889D01*
X008536Y005718D02*
X004694Y005718D01*
X004746Y005560D02*
X008695Y005560D01*
X008790Y005401D02*
X004725Y005401D01*
X004614Y005242D02*
X008844Y005242D01*
X009365Y004608D02*
X002569Y004608D01*
X002569Y004450D02*
X009207Y004450D01*
X009048Y004291D02*
X002569Y004291D01*
X002569Y004133D02*
X002961Y004133D01*
X002870Y003974D02*
X002569Y003974D01*
X002569Y003816D02*
X002882Y003816D01*
X002989Y003657D02*
X002569Y003657D01*
X002569Y003498D02*
X003708Y003498D01*
X003601Y003657D02*
X003388Y003657D01*
X003495Y003816D02*
X003591Y003816D01*
X004110Y003498D02*
X008989Y003498D01*
X008593Y003340D02*
X008184Y003340D01*
X008341Y003181D02*
X008436Y003181D01*
X007593Y003340D02*
X007184Y003340D01*
X007341Y003181D02*
X007436Y003181D01*
X006593Y003340D02*
X006184Y003340D01*
X006341Y003181D02*
X006436Y003181D01*
X005593Y003340D02*
X005184Y003340D01*
X005341Y003181D02*
X005436Y003181D01*
X004593Y003340D02*
X004184Y003340D01*
X004341Y003181D02*
X004436Y003181D01*
X003593Y003340D02*
X003404Y003340D01*
X003419Y003181D02*
X003436Y003181D01*
X004287Y004133D02*
X008890Y004133D01*
X020343Y003340D02*
X020593Y003340D01*
X020436Y003181D02*
X020341Y003181D01*
D22*
X021549Y003976D02*
X021889Y003636D01*
X021889Y002889D01*
X021549Y004881D02*
X021549Y006229D01*
X021549Y006917D01*
X021509Y006957D01*
D23*
X021429Y006949D01*
X019829Y006949D01*
X019509Y007269D01*
X019509Y007429D01*
X018709Y008229D01*
X018629Y008229D01*
X018309Y008549D01*
X017589Y008549D01*
X017189Y008149D01*
X013589Y008149D01*
X013029Y008709D01*
X007509Y008709D01*
M02*
