G75*
G70*
%OFA0B0*%
%FSLAX24Y24*%
%IPPOS*%
%LPD*%
%AMOC8*
5,1,8,0,0,1.08239X$1,22.5*
%
%ADD10R,0.0276X0.0354*%
%ADD11R,0.0315X0.0315*%
%ADD12R,0.0984X0.0197*%
%ADD13R,0.0984X0.0787*%
%ADD14R,0.0551X0.0394*%
%ADD15R,0.0315X0.0354*%
%ADD16R,0.0315X0.0472*%
%ADD17R,0.0100X0.0394*%
%ADD18R,0.0394X0.0100*%
%ADD19R,0.0248X0.0327*%
%ADD20R,0.0433X0.0394*%
D10*
X004718Y003181D03*
X005230Y003181D03*
X005230Y003681D03*
X004718Y003681D03*
X004718Y004181D03*
X005230Y004181D03*
X005230Y004681D03*
X004718Y004681D03*
X004718Y005181D03*
X005230Y005181D03*
X006718Y004261D03*
X007230Y004261D03*
X007230Y003681D03*
X006718Y003681D03*
X008478Y004961D03*
X008990Y004961D03*
X008990Y005441D03*
X008478Y005441D03*
X008478Y005921D03*
X008990Y005921D03*
X011858Y006601D03*
X012370Y006601D03*
G36*
X014366Y003280D02*
X014171Y003475D01*
X014420Y003724D01*
X014615Y003529D01*
X014366Y003280D01*
G37*
G36*
X014728Y002918D02*
X014533Y003113D01*
X014782Y003362D01*
X014977Y003167D01*
X014728Y002918D01*
G37*
G36*
X014160Y002544D02*
X014355Y002349D01*
X014106Y002100D01*
X013911Y002295D01*
X014160Y002544D01*
G37*
G36*
X014522Y002182D02*
X014717Y001987D01*
X014468Y001738D01*
X014273Y001933D01*
X014522Y002182D01*
G37*
X010010Y001761D03*
X009498Y001761D03*
D11*
X014998Y001541D03*
X015589Y001541D03*
D12*
X003458Y003551D03*
X003458Y003866D03*
X003458Y004181D03*
X003458Y004496D03*
X003458Y004811D03*
D13*
X001293Y002410D03*
X003458Y002410D03*
X003458Y005953D03*
X001293Y005953D03*
D14*
X006541Y005555D03*
X007407Y005181D03*
X006541Y004807D03*
X006541Y003055D03*
X007407Y002681D03*
X006541Y002307D03*
D15*
X018920Y002588D03*
X019668Y002588D03*
X019294Y003414D03*
X019294Y004508D03*
X019668Y005335D03*
X018920Y005335D03*
D16*
X018939Y005961D03*
X019648Y005961D03*
X019648Y002001D03*
X018939Y002001D03*
D17*
G36*
X013819Y004425D02*
X013748Y004496D01*
X014025Y004773D01*
X014096Y004702D01*
X013819Y004425D01*
G37*
G36*
X013680Y004564D02*
X013609Y004635D01*
X013886Y004912D01*
X013957Y004841D01*
X013680Y004564D01*
G37*
G36*
X013541Y004703D02*
X013470Y004774D01*
X013747Y005051D01*
X013818Y004980D01*
X013541Y004703D01*
G37*
G36*
X013402Y004843D02*
X013331Y004914D01*
X013608Y005191D01*
X013679Y005120D01*
X013402Y004843D01*
G37*
G36*
X013263Y004982D02*
X013192Y005053D01*
X013469Y005330D01*
X013540Y005259D01*
X013263Y004982D01*
G37*
G36*
X013123Y005121D02*
X013052Y005192D01*
X013329Y005469D01*
X013400Y005398D01*
X013123Y005121D01*
G37*
G36*
X012984Y005260D02*
X012913Y005331D01*
X013190Y005608D01*
X013261Y005537D01*
X012984Y005260D01*
G37*
G36*
X012845Y005399D02*
X012774Y005470D01*
X013051Y005747D01*
X013122Y005676D01*
X012845Y005399D01*
G37*
G36*
X012706Y005539D02*
X012635Y005610D01*
X012912Y005887D01*
X012983Y005816D01*
X012706Y005539D01*
G37*
G36*
X012567Y005678D02*
X012496Y005749D01*
X012773Y006026D01*
X012844Y005955D01*
X012567Y005678D01*
G37*
G36*
X012427Y005817D02*
X012356Y005888D01*
X012633Y006165D01*
X012704Y006094D01*
X012427Y005817D01*
G37*
G36*
X012288Y005956D02*
X012217Y006027D01*
X012494Y006304D01*
X012565Y006233D01*
X012288Y005956D01*
G37*
G36*
X009922Y003590D02*
X009851Y003661D01*
X010128Y003938D01*
X010199Y003867D01*
X009922Y003590D01*
G37*
G36*
X010061Y003451D02*
X009990Y003522D01*
X010267Y003799D01*
X010338Y003728D01*
X010061Y003451D01*
G37*
G36*
X010200Y003311D02*
X010129Y003382D01*
X010406Y003659D01*
X010477Y003588D01*
X010200Y003311D01*
G37*
G36*
X010340Y003172D02*
X010269Y003243D01*
X010546Y003520D01*
X010617Y003449D01*
X010340Y003172D01*
G37*
G36*
X010479Y003033D02*
X010408Y003104D01*
X010685Y003381D01*
X010756Y003310D01*
X010479Y003033D01*
G37*
G36*
X010618Y002894D02*
X010547Y002965D01*
X010824Y003242D01*
X010895Y003171D01*
X010618Y002894D01*
G37*
G36*
X010757Y002755D02*
X010686Y002826D01*
X010963Y003103D01*
X011034Y003032D01*
X010757Y002755D01*
G37*
G36*
X010896Y002615D02*
X010825Y002686D01*
X011102Y002963D01*
X011173Y002892D01*
X010896Y002615D01*
G37*
G36*
X011036Y002476D02*
X010965Y002547D01*
X011242Y002824D01*
X011313Y002753D01*
X011036Y002476D01*
G37*
G36*
X011175Y002337D02*
X011104Y002408D01*
X011381Y002685D01*
X011452Y002614D01*
X011175Y002337D01*
G37*
G36*
X011314Y002198D02*
X011243Y002269D01*
X011520Y002546D01*
X011591Y002475D01*
X011314Y002198D01*
G37*
G36*
X011453Y002059D02*
X011382Y002130D01*
X011659Y002407D01*
X011730Y002336D01*
X011453Y002059D01*
G37*
D18*
G36*
X012494Y002059D02*
X012217Y002336D01*
X012288Y002407D01*
X012565Y002130D01*
X012494Y002059D01*
G37*
G36*
X012633Y002198D02*
X012356Y002475D01*
X012427Y002546D01*
X012704Y002269D01*
X012633Y002198D01*
G37*
G36*
X012773Y002337D02*
X012496Y002614D01*
X012567Y002685D01*
X012844Y002408D01*
X012773Y002337D01*
G37*
G36*
X012912Y002476D02*
X012635Y002753D01*
X012706Y002824D01*
X012983Y002547D01*
X012912Y002476D01*
G37*
G36*
X013051Y002615D02*
X012774Y002892D01*
X012845Y002963D01*
X013122Y002686D01*
X013051Y002615D01*
G37*
G36*
X013190Y002755D02*
X012913Y003032D01*
X012984Y003103D01*
X013261Y002826D01*
X013190Y002755D01*
G37*
G36*
X013329Y002894D02*
X013052Y003171D01*
X013123Y003242D01*
X013400Y002965D01*
X013329Y002894D01*
G37*
G36*
X013469Y003033D02*
X013192Y003310D01*
X013263Y003381D01*
X013540Y003104D01*
X013469Y003033D01*
G37*
G36*
X013608Y003172D02*
X013331Y003449D01*
X013402Y003520D01*
X013679Y003243D01*
X013608Y003172D01*
G37*
G36*
X013747Y003311D02*
X013470Y003588D01*
X013541Y003659D01*
X013818Y003382D01*
X013747Y003311D01*
G37*
G36*
X013886Y003451D02*
X013609Y003728D01*
X013680Y003799D01*
X013957Y003522D01*
X013886Y003451D01*
G37*
G36*
X014025Y003590D02*
X013748Y003867D01*
X013819Y003938D01*
X014096Y003661D01*
X014025Y003590D01*
G37*
G36*
X010685Y004982D02*
X010408Y005259D01*
X010479Y005330D01*
X010756Y005053D01*
X010685Y004982D01*
G37*
G36*
X010546Y004843D02*
X010269Y005120D01*
X010340Y005191D01*
X010617Y004914D01*
X010546Y004843D01*
G37*
G36*
X010406Y004703D02*
X010129Y004980D01*
X010200Y005051D01*
X010477Y004774D01*
X010406Y004703D01*
G37*
G36*
X010267Y004564D02*
X009990Y004841D01*
X010061Y004912D01*
X010338Y004635D01*
X010267Y004564D01*
G37*
G36*
X010128Y004425D02*
X009851Y004702D01*
X009922Y004773D01*
X010199Y004496D01*
X010128Y004425D01*
G37*
G36*
X010824Y005121D02*
X010547Y005398D01*
X010618Y005469D01*
X010895Y005192D01*
X010824Y005121D01*
G37*
G36*
X010963Y005260D02*
X010686Y005537D01*
X010757Y005608D01*
X011034Y005331D01*
X010963Y005260D01*
G37*
G36*
X011102Y005399D02*
X010825Y005676D01*
X010896Y005747D01*
X011173Y005470D01*
X011102Y005399D01*
G37*
G36*
X011242Y005539D02*
X010965Y005816D01*
X011036Y005887D01*
X011313Y005610D01*
X011242Y005539D01*
G37*
G36*
X011381Y005678D02*
X011104Y005955D01*
X011175Y006026D01*
X011452Y005749D01*
X011381Y005678D01*
G37*
G36*
X011520Y005817D02*
X011243Y006094D01*
X011314Y006165D01*
X011591Y005888D01*
X011520Y005817D01*
G37*
G36*
X011659Y005956D02*
X011382Y006233D01*
X011453Y006304D01*
X011730Y006027D01*
X011659Y005956D01*
G37*
D19*
X005446Y005861D03*
X004541Y005861D03*
D20*
X018959Y006641D03*
X019628Y006641D03*
M02*
