G75*
G70*
%OFA0B0*%
%FSLAX24Y24*%
%IPPOS*%
%LPD*%
%AMOC8*
5,1,8,0,0,1.08239X$1,22.5*
%
%ADD10C,0.0040*%
%ADD11C,0.0030*%
%ADD12C,0.0080*%
%ADD13C,0.0010*%
D10*
X000566Y001401D02*
X000873Y001401D01*
X000566Y001708D01*
X000566Y001785D01*
X000643Y001862D01*
X000797Y001862D01*
X000873Y001785D01*
X001027Y001862D02*
X001180Y001862D01*
X001104Y001862D02*
X001104Y001478D01*
X001180Y001401D01*
X001257Y001401D01*
X001334Y001478D01*
X002634Y001558D02*
X002634Y001712D01*
X002711Y001788D01*
X002864Y001788D01*
X002941Y001712D01*
X002941Y001558D01*
X002864Y001481D01*
X002711Y001481D01*
X002634Y001558D01*
X003094Y001481D02*
X003324Y001481D01*
X003401Y001558D01*
X003324Y001635D01*
X003094Y001635D01*
X003094Y001712D02*
X003094Y001481D01*
X003094Y001712D02*
X003171Y001788D01*
X003324Y001788D01*
X003555Y001712D02*
X003555Y001481D01*
X003861Y001481D02*
X003861Y001942D01*
X003785Y001788D02*
X003631Y001788D01*
X003555Y001712D01*
X003785Y001788D02*
X003861Y001712D01*
X004015Y001788D02*
X004322Y001481D01*
X004015Y001481D01*
X004475Y001481D02*
X004552Y001481D01*
X004552Y001558D01*
X004475Y001558D01*
X004475Y001481D01*
X004705Y001481D02*
X004936Y001481D01*
X005012Y001558D01*
X005012Y001788D01*
X005166Y001788D02*
X005473Y001481D01*
X005166Y001481D01*
X004859Y001328D02*
X004782Y001328D01*
X004705Y001405D01*
X004705Y001788D01*
X004322Y001788D02*
X004015Y001788D01*
X005166Y001788D02*
X005473Y001788D01*
X006086Y001788D02*
X006086Y001405D01*
X006163Y001328D01*
X006240Y001328D01*
X006317Y001481D02*
X006086Y001481D01*
X006317Y001481D02*
X006393Y001558D01*
X006393Y001788D01*
X006547Y001712D02*
X006624Y001788D01*
X006854Y001788D01*
X006547Y001712D02*
X006547Y001558D01*
X006624Y001481D01*
X006854Y001481D01*
X006854Y001942D01*
X004454Y004041D02*
X004147Y004041D01*
X003993Y004118D02*
X003993Y004272D01*
X003917Y004348D01*
X003763Y004348D01*
X003686Y004272D01*
X003686Y004195D01*
X003993Y004195D01*
X003993Y004118D02*
X003917Y004041D01*
X003763Y004041D01*
X003533Y004118D02*
X003456Y004195D01*
X003226Y004195D01*
X003226Y004272D02*
X003226Y004041D01*
X003456Y004041D01*
X003533Y004118D01*
X003303Y004348D02*
X003226Y004272D01*
X003303Y004348D02*
X003456Y004348D01*
X003073Y004272D02*
X002919Y004272D01*
X002996Y004425D02*
X002996Y004041D01*
X002766Y004041D02*
X002459Y004041D01*
X002305Y004118D02*
X002229Y004195D01*
X001999Y004195D01*
X001999Y004272D02*
X001999Y004041D01*
X002229Y004041D01*
X002305Y004118D01*
X002075Y004348D02*
X001999Y004272D01*
X002075Y004348D02*
X002229Y004348D01*
X001845Y004348D02*
X001615Y004348D01*
X001538Y004272D01*
X001538Y004118D01*
X001615Y004041D01*
X001845Y004041D01*
X001845Y004502D01*
X001385Y004272D02*
X001308Y004348D01*
X001078Y004348D01*
X001308Y004195D02*
X001385Y004272D01*
X001308Y004195D02*
X001155Y004195D01*
X001078Y004118D01*
X001155Y004041D01*
X001385Y004041D01*
X002766Y004041D02*
X002766Y004502D01*
X002919Y004502D02*
X002996Y004425D01*
X004454Y004502D02*
X004454Y004041D01*
X001334Y006518D02*
X001257Y006441D01*
X001180Y006441D01*
X001104Y006518D01*
X001104Y006902D01*
X001104Y006518D01*
X001180Y006441D01*
X001257Y006441D01*
X001334Y006518D01*
X000873Y006441D02*
X000566Y006441D01*
X000873Y006441D01*
X000720Y006441D02*
X000720Y006902D01*
X000873Y006748D01*
X000720Y006902D01*
X000720Y006441D01*
X001027Y006902D02*
X001180Y006902D01*
X001027Y006902D01*
X015567Y006882D02*
X015874Y006882D01*
X015874Y006652D01*
X015721Y006728D01*
X015644Y006728D01*
X015567Y006652D01*
X015567Y006498D01*
X015644Y006421D01*
X015797Y006421D01*
X015874Y006498D01*
X016028Y006421D02*
X016334Y006421D01*
X016028Y006728D01*
X016028Y006805D01*
X016104Y006882D01*
X016258Y006882D01*
X016334Y006805D01*
X017567Y006805D02*
X017567Y006728D01*
X017644Y006652D01*
X017567Y006575D01*
X017567Y006498D01*
X017644Y006421D01*
X017797Y006421D01*
X017874Y006498D01*
X018028Y006421D02*
X018334Y006421D01*
X018028Y006728D01*
X018028Y006805D01*
X018104Y006882D01*
X018258Y006882D01*
X018334Y006805D01*
X017874Y006805D02*
X017797Y006882D01*
X017644Y006882D01*
X017567Y006805D01*
X017644Y006652D02*
X017721Y006652D01*
X019647Y006421D02*
X019954Y006421D01*
X019801Y006421D02*
X019801Y006882D01*
X019954Y006728D01*
X020108Y006728D02*
X020108Y006805D01*
X020184Y006882D01*
X020338Y006882D01*
X020414Y006805D01*
X020108Y006728D02*
X020414Y006421D01*
X020108Y006421D01*
X020144Y001862D02*
X020297Y001862D01*
X020374Y001785D01*
X020144Y001862D02*
X020067Y001785D01*
X020067Y001708D01*
X020374Y001401D01*
X020067Y001401D01*
X019913Y001478D02*
X019606Y001785D01*
X019606Y001478D01*
X019683Y001401D01*
X019837Y001401D01*
X019913Y001478D01*
X019913Y001785D01*
X019837Y001862D01*
X019683Y001862D01*
X019606Y001785D01*
D11*
X007499Y004230D02*
X007402Y004230D01*
X007450Y004278D02*
X007450Y004085D01*
X007402Y004036D01*
X007302Y004036D02*
X007302Y004327D01*
X007254Y004230D02*
X007157Y004230D01*
X007109Y004182D01*
X007109Y004036D01*
X007008Y004085D02*
X006959Y004133D01*
X006814Y004133D01*
X006814Y004182D02*
X006814Y004036D01*
X006959Y004036D01*
X007008Y004085D01*
X006863Y004230D02*
X006814Y004182D01*
X006863Y004230D02*
X006959Y004230D01*
X006713Y004230D02*
X006568Y004230D01*
X006520Y004182D01*
X006520Y004036D01*
X006418Y004036D02*
X006418Y004327D01*
X006273Y004230D02*
X006418Y004133D01*
X006273Y004036D01*
X006173Y004036D02*
X006028Y004036D01*
X005979Y004085D01*
X006028Y004133D01*
X006124Y004133D01*
X006173Y004182D01*
X006124Y004230D01*
X005979Y004230D01*
X005584Y004230D02*
X005487Y004230D01*
X005535Y004278D02*
X005535Y004085D01*
X005487Y004036D01*
X005387Y004085D02*
X005387Y004182D01*
X005339Y004230D01*
X005242Y004230D01*
X005194Y004182D01*
X005194Y004085D01*
X005242Y004036D01*
X005339Y004036D01*
X005387Y004085D01*
X005305Y003687D02*
X005305Y003396D01*
X005204Y003445D02*
X005156Y003493D01*
X005011Y003493D01*
X005011Y003542D02*
X005011Y003396D01*
X005156Y003396D01*
X005204Y003445D01*
X005059Y003590D02*
X005011Y003542D01*
X005059Y003590D02*
X005156Y003590D01*
X005305Y003687D02*
X005402Y003590D01*
X005499Y003687D01*
X005499Y003396D01*
X004909Y003396D02*
X004764Y003396D01*
X004716Y003445D01*
X004716Y003542D01*
X004764Y003590D01*
X004909Y003590D01*
X004909Y003300D01*
X004615Y003396D02*
X004518Y003396D01*
X004566Y003396D02*
X004566Y003687D01*
X004615Y003687D01*
X004418Y003542D02*
X004370Y003590D01*
X004273Y003590D01*
X004225Y003542D01*
X004225Y003493D01*
X004418Y003493D01*
X004418Y003445D02*
X004418Y003542D01*
X004418Y003445D02*
X004370Y003396D01*
X004273Y003396D01*
X003829Y003396D02*
X003829Y003687D01*
X003732Y003590D01*
X003636Y003687D01*
X003636Y003396D01*
X003534Y003396D02*
X003438Y003396D01*
X003486Y003396D02*
X003486Y003590D01*
X003534Y003590D01*
X003486Y003687D02*
X003486Y003735D01*
X003338Y003590D02*
X003193Y003590D01*
X003145Y003542D01*
X003145Y003396D01*
X003043Y003396D02*
X002947Y003396D01*
X002995Y003396D02*
X002995Y003590D01*
X003043Y003590D01*
X002995Y003687D02*
X002995Y003735D01*
X003338Y003590D02*
X003338Y003396D01*
X004110Y003047D02*
X004110Y002756D01*
X004207Y002756D02*
X004013Y002756D01*
X004207Y002950D02*
X004110Y003047D01*
X004603Y002902D02*
X004603Y002756D01*
X004603Y002902D02*
X004651Y002950D01*
X004796Y002950D01*
X004796Y002756D01*
X004897Y002805D02*
X004897Y002902D01*
X004946Y002950D01*
X005043Y002950D01*
X005091Y002902D01*
X005091Y002805D01*
X005043Y002756D01*
X004946Y002756D01*
X004897Y002805D01*
X005191Y002756D02*
X005287Y002756D01*
X005239Y002756D02*
X005239Y002950D01*
X005287Y002950D01*
X005387Y002950D02*
X005484Y002950D01*
X005435Y002998D02*
X005435Y002805D01*
X005387Y002756D01*
X005585Y002756D02*
X005585Y002950D01*
X005778Y002950D02*
X005778Y002805D01*
X005730Y002756D01*
X005585Y002756D01*
X005878Y002756D02*
X005975Y002756D01*
X005926Y002756D02*
X005926Y003047D01*
X005975Y003047D01*
X006076Y002902D02*
X006124Y002950D01*
X006221Y002950D01*
X006269Y002902D01*
X006269Y002805D01*
X006221Y002756D01*
X006124Y002756D01*
X006076Y002805D01*
X006076Y002902D01*
X006371Y002950D02*
X006467Y002756D01*
X006564Y002950D01*
X006665Y003047D02*
X006859Y003047D01*
X006859Y002756D01*
X006665Y002756D01*
X006762Y002902D02*
X006859Y002902D01*
X005239Y003047D02*
X005239Y003095D01*
X006713Y004036D02*
X006713Y004230D01*
X007254Y004230D02*
X007302Y004182D01*
D12*
X009254Y003074D02*
X009421Y003241D01*
X010312Y003074D02*
X010646Y002740D01*
X009755Y001849D02*
X009421Y002183D01*
X010646Y001682D02*
X010813Y001849D01*
X006634Y002181D02*
X006474Y002021D01*
X006314Y002181D01*
X006474Y002021D02*
X006474Y002581D01*
X019121Y004475D02*
X019121Y004908D01*
X019121Y004475D02*
X019279Y004317D01*
X019909Y004317D01*
X020066Y004475D01*
X020066Y004908D01*
X020066Y005695D02*
X020066Y006286D01*
X019121Y006286D01*
X019121Y005695D01*
X019378Y002576D02*
X019378Y002418D01*
X019890Y002418D01*
X019890Y001867D01*
X019378Y001867D02*
X019378Y002418D01*
X019890Y002418D02*
X019890Y002576D01*
D13*
X019229Y002504D02*
X019229Y002454D01*
X019204Y002429D01*
X019204Y002382D02*
X019104Y002382D01*
X019079Y002357D01*
X019079Y002282D01*
X019229Y002282D01*
X019229Y002357D01*
X019204Y002382D01*
X019154Y002479D02*
X019154Y002504D01*
X019129Y002529D01*
X019104Y002529D01*
X019079Y002504D01*
X019079Y002454D01*
X019104Y002429D01*
X019154Y002504D02*
X019179Y002529D01*
X019204Y002529D01*
X019229Y002504D01*
X017101Y002416D02*
X017051Y002467D01*
X017051Y002316D01*
X017101Y002316D02*
X017001Y002316D01*
X016954Y002341D02*
X016854Y002441D01*
X016854Y002341D01*
X016879Y002316D01*
X016929Y002316D01*
X016954Y002341D01*
X016954Y002441D01*
X016929Y002467D01*
X016879Y002467D01*
X016854Y002441D01*
X016806Y002467D02*
X016806Y002316D01*
X016806Y002366D02*
X016731Y002416D01*
X016806Y002366D02*
X016731Y002316D01*
X016831Y001742D02*
X016881Y001742D01*
X016906Y001716D01*
X016906Y001691D01*
X016881Y001666D01*
X016806Y001666D01*
X016806Y001616D02*
X016806Y001716D01*
X016831Y001742D01*
X016953Y001716D02*
X016953Y001666D01*
X016978Y001641D01*
X017053Y001641D01*
X017053Y001591D02*
X017053Y001742D01*
X016978Y001742D01*
X016953Y001716D01*
X017003Y001641D02*
X016953Y001591D01*
X016906Y001616D02*
X016881Y001591D01*
X016831Y001591D01*
X016806Y001616D01*
X016806Y003491D02*
X016906Y003491D01*
X016806Y003591D01*
X016806Y003616D01*
X016831Y003642D01*
X016881Y003642D01*
X016906Y003616D01*
X016953Y003616D02*
X016953Y003566D01*
X016978Y003541D01*
X017053Y003541D01*
X017053Y003491D02*
X017053Y003642D01*
X016978Y003642D01*
X016953Y003616D01*
X017003Y003541D02*
X016953Y003491D01*
X017311Y004196D02*
X017386Y004246D01*
X017311Y004296D01*
X017386Y004347D02*
X017386Y004196D01*
X017434Y004196D02*
X017534Y004196D01*
X017484Y004196D02*
X017484Y004347D01*
X017534Y004296D01*
X016954Y004316D02*
X016904Y004367D01*
X016904Y004216D01*
X016954Y004216D02*
X016854Y004216D01*
X016806Y004216D02*
X016806Y004367D01*
X016731Y004316D02*
X016806Y004266D01*
X016731Y004216D01*
X017236Y004921D02*
X017236Y005072D01*
X017311Y004996D01*
X017211Y004996D01*
X017359Y004996D02*
X017359Y005046D01*
X017384Y005072D01*
X017459Y005072D01*
X017459Y004921D01*
X017459Y004971D02*
X017384Y004971D01*
X017359Y004996D01*
X017409Y004971D02*
X017359Y004921D01*
X018914Y004876D02*
X018914Y004951D01*
X019014Y004951D01*
X018989Y004998D02*
X018989Y005049D01*
X019064Y004998D02*
X019064Y005099D01*
X019064Y004998D02*
X018914Y004998D01*
X018914Y004876D02*
X018939Y004851D01*
X019014Y004851D01*
X019039Y004804D02*
X018939Y004704D01*
X018914Y004729D01*
X018914Y004779D01*
X018939Y004804D01*
X019039Y004804D01*
X019064Y004779D01*
X019064Y004729D01*
X019039Y004704D01*
X018939Y004704D01*
X018939Y004657D02*
X018914Y004632D01*
X018914Y004581D01*
X018939Y004556D01*
X019039Y004657D01*
X018939Y004657D01*
X019039Y004657D02*
X019064Y004632D01*
X019064Y004581D01*
X019039Y004556D01*
X018939Y004556D01*
X018914Y004509D02*
X018914Y004409D01*
X018914Y004459D02*
X019064Y004459D01*
X019014Y004409D01*
X019020Y006012D02*
X018920Y006012D01*
X018895Y006037D01*
X018895Y006087D01*
X018920Y006112D01*
X018895Y006159D02*
X018895Y006259D01*
X018895Y006209D02*
X019045Y006209D01*
X018995Y006159D01*
X019020Y006112D02*
X019045Y006087D01*
X019045Y006037D01*
X019020Y006012D01*
X017534Y005996D02*
X017434Y005996D01*
X017484Y005996D02*
X017484Y006147D01*
X017534Y006096D01*
X017386Y006121D02*
X017386Y006021D01*
X017286Y006121D01*
X017286Y006021D01*
X017311Y005996D01*
X017361Y005996D01*
X017386Y006021D01*
X017386Y006121D02*
X017361Y006147D01*
X017311Y006147D01*
X017286Y006121D01*
X017239Y006147D02*
X017239Y005996D01*
X017239Y006046D02*
X017164Y006096D01*
X017239Y006046D02*
X017164Y005996D01*
X017236Y006721D02*
X017286Y006721D01*
X017311Y006746D01*
X017359Y006721D02*
X017409Y006771D01*
X017384Y006771D02*
X017459Y006771D01*
X017459Y006721D02*
X017459Y006872D01*
X017384Y006872D01*
X017359Y006846D01*
X017359Y006796D01*
X017384Y006771D01*
X017311Y006846D02*
X017286Y006872D01*
X017236Y006872D01*
X017211Y006846D01*
X017211Y006821D01*
X017236Y006796D01*
X017211Y006771D01*
X017211Y006746D01*
X017236Y006721D01*
X017236Y006796D02*
X017261Y006796D01*
X009765Y003764D02*
X009695Y003693D01*
X009730Y003728D02*
X009624Y003834D01*
X009695Y003834D01*
X009591Y003730D02*
X009573Y003748D01*
X009537Y003748D01*
X009502Y003713D01*
X009502Y003677D01*
X009520Y003659D01*
X009555Y003659D01*
X009591Y003695D01*
X009591Y003730D01*
X009591Y003695D02*
X009626Y003695D01*
X009644Y003677D01*
X009644Y003642D01*
X009608Y003606D01*
X009573Y003606D01*
X009555Y003624D01*
X009555Y003659D01*
X009486Y003626D02*
X009433Y003573D01*
X009433Y003538D01*
X009469Y003502D01*
X009504Y003502D01*
X009557Y003555D01*
X009593Y003520D02*
X009486Y003626D01*
X009400Y003504D02*
X009365Y003469D01*
X009453Y003451D02*
X009347Y003557D01*
X009276Y003486D01*
X009043Y004066D02*
X009007Y004066D01*
X008936Y004137D01*
X008936Y004172D01*
X008972Y004208D01*
X009007Y004208D01*
X009025Y004190D01*
X009025Y004154D01*
X008972Y004101D01*
X009043Y004066D02*
X009078Y004101D01*
X009078Y004137D01*
X009111Y004170D02*
X009147Y004170D01*
X009182Y004206D01*
X009182Y004241D01*
X009111Y004312D01*
X009076Y004312D01*
X009041Y004276D01*
X009041Y004241D01*
X011081Y002659D02*
X011116Y002659D01*
X011151Y002624D01*
X011151Y002588D01*
X011081Y002518D01*
X011045Y002518D01*
X011010Y002553D01*
X011010Y002588D01*
X011114Y002484D02*
X011114Y002449D01*
X011149Y002413D01*
X011185Y002413D01*
X011218Y002380D02*
X011289Y002451D01*
X011324Y002451D01*
X011360Y002415D01*
X011360Y002380D01*
X011289Y002309D01*
X011253Y002309D01*
X011218Y002345D01*
X011218Y002380D01*
X011202Y002466D02*
X011167Y002502D01*
X011132Y002502D01*
X011114Y002484D01*
X011202Y002466D02*
X011238Y002467D01*
X011255Y002484D01*
X011256Y002520D01*
X011220Y002555D01*
X011185Y002555D01*
X011316Y002093D02*
X011422Y001987D01*
X011387Y001952D02*
X011458Y002023D01*
X011387Y002093D02*
X011316Y002093D01*
X011265Y002007D02*
X011230Y002007D01*
X011194Y001971D01*
X011194Y001936D01*
X011212Y001918D01*
X011248Y001918D01*
X011283Y001954D01*
X011283Y001989D01*
X011265Y002007D01*
X011283Y001954D02*
X011318Y001954D01*
X011336Y001936D01*
X011336Y001901D01*
X011301Y001865D01*
X011265Y001865D01*
X011248Y001883D01*
X011248Y001918D01*
X011179Y001885D02*
X011126Y001832D01*
X011126Y001797D01*
X011161Y001761D01*
X011196Y001761D01*
X011250Y001814D01*
X011285Y001779D02*
X011179Y001885D01*
X011092Y001763D02*
X011057Y001728D01*
X011145Y001710D02*
X011039Y001816D01*
X010969Y001745D01*
X011656Y001408D02*
X011691Y001443D01*
X011727Y001443D01*
X011797Y001372D01*
X011797Y001337D01*
X011762Y001302D01*
X011727Y001301D01*
X011693Y001268D02*
X011676Y001286D01*
X011640Y001286D01*
X011605Y001250D01*
X011605Y001215D01*
X011623Y001197D01*
X011658Y001197D01*
X011693Y001233D01*
X011693Y001268D01*
X011640Y001286D02*
X011640Y001321D01*
X011623Y001339D01*
X011587Y001339D01*
X011552Y001304D01*
X011552Y001268D01*
X011569Y001250D01*
X011605Y001250D01*
X011656Y001372D02*
X011656Y001408D01*
X010122Y001178D02*
X010087Y001213D01*
X010051Y001213D01*
X010034Y001196D01*
X010034Y001160D01*
X010069Y001125D01*
X010105Y001125D01*
X010122Y001143D01*
X010122Y001178D01*
X010069Y001125D02*
X010069Y001090D01*
X010051Y001072D01*
X010016Y001072D01*
X009981Y001107D01*
X009981Y001143D01*
X009998Y001160D01*
X010034Y001160D01*
X009930Y001158D02*
X010036Y001264D01*
X009965Y001264D01*
X009965Y001335D01*
X009859Y001229D01*
X009825Y001262D02*
X009932Y001369D01*
X009879Y001316D02*
X009808Y001386D01*
X009792Y001437D02*
X009721Y001508D01*
X009721Y001367D01*
X009651Y001437D01*
X009755Y001333D02*
X009861Y001439D01*
M02*
