%
M48
M72
T01C0.0118
T02C0.0197
T03C0.0236
T04C0.0354
T05C0.0394
T06C0.0400
%
T01
X1994Y1541
X1274Y1701
X1354Y2421
X3434Y2421
X4474Y2261
X4794Y2261
X7994Y2661
X8474Y3381
X8474Y3701
X7994Y4341
X9514Y5221
X9914Y5701
X7994Y5781
X5994Y5141
X5674Y4661
X5994Y3701
X3434Y5221
X3434Y5941
X4394Y6501
X2474Y7141
X1354Y5941
X1354Y5061
X1354Y3461
X9034Y1541
X10154Y2661
X9754Y2821
X11994Y2821
X12474Y3301
X11434Y4021
X11914Y4341
X12794Y4661
X13194Y4501
X12314Y4981
X11754Y5141
X12874Y6501
X14394Y6981
X17354Y5941
X16714Y5621
X17034Y5061
X17594Y4581
X18794Y4261
X18794Y3781
X17434Y2741
X16634Y2021
X17834Y1541
X18474Y1461
X19114Y1461
X19754Y1461
X15594Y1221
X15434Y2981
X15434Y3301
X15754Y3781
X14714Y3861
X15754Y4581
X15354Y4981
X15354Y5301
X14714Y4901
X18714Y6661
X11194Y6901
T02
X4954Y6501
T03
X5594Y6501
X4234Y4901
X7194Y3221
X11194Y3621
X11994Y5541
X16794Y3381
X17354Y3381
X19274Y4021
T04
X2474Y3315
X2474Y5048
T05
X16114Y5541
X18114Y5541
X18114Y2981
X16114Y2981
T06
X974Y681
X1974Y681
X2974Y681
X3974Y681
X4974Y681
X5974Y681
X6974Y681
X7974Y681
X8974Y681
X9974Y681
X10974Y681
X11974Y681
X12974Y681
X13974Y681
X14974Y681
X15974Y681
X16974Y681
X17974Y681
X18974Y681
X19974Y681
X19974Y7601
X18974Y7601
X17974Y7601
X16974Y7601
X15974Y7601
X14974Y7601
X13974Y7601
X12974Y7601
X11974Y7601
X10974Y7601
X9974Y7601
X8974Y7601
X7974Y7601
X6974Y7601
X5974Y7601
X4974Y7601
X3974Y7601
X2974Y7601
X1974Y7601
X974Y7601
M30
