G75*
G70*
%OFA0B0*%
%FSLAX24Y24*%
%IPPOS*%
%LPD*%
%AMOC8*
5,1,8,0,0,1.08239X$1,22.5*
%
%ADD10C,0.0040*%
%ADD11C,0.0010*%
%ADD12C,0.0080*%
%ADD13C,0.0060*%
%ADD14C,0.0100*%
%ADD15C,0.0050*%
D10*
X000814Y001401D02*
X001121Y001401D01*
X000967Y001401D02*
X000967Y001862D01*
X000814Y001708D01*
X002814Y001785D02*
X002890Y001862D01*
X003044Y001862D01*
X003121Y001785D01*
X003121Y001708D01*
X003044Y001632D01*
X003121Y001555D01*
X003121Y001478D01*
X003044Y001401D01*
X002890Y001401D01*
X002814Y001478D01*
X002967Y001632D02*
X003044Y001632D01*
X003854Y001632D02*
X004161Y001632D01*
X004084Y001862D02*
X003854Y001632D01*
X004084Y001401D02*
X004084Y001862D01*
X004814Y001862D02*
X004814Y001632D01*
X004967Y001708D01*
X005044Y001708D01*
X005121Y001632D01*
X005121Y001478D01*
X005044Y001401D01*
X004890Y001401D01*
X004814Y001478D01*
X004814Y001862D02*
X005121Y001862D01*
X005854Y001632D02*
X005854Y001478D01*
X005930Y001401D01*
X006084Y001401D01*
X006161Y001478D01*
X006161Y001555D01*
X006084Y001632D01*
X005854Y001632D01*
X006007Y001785D01*
X006161Y001862D01*
X006814Y001862D02*
X007121Y001862D01*
X007121Y001785D01*
X006814Y001478D01*
X006814Y001401D01*
X007854Y001478D02*
X007854Y001555D01*
X007930Y001632D01*
X008084Y001632D01*
X008161Y001555D01*
X008161Y001478D01*
X008084Y001401D01*
X007930Y001401D01*
X007854Y001478D01*
X007930Y001632D02*
X007854Y001708D01*
X007854Y001785D01*
X007930Y001862D01*
X008084Y001862D01*
X008161Y001785D01*
X008161Y001708D01*
X008084Y001632D01*
X010574Y001708D02*
X010727Y001862D01*
X010727Y001401D01*
X010574Y001401D02*
X010881Y001401D01*
X011034Y001401D02*
X011341Y001401D01*
X011187Y001401D02*
X011187Y001862D01*
X011034Y001708D01*
X011534Y001708D02*
X011687Y001862D01*
X011687Y001401D01*
X011534Y001401D02*
X011841Y001401D01*
X011994Y001401D02*
X012301Y001708D01*
X012301Y001785D01*
X012224Y001862D01*
X012071Y001862D01*
X011994Y001785D01*
X012494Y001708D02*
X012647Y001862D01*
X012647Y001401D01*
X012494Y001401D02*
X012801Y001401D01*
X012954Y001478D02*
X013031Y001401D01*
X013184Y001401D01*
X013261Y001478D01*
X013261Y001555D01*
X013184Y001632D01*
X013107Y001632D01*
X013184Y001632D02*
X013261Y001708D01*
X013261Y001785D01*
X013184Y001862D01*
X013031Y001862D01*
X012954Y001785D01*
X013614Y001708D02*
X013767Y001862D01*
X013767Y001401D01*
X013614Y001401D02*
X013921Y001401D01*
X014074Y001632D02*
X014381Y001632D01*
X014304Y001862D02*
X014304Y001401D01*
X014074Y001632D02*
X014304Y001862D01*
X015133Y002001D02*
X015133Y002232D01*
X015210Y002308D01*
X015287Y002308D01*
X015364Y002232D01*
X015364Y002001D01*
X015594Y002001D02*
X015133Y002001D01*
X015594Y002001D02*
X015594Y002232D01*
X015517Y002308D01*
X015440Y002308D01*
X015364Y002232D01*
X015517Y002462D02*
X015133Y002462D01*
X015517Y002462D02*
X015594Y002538D01*
X015594Y002692D01*
X015517Y002769D01*
X015133Y002769D01*
X015133Y002922D02*
X015133Y003229D01*
X015133Y003076D02*
X015594Y003076D01*
X013439Y003994D02*
X013384Y003940D01*
X013276Y003940D01*
X013113Y004103D01*
X013276Y004265D02*
X012950Y003940D01*
X013113Y003777D01*
X013222Y003777D01*
X013276Y003831D01*
X013276Y003940D01*
X013439Y003994D02*
X013439Y004103D01*
X013276Y004265D01*
X013113Y004320D02*
X013113Y004428D01*
X013005Y004537D01*
X012896Y004537D01*
X012679Y004320D01*
X012679Y004211D01*
X012788Y004103D01*
X012896Y004103D01*
X012571Y004428D02*
X012462Y004428D01*
X012354Y004537D01*
X012354Y004645D01*
X012245Y004754D02*
X012137Y004754D01*
X012028Y004862D01*
X012028Y004971D01*
X012462Y004971D01*
X012245Y004754D01*
X012571Y004862D02*
X012679Y004862D01*
X012788Y004754D01*
X012788Y004645D01*
X012733Y004591D01*
X012625Y004591D01*
X012625Y004482D01*
X012571Y004428D01*
X012625Y004591D02*
X012571Y004645D01*
X012462Y004971D02*
X012462Y005079D01*
X012354Y005188D01*
X012245Y005188D01*
X012028Y004971D01*
X011865Y005025D02*
X011648Y005242D01*
X011757Y005134D02*
X012082Y005459D01*
X011865Y005459D01*
X011264Y006441D02*
X011111Y006441D01*
X011034Y006518D01*
X011341Y006825D01*
X011341Y006518D01*
X011264Y006441D01*
X011034Y006518D02*
X011034Y006825D01*
X011111Y006902D01*
X011264Y006902D01*
X011341Y006825D01*
X010881Y006825D02*
X010881Y006748D01*
X010804Y006672D01*
X010881Y006595D01*
X010881Y006518D01*
X010804Y006441D01*
X010650Y006441D01*
X010574Y006518D01*
X010381Y006441D02*
X010074Y006441D01*
X010227Y006441D02*
X010227Y006902D01*
X010074Y006748D01*
X009921Y006748D02*
X009844Y006672D01*
X009921Y006595D01*
X009921Y006518D01*
X009844Y006441D01*
X009690Y006441D01*
X009614Y006518D01*
X009767Y006672D02*
X009844Y006672D01*
X009921Y006748D02*
X009921Y006825D01*
X009844Y006902D01*
X009690Y006902D01*
X009614Y006825D01*
X009341Y006825D02*
X009341Y006748D01*
X009034Y006441D01*
X009341Y006441D01*
X008881Y006518D02*
X008804Y006441D01*
X008650Y006441D01*
X008574Y006518D01*
X008381Y006518D02*
X008304Y006441D01*
X008151Y006441D01*
X008074Y006518D01*
X007921Y006518D02*
X007844Y006441D01*
X007690Y006441D01*
X007614Y006518D01*
X007767Y006672D02*
X007844Y006672D01*
X007921Y006595D01*
X007921Y006518D01*
X007844Y006672D02*
X007921Y006748D01*
X007921Y006825D01*
X007844Y006902D01*
X007690Y006902D01*
X007614Y006825D01*
X007341Y006672D02*
X007034Y006672D01*
X007264Y006902D01*
X007264Y006441D01*
X006881Y006518D02*
X006804Y006441D01*
X006650Y006441D01*
X006574Y006518D01*
X006727Y006672D02*
X006804Y006672D01*
X006881Y006595D01*
X006881Y006518D01*
X006804Y006672D02*
X006881Y006748D01*
X006881Y006825D01*
X006804Y006902D01*
X006650Y006902D01*
X006574Y006825D01*
X008074Y006825D02*
X008151Y006902D01*
X008304Y006902D01*
X008381Y006825D01*
X008381Y006748D01*
X008304Y006672D01*
X008381Y006595D01*
X008381Y006518D01*
X008304Y006672D02*
X008227Y006672D01*
X008574Y006825D02*
X008650Y006902D01*
X008804Y006902D01*
X008881Y006825D01*
X008881Y006748D01*
X008804Y006672D01*
X008881Y006595D01*
X008881Y006518D01*
X008804Y006672D02*
X008727Y006672D01*
X009034Y006825D02*
X009111Y006902D01*
X009264Y006902D01*
X009341Y006825D01*
X010574Y006825D02*
X010650Y006902D01*
X010804Y006902D01*
X010881Y006825D01*
X010804Y006672D02*
X010727Y006672D01*
X013614Y006825D02*
X013690Y006902D01*
X013844Y006902D01*
X013921Y006825D01*
X013921Y006748D01*
X013614Y006441D01*
X013921Y006441D01*
X014074Y006441D02*
X014074Y006518D01*
X014381Y006825D01*
X014381Y006902D01*
X014074Y006902D01*
X014574Y006825D02*
X014650Y006902D01*
X014804Y006902D01*
X014881Y006825D01*
X014881Y006748D01*
X014574Y006441D01*
X014881Y006441D01*
X015034Y006518D02*
X015111Y006441D01*
X015264Y006441D01*
X015341Y006518D01*
X015341Y006595D01*
X015264Y006672D01*
X015034Y006672D01*
X015034Y006518D01*
X015034Y006672D02*
X015187Y006825D01*
X015341Y006902D01*
X015133Y005789D02*
X015133Y005482D01*
X015210Y005329D02*
X015133Y005252D01*
X015133Y005098D01*
X015210Y005022D01*
X015287Y005022D01*
X015364Y005098D01*
X015364Y005252D01*
X015440Y005329D01*
X015517Y005329D01*
X015594Y005252D01*
X015594Y005098D01*
X015517Y005022D01*
X015594Y004868D02*
X015440Y004715D01*
X015440Y004792D02*
X015440Y004561D01*
X015594Y004561D02*
X015133Y004561D01*
X015133Y004792D01*
X015210Y004868D01*
X015364Y004868D01*
X015440Y004792D01*
X015594Y005636D02*
X015133Y005636D01*
X019113Y008371D02*
X019113Y008832D01*
X019266Y008678D01*
X019419Y008832D01*
X019419Y008371D01*
X019573Y008371D02*
X019880Y008678D01*
X019880Y008755D01*
X019803Y008832D01*
X019650Y008832D01*
X019573Y008755D01*
X020033Y008755D02*
X020110Y008832D01*
X020263Y008832D01*
X020340Y008755D01*
X020033Y008448D01*
X020110Y008371D01*
X020263Y008371D01*
X020340Y008448D01*
X020340Y008755D01*
X020033Y008755D02*
X020033Y008448D01*
X019880Y008371D02*
X019573Y008371D01*
X004381Y006902D02*
X004381Y006825D01*
X004074Y006518D01*
X004074Y006441D01*
X003921Y006518D02*
X003844Y006441D01*
X003690Y006441D01*
X003614Y006518D01*
X003767Y006672D02*
X003844Y006672D01*
X003921Y006595D01*
X003921Y006518D01*
X003844Y006672D02*
X003921Y006748D01*
X003921Y006825D01*
X003844Y006902D01*
X003690Y006902D01*
X003614Y006825D01*
X003341Y006825D02*
X003341Y006748D01*
X003264Y006672D01*
X003111Y006672D01*
X003034Y006748D01*
X003034Y006825D01*
X003111Y006902D01*
X003264Y006902D01*
X003341Y006825D01*
X003264Y006672D02*
X003341Y006595D01*
X003341Y006518D01*
X003264Y006441D01*
X003111Y006441D01*
X003034Y006518D01*
X003034Y006595D01*
X003111Y006672D01*
X002881Y006748D02*
X002804Y006672D01*
X002881Y006595D01*
X002881Y006518D01*
X002804Y006441D01*
X002650Y006441D01*
X002574Y006518D01*
X002381Y006518D02*
X002304Y006441D01*
X002151Y006441D01*
X002074Y006518D01*
X001921Y006518D02*
X001844Y006441D01*
X001690Y006441D01*
X001614Y006518D01*
X001767Y006672D02*
X001844Y006672D01*
X001921Y006595D01*
X001921Y006518D01*
X001844Y006672D02*
X001921Y006748D01*
X001921Y006825D01*
X001844Y006902D01*
X001690Y006902D01*
X001614Y006825D01*
X001341Y006825D02*
X001264Y006902D01*
X001111Y006902D01*
X001034Y006825D01*
X001034Y006518D01*
X001341Y006825D01*
X001341Y006518D01*
X001264Y006441D01*
X001111Y006441D01*
X001034Y006518D01*
X000881Y006672D02*
X000574Y006672D01*
X000804Y006902D01*
X000804Y006441D01*
X002074Y006748D02*
X002151Y006672D01*
X002381Y006672D01*
X002381Y006825D02*
X002381Y006518D01*
X002727Y006672D02*
X002804Y006672D01*
X002881Y006748D02*
X002881Y006825D01*
X002804Y006902D01*
X002650Y006902D01*
X002574Y006825D01*
X002381Y006825D02*
X002304Y006902D01*
X002151Y006902D01*
X002074Y006825D01*
X002074Y006748D01*
X004074Y006902D02*
X004381Y006902D01*
X011994Y001401D02*
X012301Y001401D01*
D11*
X014052Y001795D02*
X014158Y001901D01*
X014211Y001848D01*
X014211Y001812D01*
X014176Y001777D01*
X014141Y001777D01*
X014088Y001830D01*
X014123Y001795D02*
X014123Y001724D01*
X014156Y001690D02*
X014227Y001620D01*
X014192Y001655D02*
X014298Y001761D01*
X014227Y001761D01*
X014792Y002080D02*
X014775Y002168D01*
X014863Y002150D01*
X014846Y002239D02*
X014739Y002133D01*
X014706Y002166D02*
X014635Y002237D01*
X014671Y002201D02*
X014777Y002308D01*
X014706Y002308D01*
X014949Y001972D02*
X015024Y001972D01*
X015049Y001946D01*
X015049Y001846D01*
X015024Y001821D01*
X014949Y001821D01*
X014949Y001972D01*
X015096Y001921D02*
X015146Y001972D01*
X015146Y001821D01*
X015096Y001821D02*
X015196Y001821D01*
X015071Y001272D02*
X015071Y001121D01*
X015046Y001121D02*
X015096Y001121D01*
X015144Y001146D02*
X015169Y001121D01*
X015244Y001121D01*
X015244Y001221D01*
X015292Y001196D02*
X015317Y001221D01*
X015367Y001221D01*
X015392Y001196D01*
X015392Y001171D01*
X015292Y001171D01*
X015292Y001146D02*
X015292Y001196D01*
X015292Y001146D02*
X015317Y001121D01*
X015367Y001121D01*
X015144Y001146D02*
X015144Y001221D01*
X015071Y001272D02*
X015046Y001272D01*
X014999Y001246D02*
X014999Y001221D01*
X014974Y001196D01*
X014899Y001196D01*
X014899Y001121D02*
X014899Y001272D01*
X014974Y001272D01*
X014999Y001246D01*
X014974Y001196D02*
X014999Y001171D01*
X014999Y001146D01*
X014974Y001121D01*
X014899Y001121D01*
X018899Y002911D02*
X018899Y003062D01*
X018949Y003011D01*
X018999Y003062D01*
X018999Y002911D01*
X019046Y002936D02*
X019071Y002911D01*
X019121Y002911D01*
X019146Y002936D01*
X019193Y002911D02*
X019193Y003062D01*
X019268Y003062D01*
X019293Y003036D01*
X019293Y002986D01*
X019268Y002961D01*
X019193Y002961D01*
X019146Y003036D02*
X019121Y003062D01*
X019071Y003062D01*
X019046Y003036D01*
X019046Y002936D01*
X019341Y002911D02*
X019441Y002911D01*
X019488Y002911D02*
X019488Y002936D01*
X019588Y003036D01*
X019588Y003062D01*
X019488Y003062D01*
X019391Y003062D02*
X019391Y002911D01*
X019341Y003011D02*
X019391Y003062D01*
X019635Y003036D02*
X019635Y002936D01*
X019735Y003036D01*
X019735Y002936D01*
X019710Y002911D01*
X019660Y002911D01*
X019635Y002936D01*
X019635Y003036D02*
X019660Y003062D01*
X019710Y003062D01*
X019735Y003036D01*
X019783Y003036D02*
X019808Y003062D01*
X019858Y003062D01*
X019883Y003036D01*
X019883Y003011D01*
X019858Y002986D01*
X019883Y002961D01*
X019883Y002936D01*
X019858Y002911D01*
X019808Y002911D01*
X019783Y002936D01*
X019833Y002986D02*
X019858Y002986D01*
X019930Y003062D02*
X020030Y003062D01*
X019980Y003062D02*
X019980Y002911D01*
X019651Y002547D02*
X019551Y002547D01*
X019551Y002396D01*
X019504Y002396D02*
X019504Y002496D01*
X019551Y002471D02*
X019601Y002471D01*
X019504Y002396D02*
X019429Y002396D01*
X019404Y002421D01*
X019404Y002496D01*
X019357Y002521D02*
X019257Y002421D01*
X019282Y002396D01*
X019332Y002396D01*
X019357Y002421D01*
X019357Y002521D01*
X019332Y002547D01*
X019282Y002547D01*
X019257Y002521D01*
X019257Y002421D01*
X019209Y002396D02*
X019109Y002396D01*
X019159Y002396D02*
X019159Y002547D01*
X019109Y002496D01*
X019329Y001672D02*
X019304Y001646D01*
X019304Y001546D01*
X019329Y001521D01*
X019379Y001521D01*
X019404Y001546D01*
X019451Y001521D02*
X019551Y001621D01*
X019551Y001646D01*
X019526Y001672D01*
X019476Y001672D01*
X019451Y001646D01*
X019404Y001646D02*
X019379Y001672D01*
X019329Y001672D01*
X019451Y001521D02*
X019551Y001521D01*
X014756Y003641D02*
X014720Y003606D01*
X014685Y003606D01*
X014649Y003641D01*
X014649Y003677D01*
X014616Y003710D02*
X014581Y003710D01*
X014545Y003746D01*
X014545Y003781D01*
X014616Y003852D01*
X014651Y003852D01*
X014687Y003816D01*
X014687Y003781D01*
X014738Y003765D02*
X014685Y003712D01*
X014738Y003694D01*
X014756Y003677D01*
X014756Y003641D01*
X014809Y003694D02*
X014738Y003765D01*
X014104Y003374D02*
X013997Y003268D01*
X013962Y003304D02*
X014033Y003233D01*
X014084Y003217D02*
X014084Y003182D01*
X014137Y003129D01*
X014208Y003199D01*
X014223Y003148D02*
X014259Y003113D01*
X014276Y003201D02*
X014347Y003131D01*
X014276Y003201D02*
X014170Y003095D01*
X014084Y003217D02*
X014137Y003270D01*
X014104Y003374D02*
X014033Y003374D01*
X010136Y002207D02*
X010036Y002207D01*
X010036Y002056D01*
X009989Y002056D02*
X009989Y002156D01*
X010036Y002131D02*
X010086Y002131D01*
X009989Y002056D02*
X009914Y002056D01*
X009889Y002081D01*
X009889Y002156D01*
X009792Y002207D02*
X009792Y002056D01*
X009742Y002056D02*
X009842Y002056D01*
X009742Y002156D02*
X009792Y002207D01*
X009839Y001482D02*
X009814Y001456D01*
X009814Y001356D01*
X009839Y001331D01*
X009889Y001331D01*
X009914Y001356D01*
X009961Y001406D02*
X010061Y001406D01*
X010036Y001331D02*
X010036Y001482D01*
X009961Y001406D01*
X009914Y001456D02*
X009889Y001482D01*
X009839Y001482D01*
X007929Y002767D02*
X007904Y002742D01*
X007804Y002742D01*
X007779Y002767D01*
X007779Y002817D01*
X007804Y002842D01*
X007904Y002842D01*
X007929Y002817D01*
X007929Y002767D01*
X007879Y002792D02*
X007929Y002842D01*
X007929Y002889D02*
X007829Y002989D01*
X007804Y002989D01*
X007779Y002964D01*
X007779Y002914D01*
X007804Y002889D01*
X007929Y002889D02*
X007929Y002989D01*
X007054Y002989D02*
X006904Y002989D01*
X006904Y002939D02*
X006904Y003039D01*
X006904Y002892D02*
X006904Y002842D01*
X006904Y002867D02*
X007029Y002867D01*
X007054Y002842D01*
X007054Y002817D01*
X007029Y002792D01*
X007029Y002745D02*
X007054Y002719D01*
X007054Y002644D01*
X006904Y002644D01*
X006904Y002719D01*
X006929Y002745D01*
X006954Y002745D01*
X006979Y002719D01*
X006979Y002644D01*
X006979Y002597D02*
X006979Y002497D01*
X007054Y002450D02*
X006904Y002450D01*
X006904Y002350D02*
X007054Y002450D01*
X007054Y002350D02*
X006904Y002350D01*
X006929Y002303D02*
X006979Y002303D01*
X007004Y002278D01*
X007004Y002202D01*
X007054Y002202D02*
X006904Y002202D01*
X006904Y002278D01*
X006929Y002303D01*
X006904Y002155D02*
X007054Y002155D01*
X006904Y002055D01*
X007054Y002055D01*
X006979Y002719D02*
X007004Y002745D01*
X007029Y002745D01*
X006923Y003236D02*
X006848Y003286D01*
X006923Y003336D01*
X006848Y003387D02*
X006848Y003236D01*
X006801Y003261D02*
X006776Y003236D01*
X006726Y003236D01*
X006701Y003261D01*
X006801Y003361D01*
X006801Y003261D01*
X006701Y003261D02*
X006701Y003361D01*
X006726Y003387D01*
X006776Y003387D01*
X006801Y003361D01*
X006654Y003236D02*
X006554Y003236D01*
X006604Y003236D02*
X006604Y003387D01*
X006554Y003336D01*
X006579Y003816D02*
X006554Y003841D01*
X006579Y003816D02*
X006629Y003816D01*
X006654Y003841D01*
X006654Y003866D01*
X006629Y003891D01*
X006604Y003891D01*
X006629Y003891D02*
X006654Y003916D01*
X006654Y003941D01*
X006629Y003967D01*
X006579Y003967D01*
X006554Y003941D01*
X006629Y003961D02*
X006629Y004112D01*
X006704Y004112D01*
X006729Y004086D01*
X006729Y004036D01*
X006704Y004011D01*
X006629Y004011D01*
X006679Y004011D02*
X006729Y003961D01*
X006751Y003941D02*
X006701Y003891D01*
X006776Y003891D01*
X006801Y003866D01*
X006801Y003841D01*
X006776Y003816D01*
X006726Y003816D01*
X006701Y003841D01*
X006701Y003891D01*
X006751Y003941D02*
X006801Y003967D01*
X006801Y003961D02*
X006776Y003986D01*
X006776Y004011D01*
X006801Y004036D01*
X006851Y004036D01*
X006876Y004011D01*
X006876Y003986D01*
X006851Y003961D01*
X006801Y003961D01*
X006848Y003967D02*
X006848Y003816D01*
X006848Y003866D02*
X006923Y003916D01*
X006848Y003866D02*
X006923Y003816D01*
X006851Y004036D02*
X006876Y004061D01*
X006876Y004086D01*
X006851Y004112D01*
X006801Y004112D01*
X006776Y004086D01*
X006776Y004061D01*
X006801Y004036D01*
X006776Y004541D02*
X006876Y004541D01*
X006904Y004555D02*
X007054Y004655D01*
X006904Y004655D01*
X006923Y004641D02*
X006973Y004692D01*
X006973Y004541D01*
X006923Y004541D02*
X007023Y004541D01*
X007054Y004555D02*
X006904Y004555D01*
X006826Y004541D02*
X006826Y004692D01*
X006776Y004641D01*
X006729Y004616D02*
X006704Y004591D01*
X006629Y004591D01*
X006629Y004541D02*
X006629Y004692D01*
X006704Y004692D01*
X006729Y004666D01*
X006729Y004616D01*
X006679Y004591D02*
X006729Y004541D01*
X006904Y004702D02*
X006904Y004778D01*
X006929Y004803D01*
X006979Y004803D01*
X007004Y004778D01*
X007004Y004702D01*
X007054Y004702D02*
X006904Y004702D01*
X006904Y004850D02*
X007054Y004950D01*
X006904Y004950D01*
X006979Y004997D02*
X006979Y005097D01*
X006979Y005144D02*
X006979Y005219D01*
X007004Y005245D01*
X007029Y005245D01*
X007054Y005219D01*
X007054Y005144D01*
X006904Y005144D01*
X006904Y005219D01*
X006929Y005245D01*
X006954Y005245D01*
X006979Y005219D01*
X007029Y005292D02*
X007054Y005317D01*
X007054Y005342D01*
X007029Y005367D01*
X006904Y005367D01*
X006904Y005342D02*
X006904Y005392D01*
X006904Y005439D02*
X006904Y005539D01*
X006904Y005489D02*
X007054Y005489D01*
X007779Y005439D02*
X007829Y005389D01*
X007804Y005342D02*
X007904Y005342D01*
X007929Y005317D01*
X007929Y005267D01*
X007904Y005242D01*
X007804Y005242D01*
X007779Y005267D01*
X007779Y005317D01*
X007804Y005342D01*
X007879Y005292D02*
X007929Y005342D01*
X007929Y005389D02*
X007929Y005489D01*
X007929Y005439D02*
X007779Y005439D01*
X008389Y005366D02*
X008389Y005266D01*
X008414Y005241D01*
X008464Y005241D01*
X008489Y005266D01*
X008536Y005266D02*
X008636Y005366D01*
X008636Y005392D01*
X008536Y005392D01*
X008489Y005366D02*
X008464Y005392D01*
X008414Y005392D01*
X008389Y005366D01*
X008536Y005266D02*
X008536Y005241D01*
X008647Y005162D02*
X008722Y005162D01*
X008747Y005136D01*
X008747Y005086D01*
X008722Y005061D01*
X008647Y005061D01*
X008647Y005011D02*
X008647Y005162D01*
X008697Y005061D02*
X008747Y005011D01*
X008794Y005011D02*
X008894Y005011D01*
X008941Y005011D02*
X009041Y005111D01*
X009041Y005136D01*
X009016Y005162D01*
X008966Y005162D01*
X008941Y005136D01*
X008844Y005162D02*
X008844Y005011D01*
X008941Y005011D02*
X009041Y005011D01*
X008844Y005162D02*
X008794Y005111D01*
X008794Y005491D02*
X008794Y005642D01*
X008869Y005642D01*
X008894Y005616D01*
X008894Y005566D01*
X008869Y005541D01*
X008794Y005541D01*
X008844Y005541D02*
X008894Y005491D01*
X008941Y005516D02*
X008966Y005491D01*
X009016Y005491D01*
X009041Y005516D01*
X009041Y005566D01*
X009016Y005591D01*
X008991Y005591D01*
X008941Y005566D01*
X008941Y005642D01*
X009041Y005642D01*
X009041Y005736D02*
X009041Y005887D01*
X008994Y005887D02*
X008994Y005861D01*
X008894Y005761D01*
X008894Y005736D01*
X008821Y005736D02*
X008821Y005887D01*
X008746Y005811D01*
X008846Y005811D01*
X008894Y005887D02*
X008994Y005887D01*
X009041Y005786D02*
X009116Y005836D01*
X009041Y005786D02*
X009116Y005736D01*
X009116Y006216D02*
X009041Y006266D01*
X009116Y006316D01*
X009041Y006367D02*
X009041Y006216D01*
X008994Y006216D02*
X008894Y006216D01*
X008944Y006216D02*
X008944Y006367D01*
X008894Y006316D01*
X011694Y006256D02*
X011744Y006307D01*
X011744Y006156D01*
X011694Y006156D02*
X011794Y006156D01*
X011841Y006181D02*
X011866Y006156D01*
X011941Y006156D01*
X011941Y006256D01*
X011988Y006231D02*
X012038Y006231D01*
X011988Y006156D02*
X011988Y006307D01*
X012088Y006307D01*
X011841Y006256D02*
X011841Y006181D01*
X011844Y006881D02*
X011869Y006906D01*
X011844Y006881D02*
X011794Y006881D01*
X011769Y006906D01*
X011769Y007006D01*
X011794Y007032D01*
X011844Y007032D01*
X011869Y007006D01*
X011916Y006956D02*
X011966Y007006D01*
X012016Y007032D01*
X011991Y006956D02*
X011916Y006956D01*
X011916Y006906D01*
X011941Y006881D01*
X011991Y006881D01*
X012016Y006906D01*
X012016Y006931D01*
X011991Y006956D01*
X007054Y004850D02*
X006904Y004850D01*
X008314Y004616D02*
X008364Y004667D01*
X008364Y004516D01*
X008314Y004516D02*
X008414Y004516D01*
X008461Y004541D02*
X008486Y004516D01*
X008561Y004516D01*
X008561Y004616D01*
X008608Y004591D02*
X008658Y004591D01*
X008608Y004516D02*
X008608Y004667D01*
X008708Y004667D01*
X008461Y004616D02*
X008461Y004541D01*
X005356Y004576D02*
X005256Y004476D01*
X005356Y004476D01*
X005356Y004576D02*
X005356Y004601D01*
X005331Y004627D01*
X005281Y004627D01*
X005256Y004601D01*
X005209Y004601D02*
X005184Y004627D01*
X005134Y004627D01*
X005109Y004601D01*
X005209Y004601D02*
X005209Y004576D01*
X005109Y004476D01*
X005209Y004476D01*
X005231Y004376D02*
X005281Y004402D01*
X005231Y004376D02*
X005181Y004326D01*
X005256Y004326D01*
X005281Y004301D01*
X005281Y004276D01*
X005256Y004251D01*
X005206Y004251D01*
X005181Y004276D01*
X005181Y004326D01*
X005134Y004326D02*
X005109Y004301D01*
X005034Y004301D01*
X005034Y004251D02*
X005034Y004402D01*
X005109Y004402D01*
X005134Y004376D01*
X005134Y004326D01*
X005084Y004301D02*
X005134Y004251D01*
X004973Y004112D02*
X004973Y003961D01*
X004923Y003961D02*
X005023Y003961D01*
X005034Y003902D02*
X005109Y003902D01*
X005134Y003876D01*
X005134Y003826D01*
X005109Y003801D01*
X005034Y003801D01*
X005034Y003751D02*
X005034Y003902D01*
X005084Y003801D02*
X005134Y003751D01*
X005181Y003751D02*
X005181Y003776D01*
X005281Y003876D01*
X005281Y003902D01*
X005181Y003902D01*
X004876Y003961D02*
X004776Y003961D01*
X004826Y003961D02*
X004826Y004112D01*
X004776Y004061D01*
X004729Y004086D02*
X004704Y004112D01*
X004654Y004112D01*
X004629Y004086D01*
X004629Y003986D01*
X004654Y003961D01*
X004704Y003961D01*
X004729Y003986D01*
X004923Y004061D02*
X004973Y004112D01*
X004963Y003627D02*
X004963Y003476D01*
X004913Y003476D02*
X005013Y003476D01*
X005060Y003476D02*
X005085Y003476D01*
X005085Y003501D01*
X005060Y003501D01*
X005060Y003476D01*
X005134Y003501D02*
X005159Y003476D01*
X005209Y003476D01*
X005234Y003501D01*
X005234Y003551D01*
X005209Y003576D01*
X005184Y003576D01*
X005134Y003551D01*
X005134Y003627D01*
X005234Y003627D01*
X005281Y003627D02*
X005281Y003476D01*
X005281Y003526D02*
X005356Y003476D01*
X005281Y003526D02*
X005356Y003576D01*
X004963Y003627D02*
X004913Y003576D01*
X004996Y003387D02*
X005096Y003387D01*
X005046Y003311D02*
X004996Y003311D01*
X004948Y003311D02*
X004948Y003261D01*
X004923Y003236D01*
X004848Y003236D01*
X004848Y003186D02*
X004848Y003336D01*
X004923Y003336D01*
X004948Y003311D01*
X004996Y003236D02*
X004996Y003387D01*
X004801Y003387D02*
X004801Y003361D01*
X004701Y003261D01*
X004701Y003236D01*
X004629Y003236D02*
X004629Y003387D01*
X004554Y003311D01*
X004654Y003311D01*
X004701Y003387D02*
X004801Y003387D01*
X004887Y002902D02*
X004962Y002902D01*
X004987Y002876D01*
X004987Y002826D01*
X004962Y002801D01*
X004887Y002801D01*
X004887Y002751D02*
X004887Y002902D01*
X004937Y002801D02*
X004987Y002751D01*
X005034Y002751D02*
X005134Y002751D01*
X005084Y002751D02*
X005084Y002902D01*
X005034Y002851D01*
X005181Y002876D02*
X005206Y002902D01*
X005256Y002902D01*
X005281Y002876D01*
X005181Y002776D01*
X005206Y002751D01*
X005256Y002751D01*
X005281Y002776D01*
X005281Y002876D01*
X005181Y002876D02*
X005181Y002776D01*
X002159Y004211D02*
X002134Y004186D01*
X002059Y004186D01*
X002059Y004337D01*
X002134Y004337D01*
X002159Y004311D01*
X002159Y004286D01*
X002134Y004261D01*
X002059Y004261D01*
X002134Y004261D02*
X002159Y004236D01*
X002159Y004211D01*
X002011Y004186D02*
X001961Y004186D01*
X001986Y004186D02*
X001986Y004337D01*
X001961Y004337D02*
X002011Y004337D01*
X001914Y004337D02*
X001914Y004186D01*
X001814Y004337D01*
X001814Y004186D01*
X001765Y004186D02*
X001715Y004186D01*
X001740Y004186D02*
X001740Y004337D01*
X001715Y004337D02*
X001765Y004337D01*
X001668Y004337D02*
X001668Y004186D01*
X001568Y004186D02*
X001568Y004337D01*
X001618Y004286D01*
X001668Y004337D01*
X001521Y004261D02*
X001421Y004261D01*
X001373Y004236D02*
X001373Y004211D01*
X001348Y004186D01*
X001273Y004186D01*
X001273Y004337D01*
X001348Y004337D01*
X001373Y004311D01*
X001373Y004286D01*
X001348Y004261D01*
X001273Y004261D01*
X001226Y004236D02*
X001226Y004211D01*
X001201Y004186D01*
X001151Y004186D01*
X001126Y004211D01*
X001079Y004211D02*
X001079Y004337D01*
X001126Y004311D02*
X001126Y004286D01*
X001151Y004261D01*
X001201Y004261D01*
X001226Y004236D01*
X001226Y004311D02*
X001201Y004337D01*
X001151Y004337D01*
X001126Y004311D01*
X000979Y004337D02*
X000979Y004211D01*
X001004Y004186D01*
X001054Y004186D01*
X001079Y004211D01*
X001348Y004261D02*
X001373Y004236D01*
X001226Y004686D02*
X001126Y004686D01*
X001079Y004686D02*
X000979Y004837D01*
X001079Y004837D02*
X000979Y004686D01*
X001126Y004786D02*
X001176Y004837D01*
X001176Y004686D01*
X004554Y004811D02*
X004654Y004811D01*
X004701Y004761D02*
X004701Y004736D01*
X004701Y004761D02*
X004801Y004861D01*
X004801Y004887D01*
X004701Y004887D01*
X004629Y004887D02*
X004554Y004811D01*
X004629Y004736D02*
X004629Y004887D01*
X004848Y004836D02*
X004923Y004836D01*
X004948Y004811D01*
X004948Y004761D01*
X004923Y004736D01*
X004848Y004736D01*
X004848Y004686D02*
X004848Y004836D01*
X004996Y004811D02*
X005046Y004811D01*
X004996Y004736D02*
X004996Y004887D01*
X005096Y004887D01*
X005109Y004976D02*
X005209Y005076D01*
X005209Y005101D01*
X005184Y005127D01*
X005134Y005127D01*
X005109Y005101D01*
X005109Y004976D02*
X005209Y004976D01*
X005256Y004976D02*
X005356Y005076D01*
X005356Y005101D01*
X005331Y005127D01*
X005281Y005127D01*
X005256Y005101D01*
X005256Y004976D02*
X005356Y004976D01*
X005301Y005306D02*
X005201Y005306D01*
X005301Y005406D01*
X005301Y005431D01*
X005276Y005457D01*
X005226Y005457D01*
X005201Y005431D01*
X005154Y005431D02*
X005129Y005457D01*
X005054Y005457D01*
X005054Y005306D01*
X005129Y005306D01*
X005154Y005331D01*
X005154Y005431D01*
X005023Y005486D02*
X004998Y005461D01*
X004948Y005461D01*
X004923Y005486D01*
X005023Y005586D01*
X005023Y005486D01*
X004923Y005486D02*
X004923Y005586D01*
X004948Y005612D01*
X004998Y005612D01*
X005023Y005586D01*
X004876Y005461D02*
X004776Y005461D01*
X004826Y005461D02*
X004826Y005612D01*
X004776Y005561D01*
X004729Y005586D02*
X004704Y005612D01*
X004654Y005612D01*
X004629Y005586D01*
X004629Y005486D01*
X004654Y005461D01*
X004704Y005461D01*
X004729Y005486D01*
X018127Y007011D02*
X018177Y007011D01*
X018225Y007011D02*
X018250Y007036D01*
X018300Y007036D01*
X018326Y007011D01*
X018326Y006986D01*
X018225Y006986D01*
X018225Y006961D02*
X018225Y007011D01*
X018225Y006961D02*
X018250Y006936D01*
X018300Y006936D01*
X018373Y006936D02*
X018373Y007036D01*
X018373Y006986D02*
X018423Y007036D01*
X018448Y007036D01*
X018496Y007036D02*
X018496Y006936D01*
X018496Y006986D02*
X018546Y007036D01*
X018571Y007036D01*
X018618Y007036D02*
X018643Y007036D01*
X018643Y006936D01*
X018618Y006936D02*
X018668Y006936D01*
X018741Y006961D02*
X018766Y006936D01*
X018741Y006961D02*
X018741Y007061D01*
X018716Y007036D02*
X018766Y007036D01*
X018815Y007011D02*
X018840Y007036D01*
X018890Y007036D01*
X018915Y007011D01*
X018915Y006986D01*
X018815Y006986D01*
X018815Y006961D02*
X018815Y007011D01*
X018815Y006961D02*
X018840Y006936D01*
X018890Y006936D01*
X019109Y006936D02*
X019184Y006936D01*
X019209Y006961D01*
X019209Y007011D01*
X019184Y007036D01*
X019109Y007036D01*
X019109Y007087D02*
X019109Y006936D01*
X019257Y006961D02*
X019257Y007011D01*
X019282Y007036D01*
X019332Y007036D01*
X019357Y007011D01*
X019357Y006986D01*
X019257Y006986D01*
X019257Y006961D02*
X019282Y006936D01*
X019332Y006936D01*
X019404Y006961D02*
X019429Y006986D01*
X019504Y006986D01*
X019504Y007011D02*
X019504Y006936D01*
X019429Y006936D01*
X019404Y006961D01*
X019429Y007036D02*
X019479Y007036D01*
X019504Y007011D01*
X019551Y007011D02*
X019576Y007036D01*
X019651Y007036D01*
X019651Y007087D02*
X019651Y006936D01*
X019576Y006936D01*
X019551Y006961D01*
X019551Y007011D01*
X018643Y007087D02*
X018643Y007112D01*
X018177Y007087D02*
X018152Y007061D01*
X018152Y006936D01*
X018999Y006416D02*
X018999Y006316D01*
X019024Y006291D01*
X019074Y006291D01*
X019099Y006316D01*
X019146Y006316D02*
X019171Y006291D01*
X019221Y006291D01*
X019246Y006316D01*
X019246Y006341D01*
X019221Y006366D01*
X019196Y006366D01*
X019221Y006366D02*
X019246Y006391D01*
X019246Y006416D01*
X019221Y006442D01*
X019171Y006442D01*
X019146Y006416D01*
X019099Y006416D02*
X019074Y006442D01*
X019024Y006442D01*
X018999Y006416D01*
X019354Y006337D02*
X019354Y006186D01*
X019454Y006186D01*
X019501Y006186D02*
X019601Y006186D01*
X019551Y006186D02*
X019551Y006337D01*
X019501Y006286D01*
X019441Y005567D02*
X019341Y005567D01*
X019341Y005416D01*
X019293Y005416D02*
X019293Y005516D01*
X019341Y005491D02*
X019391Y005491D01*
X019293Y005416D02*
X019218Y005416D01*
X019193Y005441D01*
X019193Y005516D01*
X019146Y005541D02*
X019046Y005441D01*
X019071Y005416D01*
X019121Y005416D01*
X019146Y005441D01*
X019146Y005541D01*
X019121Y005567D01*
X019071Y005567D01*
X019046Y005541D01*
X019046Y005441D01*
X018999Y005416D02*
X018899Y005416D01*
X018949Y005416D02*
X018949Y005567D01*
X018899Y005516D01*
X018890Y005012D02*
X018915Y004986D01*
X018915Y004936D01*
X018890Y004911D01*
X018815Y004911D01*
X018815Y004861D02*
X018815Y005012D01*
X018890Y005012D01*
X018962Y004961D02*
X019012Y005012D01*
X019012Y004861D01*
X018962Y004861D02*
X019062Y004861D01*
X019109Y004861D02*
X019109Y004886D01*
X019209Y004986D01*
X019209Y005012D01*
X019109Y005012D01*
X019257Y004986D02*
X019257Y004886D01*
X019357Y004986D01*
X019357Y004886D01*
X019332Y004861D01*
X019282Y004861D01*
X019257Y004886D01*
X019257Y004986D02*
X019282Y005012D01*
X019332Y005012D01*
X019357Y004986D01*
X019404Y004986D02*
X019429Y005012D01*
X019479Y005012D01*
X019504Y004986D01*
X019504Y004961D01*
X019479Y004936D01*
X019504Y004911D01*
X019504Y004886D01*
X019479Y004861D01*
X019429Y004861D01*
X019404Y004886D01*
X019454Y004936D02*
X019479Y004936D01*
X019551Y005012D02*
X019651Y005012D01*
X019601Y005012D02*
X019601Y004861D01*
X018768Y004886D02*
X018742Y004861D01*
X018692Y004861D01*
X018667Y004886D01*
X018667Y004986D01*
X018692Y005012D01*
X018742Y005012D01*
X018768Y004986D01*
X018620Y005012D02*
X018620Y004861D01*
X018520Y004861D02*
X018520Y005012D01*
X018570Y004961D01*
X018620Y005012D01*
X019231Y004237D02*
X019281Y004237D01*
X019256Y004237D02*
X019256Y004086D01*
X019231Y004086D02*
X019281Y004086D01*
X019329Y004111D02*
X019354Y004086D01*
X019404Y004086D01*
X019429Y004111D01*
X019476Y004086D02*
X019576Y004186D01*
X019576Y004211D01*
X019551Y004237D01*
X019501Y004237D01*
X019476Y004211D01*
X019429Y004211D02*
X019404Y004237D01*
X019354Y004237D01*
X019329Y004211D01*
X019329Y004111D01*
X019476Y004086D02*
X019576Y004086D01*
X019269Y003837D02*
X019269Y003686D01*
X019219Y003686D02*
X019319Y003686D01*
X019219Y003786D02*
X019269Y003837D01*
X019172Y003811D02*
X019147Y003837D01*
X019097Y003837D01*
X019072Y003811D01*
X019072Y003711D01*
X019097Y003686D01*
X019147Y003686D01*
X019172Y003711D01*
X019024Y003686D02*
X018974Y003686D01*
X018999Y003686D02*
X018999Y003837D01*
X018974Y003837D02*
X019024Y003837D01*
D12*
X000724Y000181D02*
X000474Y000431D01*
X000474Y000931D01*
X000724Y001181D01*
X001224Y001181D01*
X001474Y000931D01*
X001724Y001181D01*
X002224Y001181D01*
X002474Y000931D01*
X002724Y001181D01*
X003224Y001181D01*
X003474Y000931D01*
X003724Y001181D01*
X004224Y001181D01*
X004474Y000931D01*
X004724Y001181D01*
X005224Y001181D01*
X005474Y000931D01*
X005724Y001181D01*
X006224Y001181D01*
X006474Y000931D01*
X006724Y001181D01*
X007224Y001181D01*
X007474Y000931D01*
X007724Y001181D01*
X008224Y001181D01*
X008474Y000931D01*
X008724Y001181D01*
X009224Y001181D01*
X009474Y000931D01*
X009724Y001181D01*
X010224Y001181D01*
X010474Y000931D01*
X010724Y001181D01*
X011224Y001181D01*
X011474Y000931D01*
X011724Y001181D01*
X012224Y001181D01*
X012474Y000931D01*
X012724Y001181D01*
X013224Y001181D01*
X013474Y000931D01*
X013724Y001181D01*
X014224Y001181D01*
X014474Y000931D01*
X014724Y001181D01*
X015224Y001181D01*
X015474Y000931D01*
X015724Y001181D01*
X016224Y001181D01*
X016474Y000931D01*
X016724Y001181D01*
X017224Y001181D01*
X017474Y000931D01*
X017724Y001181D01*
X018224Y001181D01*
X018474Y000931D01*
X018724Y001181D01*
X019224Y001181D01*
X019474Y000931D01*
X019724Y001181D01*
X020224Y001181D01*
X020474Y000931D01*
X020474Y000431D01*
X020224Y000181D01*
X019724Y000181D01*
X019474Y000431D01*
X019224Y000181D01*
X018724Y000181D01*
X018474Y000431D01*
X018224Y000181D01*
X017724Y000181D01*
X017474Y000431D01*
X017224Y000181D01*
X016724Y000181D01*
X016474Y000431D01*
X016224Y000181D01*
X015724Y000181D01*
X015474Y000431D01*
X015224Y000181D01*
X014724Y000181D01*
X014474Y000431D01*
X014224Y000181D01*
X013724Y000181D01*
X013474Y000431D01*
X013224Y000181D01*
X012724Y000181D01*
X012474Y000431D01*
X012224Y000181D01*
X011724Y000181D01*
X011474Y000431D01*
X011224Y000181D01*
X010724Y000181D01*
X010474Y000431D01*
X010224Y000181D01*
X009724Y000181D01*
X009474Y000431D01*
X009224Y000181D01*
X008724Y000181D01*
X008474Y000431D01*
X008224Y000181D01*
X007724Y000181D01*
X007474Y000431D01*
X007224Y000181D01*
X006724Y000181D01*
X006474Y000431D01*
X006224Y000181D01*
X005724Y000181D01*
X005474Y000431D01*
X005224Y000181D01*
X004724Y000181D01*
X004474Y000431D01*
X004224Y000181D01*
X003724Y000181D01*
X003474Y000431D01*
X003224Y000181D01*
X002724Y000181D01*
X002474Y000431D01*
X002224Y000181D01*
X001724Y000181D01*
X001474Y000431D01*
X001224Y000181D01*
X000724Y000181D01*
X001962Y002685D02*
X002789Y002685D01*
X003773Y002961D02*
X003773Y003315D01*
X003773Y005048D02*
X003773Y005402D01*
X004639Y005606D02*
X005191Y005606D01*
X005191Y006117D01*
X004639Y006117D01*
X005191Y006117D02*
X005348Y006117D01*
X005348Y005606D02*
X005191Y005606D01*
X002789Y005677D02*
X001962Y005677D01*
X001724Y007101D02*
X001474Y007351D01*
X001224Y007101D01*
X000724Y007101D01*
X000474Y007351D01*
X000474Y007851D01*
X000724Y008101D01*
X001224Y008101D01*
X001474Y007851D01*
X001724Y008101D01*
X002224Y008101D01*
X002474Y007851D01*
X002724Y008101D01*
X003224Y008101D01*
X003474Y007851D01*
X003724Y008101D01*
X004224Y008101D01*
X004474Y007851D01*
X004724Y008101D01*
X005224Y008101D01*
X005474Y007851D01*
X005724Y008101D01*
X006224Y008101D01*
X006474Y007851D01*
X006724Y008101D01*
X007224Y008101D01*
X007474Y007851D01*
X007724Y008101D01*
X008224Y008101D01*
X008474Y007851D01*
X008724Y008101D01*
X009224Y008101D01*
X009474Y007851D01*
X009724Y008101D01*
X010224Y008101D01*
X010474Y007851D01*
X010724Y008101D01*
X011224Y008101D01*
X011474Y007851D01*
X011724Y008101D01*
X012224Y008101D01*
X012474Y007851D01*
X012724Y008101D01*
X013224Y008101D01*
X013474Y007851D01*
X013724Y008101D01*
X014224Y008101D01*
X014474Y007851D01*
X014724Y008101D01*
X015224Y008101D01*
X015474Y007851D01*
X015724Y008101D01*
X016224Y008101D01*
X016474Y007851D01*
X016724Y008101D01*
X017224Y008101D01*
X017474Y007851D01*
X017724Y008101D01*
X018224Y008101D01*
X018474Y007851D01*
X018724Y008101D01*
X019224Y008101D01*
X019474Y007851D01*
X019724Y008101D01*
X020224Y008101D01*
X020474Y007851D01*
X020474Y007351D01*
X020224Y007101D01*
X019724Y007101D01*
X019474Y007351D01*
X019224Y007101D01*
X018724Y007101D01*
X018474Y007351D01*
X018224Y007101D01*
X017724Y007101D01*
X017474Y007351D01*
X017224Y007101D01*
X016724Y007101D01*
X016474Y007351D01*
X016224Y007101D01*
X015724Y007101D01*
X015474Y007351D01*
X015224Y007101D01*
X014724Y007101D01*
X014474Y007351D01*
X014224Y007101D01*
X013724Y007101D01*
X013474Y007351D01*
X013224Y007101D01*
X012724Y007101D01*
X012474Y007351D01*
X012224Y007101D01*
X011724Y007101D01*
X011474Y007351D01*
X011224Y007101D01*
X010724Y007101D01*
X010474Y007351D01*
X010224Y007101D01*
X009724Y007101D01*
X009474Y007351D01*
X009224Y007101D01*
X008724Y007101D01*
X008474Y007351D01*
X008224Y007101D01*
X007724Y007101D01*
X007474Y007351D01*
X007224Y007101D01*
X006724Y007101D01*
X006474Y007351D01*
X006224Y007101D01*
X005724Y007101D01*
X005474Y007351D01*
X005224Y007101D01*
X004724Y007101D01*
X004474Y007351D01*
X004224Y007101D01*
X003724Y007101D01*
X003474Y007351D01*
X003224Y007101D01*
X002724Y007101D01*
X002474Y007351D01*
X002224Y007101D01*
X001724Y007101D01*
X015239Y001667D02*
X015239Y001419D01*
X015361Y001541D01*
X015361Y001723D01*
X015239Y001667D02*
X015365Y001541D01*
X015361Y001541D02*
X015361Y001360D01*
X015893Y001761D02*
X018334Y001761D01*
X018334Y004202D01*
X015893Y004202D01*
X015893Y001761D01*
X016622Y002981D02*
X016624Y003025D01*
X016630Y003069D01*
X016640Y003112D01*
X016653Y003154D01*
X016671Y003194D01*
X016692Y003233D01*
X016716Y003270D01*
X016743Y003305D01*
X016774Y003337D01*
X016807Y003366D01*
X016843Y003392D01*
X016881Y003414D01*
X016921Y003433D01*
X016962Y003449D01*
X017005Y003461D01*
X017048Y003469D01*
X017092Y003473D01*
X017136Y003473D01*
X017180Y003469D01*
X017223Y003461D01*
X017266Y003449D01*
X017307Y003433D01*
X017347Y003414D01*
X017385Y003392D01*
X017421Y003366D01*
X017454Y003337D01*
X017485Y003305D01*
X017512Y003270D01*
X017536Y003233D01*
X017557Y003194D01*
X017575Y003154D01*
X017588Y003112D01*
X017598Y003069D01*
X017604Y003025D01*
X017606Y002981D01*
X017604Y002937D01*
X017598Y002893D01*
X017588Y002850D01*
X017575Y002808D01*
X017557Y002768D01*
X017536Y002729D01*
X017512Y002692D01*
X017485Y002657D01*
X017454Y002625D01*
X017421Y002596D01*
X017385Y002570D01*
X017347Y002548D01*
X017307Y002529D01*
X017266Y002513D01*
X017223Y002501D01*
X017180Y002493D01*
X017136Y002489D01*
X017092Y002489D01*
X017048Y002493D01*
X017005Y002501D01*
X016962Y002513D01*
X016921Y002529D01*
X016881Y002548D01*
X016843Y002570D01*
X016807Y002596D01*
X016774Y002625D01*
X016743Y002657D01*
X016716Y002692D01*
X016692Y002729D01*
X016671Y002768D01*
X016653Y002808D01*
X016640Y002850D01*
X016630Y002893D01*
X016624Y002937D01*
X016622Y002981D01*
X018743Y002942D02*
X018743Y003257D01*
X018979Y003257D01*
X019609Y003257D02*
X019845Y003257D01*
X019845Y002942D01*
X018334Y004321D02*
X015893Y004321D01*
X015893Y006762D01*
X018334Y006762D01*
X018334Y004321D01*
X018743Y004666D02*
X018743Y004981D01*
X018743Y004666D02*
X018979Y004666D01*
X019609Y004666D02*
X019845Y004666D01*
X019845Y004981D01*
X016622Y005541D02*
X016624Y005585D01*
X016630Y005629D01*
X016640Y005672D01*
X016653Y005714D01*
X016671Y005754D01*
X016692Y005793D01*
X016716Y005830D01*
X016743Y005865D01*
X016774Y005897D01*
X016807Y005926D01*
X016843Y005952D01*
X016881Y005974D01*
X016921Y005993D01*
X016962Y006009D01*
X017005Y006021D01*
X017048Y006029D01*
X017092Y006033D01*
X017136Y006033D01*
X017180Y006029D01*
X017223Y006021D01*
X017266Y006009D01*
X017307Y005993D01*
X017347Y005974D01*
X017385Y005952D01*
X017421Y005926D01*
X017454Y005897D01*
X017485Y005865D01*
X017512Y005830D01*
X017536Y005793D01*
X017557Y005754D01*
X017575Y005714D01*
X017588Y005672D01*
X017598Y005629D01*
X017604Y005585D01*
X017606Y005541D01*
X017604Y005497D01*
X017598Y005453D01*
X017588Y005410D01*
X017575Y005368D01*
X017557Y005328D01*
X017536Y005289D01*
X017512Y005252D01*
X017485Y005217D01*
X017454Y005185D01*
X017421Y005156D01*
X017385Y005130D01*
X017347Y005108D01*
X017307Y005089D01*
X017266Y005073D01*
X017223Y005061D01*
X017180Y005053D01*
X017136Y005049D01*
X017092Y005049D01*
X017048Y005053D01*
X017005Y005061D01*
X016962Y005073D01*
X016921Y005089D01*
X016881Y005108D01*
X016843Y005130D01*
X016807Y005156D01*
X016774Y005185D01*
X016743Y005217D01*
X016716Y005252D01*
X016692Y005289D01*
X016671Y005328D01*
X016653Y005368D01*
X016640Y005410D01*
X016630Y005453D01*
X016624Y005497D01*
X016622Y005541D01*
D13*
X019176Y005725D02*
X019412Y005725D01*
X019412Y006198D02*
X019176Y006198D01*
X019176Y002238D02*
X019412Y002238D01*
X019412Y001765D02*
X019176Y001765D01*
D14*
X013776Y004105D02*
X012050Y002379D01*
X011897Y002379D01*
X010171Y004105D01*
X010171Y004258D01*
X011897Y005984D01*
X012050Y005984D01*
X013776Y004258D01*
X013776Y004105D01*
X010624Y004181D02*
X010626Y004211D01*
X010632Y004241D01*
X010641Y004270D01*
X010654Y004297D01*
X010671Y004322D01*
X010690Y004345D01*
X010713Y004366D01*
X010738Y004383D01*
X010764Y004397D01*
X010793Y004407D01*
X010822Y004414D01*
X010852Y004417D01*
X010883Y004416D01*
X010913Y004411D01*
X010942Y004402D01*
X010969Y004390D01*
X010995Y004375D01*
X011019Y004356D01*
X011040Y004334D01*
X011058Y004310D01*
X011073Y004283D01*
X011084Y004255D01*
X011092Y004226D01*
X011096Y004196D01*
X011096Y004166D01*
X011092Y004136D01*
X011084Y004107D01*
X011073Y004079D01*
X011058Y004052D01*
X011040Y004028D01*
X011019Y004006D01*
X010995Y003987D01*
X010969Y003972D01*
X010942Y003960D01*
X010913Y003951D01*
X010883Y003946D01*
X010852Y003945D01*
X010822Y003948D01*
X010793Y003955D01*
X010764Y003965D01*
X010738Y003979D01*
X010713Y003996D01*
X010690Y004017D01*
X010671Y004040D01*
X010654Y004065D01*
X010641Y004092D01*
X010632Y004121D01*
X010626Y004151D01*
X010624Y004181D01*
D15*
X020222Y006256D02*
X020372Y006406D01*
X020297Y006406D01*
X020297Y006481D01*
X020372Y006481D01*
X020372Y006406D01*
X000544Y001501D02*
X000544Y001426D01*
X000469Y001426D01*
X000469Y001501D01*
X000544Y001501D01*
M02*
